{"glyphs":{"0":{"ha":833,"x_min":111,"x_max":722,"o":"m 417 -14 q 194 67 276 -14 q 111 285 111 149 l 111 729 q 194 947 111 865 q 417 1028 276 1028 q 640 947 557 1028 q 722 729 722 865 l 722 285 q 685 127 722 194 q 578 23 647 60 q 417 -14 510 -14 m 417 93 q 551 147 500 93 q 601 285 601 200 l 601 729 q 551 867 601 814 q 417 921 500 921 q 283 867 333 921 q 232 729 232 814 l 232 285 q 283 147 232 200 q 417 93 333 93 m 417 431 q 356 451 379 431 q 333 511 333 472 q 356 569 333 549 q 417 589 379 589 q 477 569 454 589 q 500 511 500 549 q 477 451 500 472 q 417 431 454 431 z "},"1":{"ha":833,"x_min":125,"x_max":750,"o":"m 125 0 l 125 114 l 400 114 l 400 906 l 125 700 l 125 843 l 354 1014 l 525 1014 l 525 114 l 750 114 l 750 0 l 125 0 z "},"2":{"ha":833,"x_min":106,"x_max":732,"o":"m 119 0 l 119 115 l 457 476 q 561 615 531 554 q 592 735 592 676 q 544 867 592 818 q 414 917 496 917 q 280 866 329 917 q 231 729 231 815 l 106 729 q 193 947 110 867 q 414 1028 276 1028 q 637 949 554 1028 q 719 733 719 869 q 680 581 719 661 q 544 400 640 500 l 271 114 l 732 114 l 732 0 l 119 0 z "},"3":{"ha":833,"x_min":97,"x_max":708,"o":"m 401 -14 q 179 65 261 -14 q 97 278 97 143 l 222 278 q 271 146 222 194 q 403 97 319 97 q 535 146 486 97 q 583 278 583 194 l 583 347 q 535 479 583 431 q 403 528 486 528 l 293 528 l 293 636 l 542 900 l 125 900 l 125 1014 l 683 1014 l 683 897 l 439 638 q 636 551 564 628 q 708 347 708 474 l 708 278 q 626 65 708 143 q 401 -14 543 -14 z "},"4":{"ha":833,"x_min":97,"x_max":681,"o":"m 556 0 l 556 222 l 97 222 l 97 418 l 467 1014 l 608 1014 l 222 390 l 222 336 l 556 336 l 556 583 l 681 583 l 681 0 l 556 0 z "},"5":{"ha":833,"x_min":104,"x_max":715,"o":"m 408 -14 q 186 65 268 -14 q 104 278 104 143 l 229 278 q 278 146 229 194 q 410 97 326 97 q 542 146 493 97 q 590 278 590 194 l 590 340 q 543 472 590 424 q 415 521 496 521 l 139 521 l 139 1014 l 679 1014 l 679 900 l 256 900 l 258 635 l 422 635 q 639 558 563 635 q 715 340 715 481 l 715 278 q 633 65 715 143 q 408 -14 550 -14 z "},"6":{"ha":833,"x_min":89,"x_max":744,"o":"m 418 -14 q 247 27 321 -14 q 131 141 172 68 q 89 310 89 214 q 114 447 89 376 q 182 593 139 517 l 417 1014 l 556 1014 l 306 579 l 310 576 q 364 613 328 600 q 443 625 400 625 q 601 585 533 625 q 706 476 668 546 q 744 315 744 407 q 703 144 744 218 q 588 28 661 69 q 418 -14 515 -14 m 417 97 q 563 157 507 97 q 619 313 619 217 q 563 468 619 408 q 417 528 507 528 q 270 468 326 528 q 214 313 214 408 q 270 157 214 217 q 417 97 326 97 z "},"7":{"ha":833,"x_min":114,"x_max":758,"o":"m 264 0 l 625 900 l 239 900 l 239 736 l 114 736 l 114 1014 l 758 1014 l 758 897 l 400 0 l 264 0 z "},"8":{"ha":833,"x_min":92,"x_max":742,"o":"m 417 -14 q 247 24 321 -14 q 133 128 174 61 q 92 283 92 196 q 147 449 92 379 q 293 533 201 518 l 293 538 q 167 617 214 556 q 119 760 119 679 q 157 899 119 839 q 262 994 194 960 q 417 1028 329 1028 q 572 994 506 1028 q 676 899 639 960 q 714 760 714 839 q 667 617 714 679 q 540 538 619 556 l 540 533 q 687 449 632 518 q 742 283 742 379 q 701 128 742 196 q 587 24 660 61 q 417 -14 514 -14 m 417 586 q 542 632 494 586 q 589 751 589 678 q 542 871 589 825 q 417 917 494 917 q 292 871 340 917 q 244 751 244 825 q 292 632 244 678 q 417 586 340 586 m 417 99 q 561 151 506 99 q 617 286 617 203 q 561 423 617 371 q 417 475 506 475 q 272 423 328 475 q 217 286 217 371 q 272 151 217 203 q 417 99 328 99 z "},"9":{"ha":833,"x_min":89,"x_max":744,"o":"m 271 0 l 521 435 l 517 438 q 465 402 503 415 q 383 389 428 389 q 230 428 296 389 q 126 538 164 468 q 89 699 89 607 q 131 871 89 797 q 246 986 172 944 q 415 1028 319 1028 q 588 987 514 1028 q 703 873 661 946 q 744 704 744 800 q 719 567 744 638 q 651 421 694 497 l 417 0 l 271 0 m 417 486 q 563 546 507 486 q 619 701 619 606 q 563 857 619 797 q 417 917 507 917 q 270 857 326 917 q 214 701 214 797 q 270 546 214 606 q 417 486 326 486 z "},"Ƒ":{"ha":833,"x_min":125,"x_max":708,"o":"m 125 0 l 125 1014 l 708 1014 l 708 0 l 125 0 m 194 151 l 611 944 l 194 944 l 194 151 m 222 69 l 639 69 l 639 863 l 222 69 z "},"Ǐ":{"ha":833,"x_min":125,"x_max":708,"o":"m 125 0 l 125 1014 l 708 1014 l 708 0 l 125 0 m 194 151 l 611 944 l 194 944 l 194 151 m 222 69 l 639 69 l 639 863 l 222 69 z "},"Ǒ":{"ha":833,"x_min":125,"x_max":708,"o":"m 125 0 l 125 1014 l 708 1014 l 708 0 l 125 0 m 194 151 l 611 944 l 194 944 l 194 151 m 222 69 l 639 69 l 639 863 l 222 69 z "},"Ǔ":{"ha":833,"x_min":125,"x_max":708,"o":"m 125 0 l 125 1014 l 708 1014 l 708 0 l 125 0 m 194 151 l 611 944 l 194 944 l 194 151 m 222 69 l 639 69 l 639 863 l 222 69 z "},"Ǖ":{"ha":833,"x_min":125,"x_max":708,"o":"m 125 0 l 125 1014 l 708 1014 l 708 0 l 125 0 m 194 151 l 611 944 l 194 944 l 194 151 m 222 69 l 639 69 l 639 863 l 222 69 z "},"Ǘ":{"ha":833,"x_min":125,"x_max":708,"o":"m 125 0 l 125 1014 l 708 1014 l 708 0 l 125 0 m 194 151 l 611 944 l 194 944 l 194 151 m 222 69 l 639 69 l 639 863 l 222 69 z "},"Ǚ":{"ha":833,"x_min":125,"x_max":708,"o":"m 125 0 l 125 1014 l 708 1014 l 708 0 l 125 0 m 194 151 l 611 944 l 194 944 l 194 151 m 222 69 l 639 69 l 639 863 l 222 69 z "},"Ǜ":{"ha":833,"x_min":125,"x_max":708,"o":"m 125 0 l 125 1014 l 708 1014 l 708 0 l 125 0 m 194 151 l 611 944 l 194 944 l 194 151 m 222 69 l 639 69 l 639 863 l 222 69 z "},"Ǩ":{"ha":833,"x_min":125,"x_max":708,"o":"m 125 0 l 125 1014 l 708 1014 l 708 0 l 125 0 m 194 151 l 611 944 l 194 944 l 194 151 m 222 69 l 639 69 l 639 863 l 222 69 z "},"ǩ":{"ha":833,"x_min":125,"x_max":708,"o":"m 125 0 l 125 1014 l 708 1014 l 708 0 l 125 0 m 194 151 l 611 944 l 194 944 l 194 151 m 222 69 l 639 69 l 639 863 l 222 69 z "},"ȴ":{"ha":833,"x_min":125,"x_max":708,"o":"m 125 0 l 125 1014 l 708 1014 l 708 0 l 125 0 m 194 151 l 611 944 l 194 944 l 194 151 m 222 69 l 639 69 l 639 863 l 222 69 z "},"ȵ":{"ha":833,"x_min":125,"x_max":708,"o":"m 125 0 l 125 1014 l 708 1014 l 708 0 l 125 0 m 194 151 l 611 944 l 194 944 l 194 151 m 222 69 l 639 69 l 639 863 l 222 69 z "},"ȶ":{"ha":833,"x_min":125,"x_max":708,"o":"m 125 0 l 125 1014 l 708 1014 l 708 0 l 125 0 m 194 151 l 611 944 l 194 944 l 194 151 m 222 69 l 639 69 l 639 863 l 222 69 z "},"ʻ":{"ha":833,"x_min":125,"x_max":708,"o":"m 125 0 l 125 1014 l 708 1014 l 708 0 l 125 0 m 194 151 l 611 944 l 194 944 l 194 151 m 222 69 l 639 69 l 639 863 l 222 69 z "},"ˈ":{"ha":833,"x_min":125,"x_max":708,"o":"m 125 0 l 125 1014 l 708 1014 l 708 0 l 125 0 m 194 151 l 611 944 l 194 944 l 194 151 m 222 69 l 639 69 l 639 863 l 222 69 z "},"˴":{"ha":833,"x_min":125,"x_max":708,"o":"m 125 0 l 125 1014 l 708 1014 l 708 0 l 125 0 m 194 151 l 611 944 l 194 944 l 194 151 m 222 69 l 639 69 l 639 863 l 222 69 z "},"˵":{"ha":833,"x_min":125,"x_max":708,"o":"m 125 0 l 125 1014 l 708 1014 l 708 0 l 125 0 m 194 151 l 611 944 l 194 944 l 194 151 m 222 69 l 639 69 l 639 863 l 222 69 z "},"˶":{"ha":833,"x_min":125,"x_max":708,"o":"m 125 0 l 125 1014 l 708 1014 l 708 0 l 125 0 m 194 151 l 611 944 l 194 944 l 194 151 m 222 69 l 639 69 l 639 863 l 222 69 z "},"̐":{"ha":833,"x_min":125,"x_max":708,"o":"m 125 0 l 125 1014 l 708 1014 l 708 0 l 125 0 m 194 151 l 611 944 l 194 944 l 194 151 m 222 69 l 639 69 l 639 863 l 222 69 z "},"̑":{"ha":833,"x_min":125,"x_max":708,"o":"m 125 0 l 125 1014 l 708 1014 l 708 0 l 125 0 m 194 151 l 611 944 l 194 944 l 194 151 m 222 69 l 639 69 l 639 863 l 222 69 z "},"̤":{"ha":833,"x_min":125,"x_max":708,"o":"m 125 0 l 125 1014 l 708 1014 l 708 0 l 125 0 m 194 151 l 611 944 l 194 944 l 194 151 m 222 69 l 639 69 l 639 863 l 222 69 z "},"Ҹ":{"ha":833,"x_min":125,"x_max":708,"o":"m 125 0 l 125 1014 l 708 1014 l 708 0 l 125 0 m 194 151 l 611 944 l 194 944 l 194 151 m 222 69 l 639 69 l 639 863 l 222 69 z "},"ҹ":{"ha":833,"x_min":125,"x_max":708,"o":"m 125 0 l 125 1014 l 708 1014 l 708 0 l 125 0 m 194 151 l 611 944 l 194 944 l 194 151 m 222 69 l 639 69 l 639 863 l 222 69 z "},"Ӛ":{"ha":833,"x_min":125,"x_max":708,"o":"m 125 0 l 125 1014 l 708 1014 l 708 0 l 125 0 m 194 151 l 611 944 l 194 944 l 194 151 m 222 69 l 639 69 l 639 863 l 222 69 z "},"ӛ":{"ha":833,"x_min":125,"x_max":708,"o":"m 125 0 l 125 1014 l 708 1014 l 708 0 l 125 0 m 194 151 l 611 944 l 194 944 l 194 151 m 222 69 l 639 69 l 639 863 l 222 69 z "},"‑":{"ha":833,"x_min":125,"x_max":708,"o":"m 125 0 l 125 1014 l 708 1014 l 708 0 l 125 0 m 194 151 l 611 944 l 194 944 l 194 151 m 222 69 l 639 69 l 639 863 l 222 69 z "},"‒":{"ha":833,"x_min":125,"x_max":708,"o":"m 125 0 l 125 1014 l 708 1014 l 708 0 l 125 0 m 194 151 l 611 944 l 194 944 l 194 151 m 222 69 l 639 69 l 639 863 l 222 69 z "},"―":{"ha":833,"x_min":125,"x_max":708,"o":"m 125 0 l 125 1014 l 708 1014 l 708 0 l 125 0 m 194 151 l 611 944 l 194 944 l 194 151 m 222 69 l 639 69 l 639 863 l 222 69 z "},"‥":{"ha":833,"x_min":125,"x_max":708,"o":"m 125 0 l 125 1014 l 708 1014 l 708 0 l 125 0 m 194 151 l 611 944 l 194 944 l 194 151 m 222 69 l 639 69 l 639 863 l 222 69 z "},"‱":{"ha":833,"x_min":125,"x_max":708,"o":"m 125 0 l 125 1014 l 708 1014 l 708 0 l 125 0 m 194 151 l 611 944 l 194 944 l 194 151 m 222 69 l 639 69 l 639 863 l 222 69 z "},"※":{"ha":833,"x_min":125,"x_max":708,"o":"m 125 0 l 125 1014 l 708 1014 l 708 0 l 125 0 m 194 151 l 611 944 l 194 944 l 194 151 m 222 69 l 639 69 l 639 863 l 222 69 z "},"₭":{"ha":833,"x_min":125,"x_max":708,"o":"m 125 0 l 125 1014 l 708 1014 l 708 0 l 125 0 m 194 151 l 611 944 l 194 944 l 194 151 m 222 69 l 639 69 l 639 863 l 222 69 z "},"₾":{"ha":833,"x_min":125,"x_max":708,"o":"m 125 0 l 125 1014 l 708 1014 l 708 0 l 125 0 m 194 151 l 611 944 l 194 944 l 194 151 m 222 69 l 639 69 l 639 863 l 222 69 z "},"℔":{"ha":833,"x_min":125,"x_max":708,"o":"m 125 0 l 125 1014 l 708 1014 l 708 0 l 125 0 m 194 151 l 611 944 l 194 944 l 194 151 m 222 69 l 639 69 l 639 863 l 222 69 z "},"℗":{"ha":833,"x_min":125,"x_max":708,"o":"m 125 0 l 125 1014 l 708 1014 l 708 0 l 125 0 m 194 151 l 611 944 l 194 944 l 194 151 m 222 69 l 639 69 l 639 863 l 222 69 z "},"℘":{"ha":833,"x_min":125,"x_max":708,"o":"m 125 0 l 125 1014 l 708 1014 l 708 0 l 125 0 m 194 151 l 611 944 l 194 944 l 194 151 m 222 69 l 639 69 l 639 863 l 222 69 z "},"ℛ":{"ha":833,"x_min":125,"x_max":708,"o":"m 125 0 l 125 1014 l 708 1014 l 708 0 l 125 0 m 194 151 l 611 944 l 194 944 l 194 151 m 222 69 l 639 69 l 639 863 l 222 69 z "},"ℜ":{"ha":833,"x_min":125,"x_max":708,"o":"m 125 0 l 125 1014 l 708 1014 l 708 0 l 125 0 m 194 151 l 611 944 l 194 944 l 194 151 m 222 69 l 639 69 l 639 863 l 222 69 z "},"℣":{"ha":833,"x_min":125,"x_max":708,"o":"m 125 0 l 125 1014 l 708 1014 l 708 0 l 125 0 m 194 151 l 611 944 l 194 944 l 194 151 m 222 69 l 639 69 l 639 863 l 222 69 z "},"↟":{"ha":833,"x_min":125,"x_max":708,"o":"m 125 0 l 125 1014 l 708 1014 l 708 0 l 125 0 m 194 151 l 611 944 l 194 944 l 194 151 m 222 69 l 639 69 l 639 863 l 222 69 z "},"↡":{"ha":833,"x_min":125,"x_max":708,"o":"m 125 0 l 125 1014 l 708 1014 l 708 0 l 125 0 m 194 151 l 611 944 l 194 944 l 194 151 m 222 69 l 639 69 l 639 863 l 222 69 z "},"↤":{"ha":833,"x_min":125,"x_max":708,"o":"m 125 0 l 125 1014 l 708 1014 l 708 0 l 125 0 m 194 151 l 611 944 l 194 944 l 194 151 m 222 69 l 639 69 l 639 863 l 222 69 z "},"↨":{"ha":833,"x_min":125,"x_max":708,"o":"m 125 0 l 125 1014 l 708 1014 l 708 0 l 125 0 m 194 151 l 611 944 l 194 944 l 194 151 m 222 69 l 639 69 l 639 863 l 222 69 z "},"↫":{"ha":833,"x_min":125,"x_max":708,"o":"m 125 0 l 125 1014 l 708 1014 l 708 0 l 125 0 m 194 151 l 611 944 l 194 944 l 194 151 m 222 69 l 639 69 l 639 863 l 222 69 z "},"↬":{"ha":833,"x_min":125,"x_max":708,"o":"m 125 0 l 125 1014 l 708 1014 l 708 0 l 125 0 m 194 151 l 611 944 l 194 944 l 194 151 m 222 69 l 639 69 l 639 863 l 222 69 z "},"⇜":{"ha":833,"x_min":125,"x_max":708,"o":"m 125 0 l 125 1014 l 708 1014 l 708 0 l 125 0 m 194 151 l 611 944 l 194 944 l 194 151 m 222 69 l 639 69 l 639 863 l 222 69 z "},"⇝":{"ha":833,"x_min":125,"x_max":708,"o":"m 125 0 l 125 1014 l 708 1014 l 708 0 l 125 0 m 194 151 l 611 944 l 194 944 l 194 151 m 222 69 l 639 69 l 639 863 l 222 69 z "},"⇦":{"ha":833,"x_min":125,"x_max":708,"o":"m 125 0 l 125 1014 l 708 1014 l 708 0 l 125 0 m 194 151 l 611 944 l 194 944 l 194 151 m 222 69 l 639 69 l 639 863 l 222 69 z "},"⇩":{"ha":833,"x_min":125,"x_max":708,"o":"m 125 0 l 125 1014 l 708 1014 l 708 0 l 125 0 m 194 151 l 611 944 l 194 944 l 194 151 m 222 69 l 639 69 l 639 863 l 222 69 z "},"∖":{"ha":833,"x_min":125,"x_max":708,"o":"m 125 0 l 125 1014 l 708 1014 l 708 0 l 125 0 m 194 151 l 611 944 l 194 944 l 194 151 m 222 69 l 639 69 l 639 863 l 222 69 z "},"∗":{"ha":833,"x_min":125,"x_max":708,"o":"m 125 0 l 125 1014 l 708 1014 l 708 0 l 125 0 m 194 151 l 611 944 l 194 944 l 194 151 m 222 69 l 639 69 l 639 863 l 222 69 z "},"∛":{"ha":833,"x_min":125,"x_max":708,"o":"m 125 0 l 125 1014 l 708 1014 l 708 0 l 125 0 m 194 151 l 611 944 l 194 944 l 194 151 m 222 69 l 639 69 l 639 863 l 222 69 z "},"∜":{"ha":833,"x_min":125,"x_max":708,"o":"m 125 0 l 125 1014 l 708 1014 l 708 0 l 125 0 m 194 151 l 611 944 l 194 944 l 194 151 m 222 69 l 639 69 l 639 863 l 222 69 z "},"∝":{"ha":833,"x_min":125,"x_max":708,"o":"m 125 0 l 125 1014 l 708 1014 l 708 0 l 125 0 m 194 151 l 611 944 l 194 944 l 194 151 m 222 69 l 639 69 l 639 863 l 222 69 z "},"∽":{"ha":833,"x_min":125,"x_max":708,"o":"m 125 0 l 125 1014 l 708 1014 l 708 0 l 125 0 m 194 151 l 611 944 l 194 944 l 194 151 m 222 69 l 639 69 l 639 863 l 222 69 z "},"≄":{"ha":833,"x_min":125,"x_max":708,"o":"m 125 0 l 125 1014 l 708 1014 l 708 0 l 125 0 m 194 151 l 611 944 l 194 944 l 194 151 m 222 69 l 639 69 l 639 863 l 222 69 z "},"≆":{"ha":833,"x_min":125,"x_max":708,"o":"m 125 0 l 125 1014 l 708 1014 l 708 0 l 125 0 m 194 151 l 611 944 l 194 944 l 194 151 m 222 69 l 639 69 l 639 863 l 222 69 z "},"≊":{"ha":833,"x_min":125,"x_max":708,"o":"m 125 0 l 125 1014 l 708 1014 l 708 0 l 125 0 m 194 151 l 611 944 l 194 944 l 194 151 m 222 69 l 639 69 l 639 863 l 222 69 z "},"≌":{"ha":833,"x_min":125,"x_max":708,"o":"m 125 0 l 125 1014 l 708 1014 l 708 0 l 125 0 m 194 151 l 611 944 l 194 944 l 194 151 m 222 69 l 639 69 l 639 863 l 222 69 z "},"≕":{"ha":833,"x_min":125,"x_max":708,"o":"m 125 0 l 125 1014 l 708 1014 l 708 0 l 125 0 m 194 151 l 611 944 l 194 944 l 194 151 m 222 69 l 639 69 l 639 863 l 222 69 z "},"≖":{"ha":833,"x_min":125,"x_max":708,"o":"m 125 0 l 125 1014 l 708 1014 l 708 0 l 125 0 m 194 151 l 611 944 l 194 944 l 194 151 m 222 69 l 639 69 l 639 863 l 222 69 z "},"⊵":{"ha":833,"x_min":125,"x_max":708,"o":"m 125 0 l 125 1014 l 708 1014 l 708 0 l 125 0 m 194 151 l 611 944 l 194 944 l 194 151 m 222 69 l 639 69 l 639 863 l 222 69 z "},"⊶":{"ha":833,"x_min":125,"x_max":708,"o":"m 125 0 l 125 1014 l 708 1014 l 708 0 l 125 0 m 194 151 l 611 944 l 194 944 l 194 151 m 222 69 l 639 69 l 639 863 l 222 69 z "},"⊷":{"ha":833,"x_min":125,"x_max":708,"o":"m 125 0 l 125 1014 l 708 1014 l 708 0 l 125 0 m 194 151 l 611 944 l 194 944 l 194 151 m 222 69 l 639 69 l 639 863 l 222 69 z "},"⊹":{"ha":833,"x_min":125,"x_max":708,"o":"m 125 0 l 125 1014 l 708 1014 l 708 0 l 125 0 m 194 151 l 611 944 l 194 944 l 194 151 m 222 69 l 639 69 l 639 863 l 222 69 z "},"⊺":{"ha":833,"x_min":125,"x_max":708,"o":"m 125 0 l 125 1014 l 708 1014 l 708 0 l 125 0 m 194 151 l 611 944 l 194 944 l 194 151 m 222 69 l 639 69 l 639 863 l 222 69 z "},"⋅":{"ha":833,"x_min":125,"x_max":708,"o":"m 125 0 l 125 1014 l 708 1014 l 708 0 l 125 0 m 194 151 l 611 944 l 194 944 l 194 151 m 222 69 l 639 69 l 639 863 l 222 69 z "},"⋇":{"ha":833,"x_min":125,"x_max":708,"o":"m 125 0 l 125 1014 l 708 1014 l 708 0 l 125 0 m 194 151 l 611 944 l 194 944 l 194 151 m 222 69 l 639 69 l 639 863 l 222 69 z "},"⋋":{"ha":833,"x_min":125,"x_max":708,"o":"m 125 0 l 125 1014 l 708 1014 l 708 0 l 125 0 m 194 151 l 611 944 l 194 944 l 194 151 m 222 69 l 639 69 l 639 863 l 222 69 z "},"⋌":{"ha":833,"x_min":125,"x_max":708,"o":"m 125 0 l 125 1014 l 708 1014 l 708 0 l 125 0 m 194 151 l 611 944 l 194 944 l 194 151 m 222 69 l 639 69 l 639 863 l 222 69 z "},"⋍":{"ha":833,"x_min":125,"x_max":708,"o":"m 125 0 l 125 1014 l 708 1014 l 708 0 l 125 0 m 194 151 l 611 944 l 194 944 l 194 151 m 222 69 l 639 69 l 639 863 l 222 69 z "},"⋏":{"ha":833,"x_min":125,"x_max":708,"o":"m 125 0 l 125 1014 l 708 1014 l 708 0 l 125 0 m 194 151 l 611 944 l 194 944 l 194 151 m 222 69 l 639 69 l 639 863 l 222 69 z "},"⌆":{"ha":833,"x_min":125,"x_max":708,"o":"m 125 0 l 125 1014 l 708 1014 l 708 0 l 125 0 m 194 151 l 611 944 l 194 944 l 194 151 m 222 69 l 639 69 l 639 863 l 222 69 z "},"⌇":{"ha":833,"x_min":125,"x_max":708,"o":"m 125 0 l 125 1014 l 708 1014 l 708 0 l 125 0 m 194 151 l 611 944 l 194 944 l 194 151 m 222 69 l 639 69 l 639 863 l 222 69 z "},"⌙":{"ha":833,"x_min":125,"x_max":708,"o":"m 125 0 l 125 1014 l 708 1014 l 708 0 l 125 0 m 194 151 l 611 944 l 194 944 l 194 151 m 222 69 l 639 69 l 639 863 l 222 69 z "},"⌚":{"ha":833,"x_min":125,"x_max":708,"o":"m 125 0 l 125 1014 l 708 1014 l 708 0 l 125 0 m 194 151 l 611 944 l 194 944 l 194 151 m 222 69 l 639 69 l 639 863 l 222 69 z "},"⌛":{"ha":833,"x_min":125,"x_max":708,"o":"m 125 0 l 125 1014 l 708 1014 l 708 0 l 125 0 m 194 151 l 611 944 l 194 944 l 194 151 m 222 69 l 639 69 l 639 863 l 222 69 z "},"⌧":{"ha":833,"x_min":125,"x_max":708,"o":"m 125 0 l 125 1014 l 708 1014 l 708 0 l 125 0 m 194 151 l 611 944 l 194 944 l 194 151 m 222 69 l 639 69 l 639 863 l 222 69 z "},"〈":{"ha":833,"x_min":125,"x_max":708,"o":"m 125 0 l 125 1014 l 708 1014 l 708 0 l 125 0 m 194 151 l 611 944 l 194 944 l 194 151 m 222 69 l 639 69 l 639 863 l 222 69 z "},"〉":{"ha":833,"x_min":125,"x_max":708,"o":"m 125 0 l 125 1014 l 708 1014 l 708 0 l 125 0 m 194 151 l 611 944 l 194 944 l 194 151 m 222 69 l 639 69 l 639 863 l 222 69 z "},"♮":{"ha":833,"x_min":125,"x_max":708,"o":"m 125 0 l 125 1014 l 708 1014 l 708 0 l 125 0 m 194 151 l 611 944 l 194 944 l 194 151 m 222 69 l 639 69 l 639 863 l 222 69 z "},"✔":{"ha":833,"x_min":125,"x_max":708,"o":"m 125 0 l 125 1014 l 708 1014 l 708 0 l 125 0 m 194 151 l 611 944 l 194 944 l 194 151 m 222 69 l 639 69 l 639 863 l 222 69 z "},"✖":{"ha":833,"x_min":125,"x_max":708,"o":"m 125 0 l 125 1014 l 708 1014 l 708 0 l 125 0 m 194 151 l 611 944 l 194 944 l 194 151 m 222 69 l 639 69 l 639 863 l 222 69 z "},"":{"ha":833,"x_min":125,"x_max":708,"o":"m 125 0 l 125 1014 l 708 1014 l 708 0 l 125 0 m 194 151 l 611 944 l 194 944 l 194 151 m 222 69 l 639 69 l 639 863 l 222 69 z "},"":{"ha":833,"x_min":125,"x_max":708,"o":"m 125 0 l 125 1014 l 708 1014 l 708 0 l 125 0 m 194 151 l 611 944 l 194 944 l 194 151 m 222 69 l 639 69 l 639 863 l 222 69 z "},"":{"ha":833,"x_min":125,"x_max":708,"o":"m 125 0 l 125 1014 l 708 1014 l 708 0 l 125 0 m 194 151 l 611 944 l 194 944 l 194 151 m 222 69 l 639 69 l 639 863 l 222 69 z "},"":{"ha":833,"x_min":125,"x_max":708,"o":"m 125 0 l 125 1014 l 708 1014 l 708 0 l 125 0 m 194 151 l 611 944 l 194 944 l 194 151 m 222 69 l 639 69 l 639 863 l 222 69 z "},"":{"ha":833,"x_min":125,"x_max":708,"o":"m 125 0 l 125 1014 l 708 1014 l 708 0 l 125 0 m 194 151 l 611 944 l 194 944 l 194 151 m 222 69 l 639 69 l 639 863 l 222 69 z "},"":{"ha":833,"x_min":125,"x_max":708,"o":"m 125 0 l 125 1014 l 708 1014 l 708 0 l 125 0 m 194 151 l 611 944 l 194 944 l 194 151 m 222 69 l 639 69 l 639 863 l 222 69 z "},"":{"ha":833,"x_min":125,"x_max":708,"o":"m 125 0 l 125 1014 l 708 1014 l 708 0 l 125 0 m 194 151 l 611 944 l 194 944 l 194 151 m 222 69 l 639 69 l 639 863 l 222 69 z "},"":{"ha":833,"x_min":125,"x_max":708,"o":"m 125 0 l 125 1014 l 708 1014 l 708 0 l 125 0 m 194 151 l 611 944 l 194 944 l 194 151 m 222 69 l 639 69 l 639 863 l 222 69 z "},"":{"ha":833,"x_min":125,"x_max":708,"o":"m 125 0 l 125 1014 l 708 1014 l 708 0 l 125 0 m 194 151 l 611 944 l 194 944 l 194 151 m 222 69 l 639 69 l 639 863 l 222 69 z "},"":{"ha":833,"x_min":125,"x_max":708,"o":"m 125 0 l 125 1014 l 708 1014 l 708 0 l 125 0 m 194 151 l 611 944 l 194 944 l 194 151 m 222 69 l 639 69 l 639 863 l 222 69 z "},"":{"ha":833,"x_min":125,"x_max":708,"o":"m 125 0 l 125 1014 l 708 1014 l 708 0 l 125 0 m 194 151 l 611 944 l 194 944 l 194 151 m 222 69 l 639 69 l 639 863 l 222 69 z "},"":{"ha":833,"x_min":125,"x_max":708,"o":"m 125 0 l 125 1014 l 708 1014 l 708 0 l 125 0 m 194 151 l 611 944 l 194 944 l 194 151 m 222 69 l 639 69 l 639 863 l 222 69 z "},"":{"ha":833,"x_min":125,"x_max":708,"o":"m 125 0 l 125 1014 l 708 1014 l 708 0 l 125 0 m 194 151 l 611 944 l 194 944 l 194 151 m 222 69 l 639 69 l 639 863 l 222 69 z "},"":{"ha":833,"x_min":125,"x_max":708,"o":"m 125 0 l 125 1014 l 708 1014 l 708 0 l 125 0 m 194 151 l 611 944 l 194 944 l 194 151 m 222 69 l 639 69 l 639 863 l 222 69 z "},"":{"ha":833,"x_min":125,"x_max":708,"o":"m 125 0 l 125 1014 l 708 1014 l 708 0 l 125 0 m 194 151 l 611 944 l 194 944 l 194 151 m 222 69 l 639 69 l 639 863 l 222 69 z "},"":{"ha":833,"x_min":125,"x_max":708,"o":"m 125 0 l 125 1014 l 708 1014 l 708 0 l 125 0 m 194 151 l 611 944 l 194 944 l 194 151 m 222 69 l 639 69 l 639 863 l 222 69 z "},"":{"ha":833,"x_min":125,"x_max":708,"o":"m 125 0 l 125 1014 l 708 1014 l 708 0 l 125 0 m 194 151 l 611 944 l 194 944 l 194 151 m 222 69 l 639 69 l 639 863 l 222 69 z "},"":{"ha":833,"x_min":125,"x_max":708,"o":"m 125 0 l 125 1014 l 708 1014 l 708 0 l 125 0 m 194 151 l 611 944 l 194 944 l 194 151 m 222 69 l 639 69 l 639 863 l 222 69 z "},"":{"ha":833,"x_min":125,"x_max":708,"o":"m 125 0 l 125 1014 l 708 1014 l 708 0 l 125 0 m 194 151 l 611 944 l 194 944 l 194 151 m 222 69 l 639 69 l 639 863 l 222 69 z "},"":{"ha":833,"x_min":125,"x_max":708,"o":"m 125 0 l 125 1014 l 708 1014 l 708 0 l 125 0 m 194 151 l 611 944 l 194 944 l 194 151 m 222 69 l 639 69 l 639 863 l 222 69 z "},"":{"ha":833,"x_min":125,"x_max":708,"o":"m 125 0 l 125 1014 l 708 1014 l 708 0 l 125 0 m 194 151 l 611 944 l 194 944 l 194 151 m 222 69 l 639 69 l 639 863 l 222 69 z "},"":{"ha":833,"x_min":125,"x_max":708,"o":"m 125 0 l 125 1014 l 708 1014 l 708 0 l 125 0 m 194 151 l 611 944 l 194 944 l 194 151 m 222 69 l 639 69 l 639 863 l 222 69 z "},"":{"ha":833,"x_min":125,"x_max":708,"o":"m 125 0 l 125 1014 l 708 1014 l 708 0 l 125 0 m 194 151 l 611 944 l 194 944 l 194 151 m 222 69 l 639 69 l 639 863 l 222 69 z "},"":{"ha":833,"x_min":125,"x_max":708,"o":"m 125 0 l 125 1014 l 708 1014 l 708 0 l 125 0 m 194 151 l 611 944 l 194 944 l 194 151 m 222 69 l 639 69 l 639 863 l 222 69 z "},"":{"ha":833,"x_min":125,"x_max":708,"o":"m 125 0 l 125 1014 l 708 1014 l 708 0 l 125 0 m 194 151 l 611 944 l 194 944 l 194 151 m 222 69 l 639 69 l 639 863 l 222 69 z "},"":{"ha":833,"x_min":125,"x_max":708,"o":"m 125 0 l 125 1014 l 708 1014 l 708 0 l 125 0 m 194 151 l 611 944 l 194 944 l 194 151 m 222 69 l 639 69 l 639 863 l 222 69 z "},"":{"ha":833,"x_min":125,"x_max":708,"o":"m 125 0 l 125 1014 l 708 1014 l 708 0 l 125 0 m 194 151 l 611 944 l 194 944 l 194 151 m 222 69 l 639 69 l 639 863 l 222 69 z "},"":{"ha":833,"x_min":125,"x_max":708,"o":"m 125 0 l 125 1014 l 708 1014 l 708 0 l 125 0 m 194 151 l 611 944 l 194 944 l 194 151 m 222 69 l 639 69 l 639 863 l 222 69 z "},"":{"ha":833,"x_min":125,"x_max":708,"o":"m 125 0 l 125 1014 l 708 1014 l 708 0 l 125 0 m 194 151 l 611 944 l 194 944 l 194 151 m 222 69 l 639 69 l 639 863 l 222 69 z "},"":{"ha":833,"x_min":125,"x_max":708,"o":"m 125 0 l 125 1014 l 708 1014 l 708 0 l 125 0 m 194 151 l 611 944 l 194 944 l 194 151 m 222 69 l 639 69 l 639 863 l 222 69 z "},"":{"ha":833,"x_min":125,"x_max":708,"o":"m 125 0 l 125 1014 l 708 1014 l 708 0 l 125 0 m 194 151 l 611 944 l 194 944 l 194 151 m 222 69 l 639 69 l 639 863 l 222 69 z "},"":{"ha":833,"x_min":125,"x_max":708,"o":"m 125 0 l 125 1014 l 708 1014 l 708 0 l 125 0 m 194 151 l 611 944 l 194 944 l 194 151 m 222 69 l 639 69 l 639 863 l 222 69 z "},"":{"ha":833,"x_min":125,"x_max":708,"o":"m 125 0 l 125 1014 l 708 1014 l 708 0 l 125 0 m 194 151 l 611 944 l 194 944 l 194 151 m 222 69 l 639 69 l 639 863 l 222 69 z "},"":{"ha":833,"x_min":125,"x_max":708,"o":"m 125 0 l 125 1014 l 708 1014 l 708 0 l 125 0 m 194 151 l 611 944 l 194 944 l 194 151 m 222 69 l 639 69 l 639 863 l 222 69 z "},"":{"ha":833,"x_min":125,"x_max":708,"o":"m 125 0 l 125 1014 l 708 1014 l 708 0 l 125 0 m 194 151 l 611 944 l 194 944 l 194 151 m 222 69 l 639 69 l 639 863 l 222 69 z "},"":{"ha":833,"x_min":125,"x_max":708,"o":"m 125 0 l 125 1014 l 708 1014 l 708 0 l 125 0 m 194 151 l 611 944 l 194 944 l 194 151 m 222 69 l 639 69 l 639 863 l 222 69 z "},"":{"ha":833,"x_min":125,"x_max":708,"o":"m 125 0 l 125 1014 l 708 1014 l 708 0 l 125 0 m 194 151 l 611 944 l 194 944 l 194 151 m 222 69 l 639 69 l 639 863 l 222 69 z "},"":{"ha":833,"x_min":125,"x_max":708,"o":"m 125 0 l 125 1014 l 708 1014 l 708 0 l 125 0 m 194 151 l 611 944 l 194 944 l 194 151 m 222 69 l 639 69 l 639 863 l 222 69 z "},"":{"ha":833,"x_min":125,"x_max":708,"o":"m 125 0 l 125 1014 l 708 1014 l 708 0 l 125 0 m 194 151 l 611 944 l 194 944 l 194 151 m 222 69 l 639 69 l 639 863 l 222 69 z "},"":{"ha":833,"x_min":125,"x_max":708,"o":"m 125 0 l 125 1014 l 708 1014 l 708 0 l 125 0 m 194 151 l 611 944 l 194 944 l 194 151 m 222 69 l 639 69 l 639 863 l 222 69 z "},"":{"ha":833,"x_min":125,"x_max":708,"o":"m 125 0 l 125 1014 l 708 1014 l 708 0 l 125 0 m 194 151 l 611 944 l 194 944 l 194 151 m 222 69 l 639 69 l 639 863 l 222 69 z "},"":{"ha":833,"x_min":125,"x_max":708,"o":"m 125 0 l 125 1014 l 708 1014 l 708 0 l 125 0 m 194 151 l 611 944 l 194 944 l 194 151 m 222 69 l 639 69 l 639 863 l 222 69 z "},"":{"ha":833,"x_min":125,"x_max":708,"o":"m 125 0 l 125 1014 l 708 1014 l 708 0 l 125 0 m 194 151 l 611 944 l 194 944 l 194 151 m 222 69 l 639 69 l 639 863 l 222 69 z "},"":{"ha":833,"x_min":125,"x_max":708,"o":"m 125 0 l 125 1014 l 708 1014 l 708 0 l 125 0 m 194 151 l 611 944 l 194 944 l 194 151 m 222 69 l 639 69 l 639 863 l 222 69 z "},"":{"ha":833,"x_min":125,"x_max":708,"o":"m 125 0 l 125 1014 l 708 1014 l 708 0 l 125 0 m 194 151 l 611 944 l 194 944 l 194 151 m 222 69 l 639 69 l 639 863 l 222 69 z "},"":{"ha":833,"x_min":125,"x_max":708,"o":"m 125 0 l 125 1014 l 708 1014 l 708 0 l 125 0 m 194 151 l 611 944 l 194 944 l 194 151 m 222 69 l 639 69 l 639 863 l 222 69 z "},"":{"ha":833,"x_min":125,"x_max":708,"o":"m 125 0 l 125 1014 l 708 1014 l 708 0 l 125 0 m 194 151 l 611 944 l 194 944 l 194 151 m 222 69 l 639 69 l 639 863 l 222 69 z "},"":{"ha":833,"x_min":125,"x_max":708,"o":"m 125 0 l 125 1014 l 708 1014 l 708 0 l 125 0 m 194 151 l 611 944 l 194 944 l 194 151 m 222 69 l 639 69 l 639 863 l 222 69 z "},"":{"ha":833,"x_min":125,"x_max":708,"o":"m 125 0 l 125 1014 l 708 1014 l 708 0 l 125 0 m 194 151 l 611 944 l 194 944 l 194 151 m 222 69 l 639 69 l 639 863 l 222 69 z "},"":{"ha":833,"x_min":125,"x_max":708,"o":"m 125 0 l 125 1014 l 708 1014 l 708 0 l 125 0 m 194 151 l 611 944 l 194 944 l 194 151 m 222 69 l 639 69 l 639 863 l 222 69 z "},"":{"ha":833,"x_min":125,"x_max":708,"o":"m 125 0 l 125 1014 l 708 1014 l 708 0 l 125 0 m 194 151 l 611 944 l 194 944 l 194 151 m 222 69 l 639 69 l 639 863 l 222 69 z "},"":{"ha":833,"x_min":125,"x_max":708,"o":"m 125 0 l 125 1014 l 708 1014 l 708 0 l 125 0 m 194 151 l 611 944 l 194 944 l 194 151 m 222 69 l 639 69 l 639 863 l 222 69 z "},"":{"ha":833,"x_min":125,"x_max":708,"o":"m 125 0 l 125 1014 l 708 1014 l 708 0 l 125 0 m 194 151 l 611 944 l 194 944 l 194 151 m 222 69 l 639 69 l 639 863 l 222 69 z "},"":{"ha":833,"x_min":125,"x_max":708,"o":"m 125 0 l 125 1014 l 708 1014 l 708 0 l 125 0 m 194 151 l 611 944 l 194 944 l 194 151 m 222 69 l 639 69 l 639 863 l 222 69 z "},"":{"ha":833,"x_min":125,"x_max":708,"o":"m 125 0 l 125 1014 l 708 1014 l 708 0 l 125 0 m 194 151 l 611 944 l 194 944 l 194 151 m 222 69 l 639 69 l 639 863 l 222 69 z "},"":{"ha":833,"x_min":125,"x_max":708,"o":"m 125 0 l 125 1014 l 708 1014 l 708 0 l 125 0 m 194 151 l 611 944 l 194 944 l 194 151 m 222 69 l 639 69 l 639 863 l 222 69 z "},"｜":{"ha":833,"x_min":125,"x_max":708,"o":"m 125 0 l 125 1014 l 708 1014 l 708 0 l 125 0 m 194 151 l 611 944 l 194 944 l 194 151 m 222 69 l 639 69 l 639 863 l 222 69 z "},"\r":{"ha":833,"x_min":0,"x_max":0,"o":""}," ":{"ha":833,"x_min":0,"x_max":0,"o":""},"!":{"ha":833,"x_min":313,"x_max":521,"o":"m 360 299 l 343 1014 l 490 1014 l 474 299 l 360 299 m 396 -7 q 336 17 360 -7 q 313 76 313 40 q 336 136 313 113 q 396 160 360 160 l 438 160 q 499 137 478 160 q 521 78 521 114 q 497 17 521 42 q 438 -7 474 -7 l 396 -7 z "},"\"":{"ha":833,"x_min":199,"x_max":635,"o":"m 210 597 l 199 1014 l 340 1014 l 331 597 l 210 597 m 504 597 l 493 1014 l 635 1014 l 625 597 l 504 597 z "},"#":{"ha":833,"x_min":49,"x_max":785,"o":"m 115 0 l 169 292 l 49 292 l 49 382 l 185 382 l 232 632 l 97 632 l 97 722 l 247 722 l 301 1014 l 399 1014 l 344 722 l 567 722 l 621 1014 l 718 1014 l 664 722 l 785 722 l 785 632 l 649 632 l 601 382 l 736 382 l 736 292 l 586 292 l 532 0 l 435 0 l 489 292 l 267 292 l 213 0 l 115 0 m 282 382 l 504 382 l 551 632 l 329 632 l 282 382 z "},"$":{"ha":833,"x_min":100,"x_max":733,"o":"m 382 -194 l 382 -12 q 177 72 251 -1 q 100 264 103 144 l 225 264 q 266 153 225 196 q 382 100 307 110 l 382 464 l 344 475 q 184 582 240 507 q 128 758 128 657 q 197 942 128 869 q 382 1025 265 1014 l 382 1208 l 465 1208 l 465 1026 q 650 943 581 1015 q 721 757 719 871 l 596 757 q 562 863 596 822 q 465 914 528 904 l 465 569 l 521 551 q 678 443 622 519 q 733 264 733 367 q 660 75 733 150 q 465 -12 588 0 l 465 -194 l 382 -194 m 253 769 q 286 661 253 707 q 382 596 319 615 l 382 914 q 287 867 321 904 q 253 769 253 829 m 465 100 q 571 153 533 111 q 608 261 608 194 q 576 367 608 322 q 482 432 543 413 l 465 438 l 465 100 z "},"%":{"ha":833,"x_min":19,"x_max":814,"o":"m 213 556 q 72 606 124 556 q 21 743 19 657 l 21 833 q 72 970 19 919 q 213 1021 124 1021 q 353 970 301 1021 q 407 833 406 919 l 407 743 q 355 606 407 657 q 213 556 303 556 m 19 0 l 711 1014 l 814 1014 l 122 0 l 19 0 m 214 650 q 280 675 256 650 q 304 743 304 700 l 304 833 q 280 901 304 876 q 214 926 256 926 q 148 901 172 926 q 124 833 124 876 l 124 743 q 148 675 124 700 q 214 650 172 650 m 619 -7 q 478 44 531 -7 q 426 181 426 94 l 426 271 q 478 408 425 357 q 619 458 531 458 q 760 408 708 458 q 813 271 813 357 l 813 181 q 760 44 813 94 q 619 -7 708 -7 m 619 89 q 685 113 661 89 q 710 181 710 138 l 710 271 q 685 339 710 314 q 618 364 661 364 q 553 339 578 364 q 529 271 529 314 l 529 181 q 552 113 528 138 q 619 89 576 89 z "},"&":{"ha":833,"x_min":35,"x_max":854,"o":"m 299 -12 q 106 59 176 -12 q 35 253 35 131 l 35 332 q 97 510 35 443 q 265 582 160 576 l 226 632 q 151 807 151 731 q 218 967 151 906 q 392 1028 285 1028 q 526 994 468 1028 q 616 902 583 961 q 649 764 649 843 l 526 764 q 490 877 526 833 q 392 921 453 921 q 308 889 340 921 q 275 804 275 857 q 315 699 275 750 l 586 349 l 713 507 l 851 507 l 653 263 l 854 0 l 717 0 l 582 178 l 522 103 q 417 16 475 44 q 299 -12 360 -12 m 307 100 q 442 171 386 100 l 514 263 l 340 485 l 299 485 q 195 444 233 485 q 157 332 157 403 l 157 253 q 198 141 157 182 q 307 100 239 100 z "},"'":{"ha":833,"x_min":346,"x_max":488,"o":"m 357 597 l 346 1014 l 488 1014 l 478 597 l 357 597 z "},"(":{"ha":833,"x_min":257,"x_max":674,"o":"m 674 -167 q 366 19 475 -122 q 257 375 257 161 l 257 625 q 366 981 257 839 q 674 1167 475 1122 l 674 1046 q 519 967 585 1025 q 417 822 453 908 q 382 625 382 735 l 382 375 q 417 179 382 267 q 519 33 453 92 q 674 -46 585 -25 l 674 -167 z "},")":{"ha":833,"x_min":160,"x_max":576,"o":"m 160 -167 l 160 -46 q 315 33 250 -25 q 416 179 381 92 q 451 375 451 267 l 451 625 q 416 822 451 735 q 315 967 381 908 q 160 1046 250 1025 l 160 1167 q 467 981 358 1122 q 576 625 576 839 l 576 375 q 467 19 576 161 q 160 -167 358 -122 z "},"*":{"ha":833,"x_min":50,"x_max":783,"o":"m 246 143 l 150 211 l 240 340 q 290 401 258 365 q 349 465 321 438 q 267 482 310 471 q 199 503 224 493 l 50 558 l 89 668 l 239 613 q 301 586 263 604 q 372 549 340 568 q 362 623 365 585 q 358 688 358 661 l 358 861 l 475 861 l 475 688 q 471 623 475 661 q 460 549 467 585 q 531 586 493 568 q 594 613 569 604 l 744 668 l 783 558 l 635 503 q 567 482 610 493 q 485 465 524 471 q 544 401 513 438 q 593 340 576 364 l 683 211 l 588 143 l 497 274 q 457 339 481 297 q 417 417 433 381 q 376 340 400 381 q 336 274 353 299 l 246 143 z "},"+":{"ha":833,"x_min":90,"x_max":743,"o":"m 356 132 l 356 403 l 90 403 l 90 514 l 356 514 l 356 785 l 478 785 l 478 514 l 743 514 l 743 403 l 478 403 l 478 132 l 356 132 z "},",":{"ha":833,"x_min":292,"x_max":518,"o":"m 292 -222 l 368 203 l 518 203 l 421 -222 l 292 -222 z "},"-":{"ha":833,"x_min":194,"x_max":639,"o":"m 194 403 l 194 514 l 639 514 l 639 403 l 194 403 z "},".":{"ha":833,"x_min":303,"x_max":531,"o":"m 417 -14 q 334 17 365 -14 q 303 96 303 47 q 334 179 303 147 q 417 211 365 211 q 499 179 468 211 q 531 96 531 147 q 499 17 531 47 q 417 -14 468 -14 z "},"/":{"ha":833,"x_min":104,"x_max":729,"o":"m 104 -153 l 597 1153 l 729 1153 l 236 -153 l 104 -153 z "},":":{"ha":833,"x_min":301,"x_max":532,"o":"m 417 572 q 331 600 360 572 q 301 675 301 628 q 331 750 301 722 q 417 778 360 778 q 503 750 474 778 q 532 675 532 722 q 503 600 532 628 q 417 572 474 572 m 417 -14 q 331 14 360 -14 q 301 89 301 42 q 331 164 301 136 q 417 192 360 192 q 503 164 474 192 q 532 89 532 136 q 503 14 532 42 q 417 -14 474 -14 z "},";":{"ha":833,"x_min":285,"x_max":535,"o":"m 403 569 q 328 599 357 569 q 299 674 299 628 q 328 748 299 718 q 403 778 358 778 l 431 778 q 505 748 475 778 q 535 674 535 718 q 506 599 535 628 q 431 569 476 569 l 403 569 m 285 -222 l 361 203 l 511 203 l 414 -222 l 285 -222 z "},"<":{"ha":833,"x_min":118,"x_max":715,"o":"m 715 90 l 118 389 l 118 528 l 715 826 l 715 706 l 285 494 q 235 473 258 482 q 201 461 213 464 q 238 449 214 458 q 285 428 261 440 l 715 215 l 715 90 z "},"=":{"ha":833,"x_min":118,"x_max":715,"o":"m 118 569 l 118 681 l 715 681 l 715 569 l 118 569 m 118 236 l 118 347 l 715 347 l 715 236 l 118 236 z "},">":{"ha":833,"x_min":118,"x_max":715,"o":"m 118 90 l 118 211 l 549 422 q 598 444 575 435 q 632 456 621 453 q 596 468 619 458 q 549 489 572 478 l 118 701 l 118 826 l 715 528 l 715 389 l 118 90 z "},"?":{"ha":833,"x_min":181,"x_max":674,"o":"m 286 299 l 286 535 l 356 535 q 497 584 444 535 q 549 715 549 633 q 497 847 549 797 q 354 896 444 896 l 181 896 l 181 1014 l 354 1014 q 523 977 451 1014 q 634 874 594 940 q 674 715 674 807 q 640 573 674 636 q 548 472 607 510 q 411 431 489 435 l 411 299 l 286 299 m 326 -7 q 267 17 290 -7 q 243 76 243 40 q 267 136 243 113 q 326 160 290 160 l 368 160 q 430 137 408 160 q 451 78 451 114 q 428 17 451 42 q 368 -7 404 -7 l 326 -7 z "},"@":{"ha":833,"x_min":63,"x_max":778,"o":"m 451 -250 q 246 -201 333 -250 q 110 -60 158 -151 q 63 153 63 31 l 63 625 q 163 920 63 813 q 438 1028 263 1028 q 687 937 596 1028 q 778 688 778 846 l 778 311 q 718 140 778 203 q 556 76 658 76 q 394 138 454 76 q 333 297 333 199 l 333 458 q 382 617 333 561 q 519 674 431 674 q 614 651 576 674 q 664 590 651 629 l 667 590 l 667 688 q 608 868 667 806 q 438 931 549 931 q 243 850 313 931 q 174 625 174 769 l 174 153 q 248 -66 174 14 q 451 -146 322 -146 l 604 -146 l 604 -250 l 451 -250 m 556 169 q 638 203 608 169 q 667 297 667 238 l 667 460 q 638 553 667 521 q 556 586 608 586 q 474 553 503 586 q 444 458 444 519 l 444 297 q 474 203 444 238 q 556 169 503 169 z "},"A":{"ha":833,"x_min":69,"x_max":764,"o":"m 69 0 l 333 1014 l 501 1014 l 764 0 l 638 0 l 571 269 l 264 269 l 197 0 l 69 0 m 289 375 l 544 375 l 467 688 q 432 836 444 776 q 417 914 419 896 q 401 836 414 896 q 367 689 389 776 l 289 375 z "},"B":{"ha":833,"x_min":129,"x_max":736,"o":"m 129 0 l 129 1014 l 417 1014 q 634 944 556 1014 q 713 751 713 875 q 663 611 713 674 q 535 533 614 549 l 535 529 q 640 488 594 522 q 710 399 685 453 q 736 282 736 346 q 656 76 736 151 q 438 0 576 0 l 129 0 m 251 582 l 415 582 q 542 625 496 582 q 589 742 589 668 q 543 858 589 815 q 417 901 497 901 l 251 901 l 251 582 m 251 113 l 424 113 q 562 159 511 113 q 613 286 613 206 q 562 422 613 369 q 424 474 511 474 l 251 474 l 251 113 z "},"C":{"ha":833,"x_min":128,"x_max":725,"o":"m 428 -14 q 208 64 289 -14 q 128 278 128 142 l 128 736 q 208 950 128 872 q 428 1028 289 1028 q 644 949 564 1028 q 725 736 725 871 l 600 736 q 555 869 600 822 q 428 915 510 915 q 299 869 346 915 q 253 736 253 822 l 253 278 q 299 145 253 192 q 428 99 346 99 q 555 145 510 99 q 600 278 600 192 l 725 278 q 644 65 725 143 q 428 -14 564 -14 z "},"D":{"ha":833,"x_min":128,"x_max":711,"o":"m 128 0 l 128 1014 l 390 1014 q 560 976 489 1014 q 672 871 632 939 q 711 710 711 803 l 711 306 q 672 144 711 213 q 560 38 632 75 q 390 0 489 0 l 128 0 m 253 111 l 390 111 q 534 163 482 111 q 586 306 586 214 l 586 710 q 534 851 586 800 q 390 903 482 903 l 253 903 l 253 111 z "},"E":{"ha":833,"x_min":139,"x_max":722,"o":"m 139 0 l 139 1014 l 722 1014 l 722 900 l 263 900 l 263 586 l 674 586 l 674 475 l 263 475 l 263 114 l 722 114 l 722 0 l 139 0 z "},"F":{"ha":833,"x_min":132,"x_max":729,"o":"m 132 0 l 132 1014 l 729 1014 l 729 900 l 254 900 l 254 564 l 693 564 l 693 450 l 257 450 l 257 0 l 132 0 z "},"G":{"ha":833,"x_min":122,"x_max":719,"o":"m 422 -14 q 203 64 283 -14 q 122 278 122 142 l 122 736 q 203 950 122 872 q 422 1028 283 1028 q 639 949 558 1028 q 719 736 719 871 l 594 736 q 549 869 594 822 q 422 915 504 915 q 294 869 340 915 q 247 738 247 824 l 247 278 q 294 144 247 192 q 422 97 340 97 q 549 144 504 97 q 594 278 594 192 l 594 417 l 389 417 l 389 531 l 719 531 l 719 278 q 639 65 719 143 q 422 -14 558 -14 z "},"H":{"ha":833,"x_min":129,"x_max":704,"o":"m 129 0 l 129 1014 l 254 1014 l 254 581 l 579 581 l 579 1014 l 704 1014 l 704 0 l 579 0 l 579 467 l 254 467 l 254 0 l 129 0 z "},"I":{"ha":833,"x_min":146,"x_max":688,"o":"m 146 0 l 146 114 l 353 114 l 353 900 l 146 900 l 146 1014 l 688 1014 l 688 900 l 481 900 l 481 114 l 688 114 l 688 0 l 146 0 z "},"J":{"ha":833,"x_min":63,"x_max":688,"o":"m 375 -14 q 146 68 229 -14 q 63 292 63 150 l 188 292 q 237 148 188 199 q 375 97 286 97 q 513 148 464 97 q 563 292 563 199 l 563 1014 l 688 1014 l 688 292 q 603 68 688 150 q 375 -14 519 -14 z "},"K":{"ha":833,"x_min":128,"x_max":778,"o":"m 128 0 l 128 1014 l 253 1014 l 253 578 l 403 578 l 628 1014 l 764 1014 l 513 525 l 778 0 l 635 0 l 399 468 l 253 468 l 253 0 l 128 0 z "},"L":{"ha":833,"x_min":181,"x_max":764,"o":"m 181 0 l 181 1014 l 306 1014 l 306 114 l 764 114 l 764 0 l 181 0 z "},"M":{"ha":833,"x_min":100,"x_max":733,"o":"m 100 0 l 100 1014 l 285 1014 l 414 575 l 549 1014 l 733 1014 l 733 0 l 613 0 l 613 479 q 615 635 613 547 q 621 814 617 724 q 631 976 625 904 l 467 453 l 358 453 l 201 964 q 217 739 213 861 q 221 479 221 617 l 221 0 l 100 0 z "},"N":{"ha":833,"x_min":125,"x_max":708,"o":"m 125 0 l 125 1014 l 292 1014 l 601 146 q 595 231 599 181 q 590 338 592 282 q 588 444 588 394 l 588 1014 l 708 1014 l 708 0 l 542 0 l 233 868 q 239 784 236 835 q 244 677 242 733 q 246 569 246 621 l 246 0 l 125 0 z "},"O":{"ha":833,"x_min":122,"x_max":711,"o":"m 417 -14 q 201 65 281 -14 q 122 292 122 144 l 122 722 q 201 949 122 869 q 417 1028 281 1028 q 632 949 553 1028 q 711 724 711 869 l 711 292 q 632 65 711 144 q 417 -14 553 -14 m 417 99 q 542 145 499 99 q 586 278 586 192 l 586 736 q 542 869 586 822 q 417 915 499 915 q 292 869 336 915 q 247 736 247 822 l 247 278 q 292 145 247 192 q 417 99 336 99 z "},"P":{"ha":833,"x_min":128,"x_max":764,"o":"m 128 0 l 128 1014 l 454 1014 q 680 933 596 1014 q 764 715 764 851 q 680 498 764 579 q 454 417 596 417 l 253 417 l 253 0 l 128 0 m 253 529 l 454 529 q 585 580 536 529 q 635 715 635 631 q 585 851 635 801 q 454 901 536 901 l 253 901 l 253 529 z "},"Q":{"ha":833,"x_min":111,"x_max":731,"o":"m 586 -250 l 443 -12 q 431 -13 438 -12 q 417 -14 424 -14 q 194 67 276 -14 q 111 285 111 149 l 111 729 q 194 947 111 865 q 417 1028 276 1028 q 640 947 557 1028 q 722 729 722 865 l 722 285 q 682 122 722 192 q 568 18 642 53 l 731 -250 l 586 -250 m 417 97 q 548 149 499 97 q 597 285 597 200 l 597 729 q 548 866 597 815 q 417 917 499 917 q 285 866 335 917 q 236 729 236 815 l 236 285 q 285 149 236 200 q 417 97 335 97 z "},"R":{"ha":833,"x_min":129,"x_max":757,"o":"m 129 0 l 129 1014 l 442 1014 q 600 977 532 1014 q 706 875 668 940 q 743 722 743 810 q 690 546 743 619 q 550 443 638 472 l 757 0 l 619 0 l 421 431 l 253 431 l 253 0 l 129 0 m 253 543 l 442 543 q 567 592 519 543 q 614 722 614 642 q 567 853 614 804 q 442 901 519 901 l 253 901 l 253 543 z "},"S":{"ha":833,"x_min":100,"x_max":733,"o":"m 422 -14 q 188 64 275 -14 q 100 278 100 142 l 225 278 q 279 145 225 193 q 422 97 333 97 q 560 147 508 97 q 611 278 611 197 q 578 384 611 339 q 485 446 546 429 l 331 489 q 180 588 235 517 q 125 757 125 660 q 161 899 125 838 q 263 994 197 960 q 413 1028 328 1028 q 565 994 499 1028 q 668 899 631 960 q 706 760 706 839 l 581 760 q 533 873 581 829 q 413 917 486 917 q 293 873 339 917 q 247 760 247 829 q 277 665 247 704 q 361 610 307 625 l 519 565 q 677 460 621 538 q 733 278 733 383 q 649 65 733 144 q 422 -14 564 -14 z "},"T":{"ha":833,"x_min":76,"x_max":757,"o":"m 354 0 l 354 900 l 76 900 l 76 1014 l 757 1014 l 757 900 l 479 900 l 479 0 l 354 0 z "},"U":{"ha":833,"x_min":125,"x_max":708,"o":"m 417 -14 q 200 65 275 -14 q 125 278 125 143 l 125 1014 l 250 1014 l 250 278 q 291 146 250 194 q 417 97 332 97 q 542 146 500 97 q 583 278 583 194 l 583 1014 l 708 1014 l 708 278 q 634 64 708 142 q 417 -14 560 -14 z "},"V":{"ha":833,"x_min":69,"x_max":764,"o":"m 331 0 l 69 1014 l 197 1014 l 371 324 q 401 190 389 251 q 418 97 413 129 q 437 191 424 129 q 468 325 450 253 l 635 1014 l 764 1014 l 501 0 l 331 0 z "},"W":{"ha":833,"x_min":28,"x_max":806,"o":"m 149 0 l 28 1014 l 143 1014 l 222 264 q 231 169 228 218 q 235 90 233 119 q 242 169 238 119 q 253 264 247 218 l 353 1014 l 488 1014 l 579 264 q 590 169 585 218 q 599 90 596 119 q 605 169 601 119 q 614 264 608 218 l 696 1014 l 806 1014 l 682 0 l 525 0 l 433 764 q 425 856 428 811 q 419 926 422 901 q 414 856 417 901 q 404 764 411 811 l 306 0 l 149 0 z "},"X":{"ha":833,"x_min":56,"x_max":778,"o":"m 56 0 l 347 514 l 71 1014 l 215 1014 l 372 714 q 398 663 385 690 q 419 621 411 636 q 440 663 426 636 q 465 714 453 690 l 625 1014 l 763 1014 l 486 522 l 778 0 l 635 0 l 461 322 q 435 373 449 346 q 415 417 422 400 q 395 374 408 400 q 369 324 382 347 l 194 0 l 56 0 z "},"Y":{"ha":833,"x_min":49,"x_max":785,"o":"m 354 0 l 354 379 l 49 1014 l 182 1014 l 379 597 q 406 538 396 563 q 418 503 415 514 q 431 538 421 514 q 458 597 442 563 l 656 1014 l 785 1014 l 479 379 l 479 0 l 354 0 z "},"Z":{"ha":833,"x_min":118,"x_max":715,"o":"m 118 0 l 118 125 l 575 900 l 125 900 l 125 1014 l 701 1014 l 701 889 l 244 114 l 715 114 l 715 0 l 118 0 z "},"[":{"ha":833,"x_min":285,"x_max":625,"o":"m 285 -153 l 285 1153 l 625 1153 l 625 1042 l 410 1042 l 410 -42 l 625 -42 l 625 -153 l 285 -153 z "},"\\":{"ha":833,"x_min":104,"x_max":729,"o":"m 597 -153 l 104 1153 l 236 1153 l 729 -153 l 597 -153 z "},"]":{"ha":833,"x_min":208,"x_max":549,"o":"m 208 -153 l 208 -42 l 424 -42 l 424 1042 l 208 1042 l 208 1153 l 549 1153 l 549 -153 l 208 -153 z "},"^":{"ha":833,"x_min":111,"x_max":722,"o":"m 111 472 l 360 1014 l 476 1014 l 722 472 l 610 472 l 454 831 q 434 884 443 858 q 421 924 425 910 q 406 884 415 910 q 383 831 396 858 l 224 472 l 111 472 z "},"_":{"ha":833,"x_min":83,"x_max":750,"o":"m 83 -139 l 83 -35 l 750 -35 l 750 -139 l 83 -139 z "},"`":{"ha":833,"x_min":225,"x_max":517,"o":"m 385 896 l 225 1090 l 364 1090 l 517 896 l 385 896 z "},"a":{"ha":833,"x_min":93,"x_max":706,"o":"m 350 -14 q 163 52 232 -14 q 93 225 93 118 q 125 349 93 296 q 214 431 157 401 q 344 461 271 461 l 581 461 l 581 521 q 418 669 581 669 q 301 643 346 669 q 254 569 257 617 l 129 569 q 213 719 136 660 q 418 778 290 778 q 631 711 557 778 q 706 525 706 644 l 706 0 l 582 0 l 582 139 l 579 139 q 508 27 568 68 q 350 -14 449 -14 m 381 92 q 526 136 472 92 q 581 257 581 181 l 581 364 l 358 364 q 259 327 297 364 q 221 229 221 290 q 263 128 221 165 q 381 92 306 92 z "},"b":{"ha":833,"x_min":128,"x_max":713,"o":"m 461 -14 q 319 28 375 -14 q 254 146 264 71 l 253 146 l 253 0 l 128 0 l 128 1014 l 253 1014 l 253 792 l 250 618 l 251 618 q 319 735 263 692 q 461 778 375 778 q 644 701 576 778 q 713 493 713 625 l 713 269 q 644 63 713 139 q 461 -14 576 -14 m 419 94 q 543 136 499 94 q 588 271 588 178 l 588 493 q 543 628 588 588 q 419 669 499 669 q 298 621 343 669 q 253 486 253 572 l 253 278 q 298 143 253 192 q 419 94 343 94 z "},"c":{"ha":833,"x_min":122,"x_max":726,"o":"m 428 -14 q 206 64 289 -14 q 122 278 122 142 l 122 486 q 206 700 122 622 q 428 778 289 778 q 641 707 560 778 q 726 514 722 636 l 601 514 q 551 627 597 588 q 428 667 506 667 q 297 620 346 667 q 247 488 247 574 l 247 278 q 297 144 247 192 q 428 97 346 97 q 551 138 506 97 q 601 250 597 178 l 726 250 q 641 57 722 128 q 428 -14 560 -14 z "},"d":{"ha":833,"x_min":121,"x_max":706,"o":"m 372 -14 q 190 63 258 -14 q 121 269 121 139 l 121 493 q 189 701 121 625 q 372 778 257 778 q 515 735 458 778 q 582 618 571 692 l 583 618 l 581 792 l 581 1014 l 706 1014 l 706 0 l 581 0 l 581 146 l 579 146 q 514 28 569 71 q 372 -14 458 -14 m 414 94 q 536 143 492 94 q 581 278 581 192 l 581 486 q 536 621 581 572 q 414 669 492 669 q 290 628 335 669 q 246 493 246 588 l 246 271 q 290 136 246 178 q 414 94 335 94 z "},"e":{"ha":833,"x_min":117,"x_max":717,"o":"m 417 -14 q 199 67 282 -14 q 117 292 117 149 l 117 472 q 199 697 117 615 q 417 778 282 778 q 574 742 507 778 q 679 640 642 706 q 717 486 717 575 l 717 350 l 239 350 l 239 278 q 288 144 239 193 q 417 94 336 94 q 531 122 486 94 q 586 194 576 149 l 711 194 q 618 42 699 99 q 417 -14 538 -14 m 239 447 l 594 447 l 594 486 q 548 626 594 576 q 417 675 501 675 q 285 626 332 675 q 239 486 239 576 l 239 447 z "},"f":{"ha":833,"x_min":76,"x_max":736,"o":"m 299 0 l 299 546 l 76 546 l 76 660 l 299 660 l 299 819 q 356 962 299 910 q 513 1014 413 1014 l 736 1014 l 736 900 l 513 900 q 424 819 424 900 l 424 660 l 736 660 l 736 546 l 424 546 l 424 0 l 299 0 z "},"g":{"ha":833,"x_min":122,"x_max":704,"o":"m 224 -250 l 224 -136 l 439 -136 q 542 -99 504 -136 q 579 0 579 -62 l 579 69 l 582 194 l 578 194 q 513 90 567 126 q 376 53 458 53 q 190 128 258 53 q 122 333 122 203 l 122 494 q 190 701 122 625 q 376 778 258 778 q 513 739 458 778 q 578 632 567 700 l 581 632 l 581 764 l 704 764 l 704 0 q 633 -183 704 -115 q 438 -250 561 -250 l 224 -250 m 414 157 q 536 206 492 157 q 581 340 581 254 l 581 486 q 536 621 581 572 q 414 669 492 669 q 291 624 335 669 q 247 500 247 578 l 247 326 q 291 203 247 249 q 414 157 335 157 z "},"h":{"ha":833,"x_min":128,"x_max":708,"o":"m 128 0 l 128 1014 l 253 1014 l 253 618 l 254 618 q 317 736 264 694 q 457 778 369 778 q 640 707 572 778 q 708 514 708 636 l 708 0 l 583 0 l 583 493 q 540 626 583 579 q 421 672 496 672 q 298 624 343 672 q 253 486 253 575 l 253 0 l 128 0 z "},"i":{"ha":833,"x_min":118,"x_max":771,"o":"m 118 0 l 118 114 l 389 114 l 389 650 l 146 650 l 146 764 l 514 764 l 514 114 l 771 114 l 771 0 l 118 0 m 438 901 q 365 925 392 901 q 339 989 339 949 q 365 1055 339 1031 q 438 1079 392 1079 q 510 1055 483 1079 q 536 989 536 1031 q 510 925 536 949 q 438 901 483 901 z "},"j":{"ha":833,"x_min":118,"x_max":626,"o":"m 125 -250 l 125 -136 l 297 -136 q 431 -89 383 -136 q 479 43 479 -42 l 479 650 l 118 650 l 118 764 l 604 764 l 604 43 q 521 -171 604 -92 q 297 -250 438 -250 l 125 -250 m 528 901 q 456 925 482 901 q 429 989 429 949 q 456 1055 429 1031 q 528 1079 482 1079 q 600 1055 574 1079 q 626 989 626 1031 q 600 925 626 949 q 528 901 574 901 z "},"k":{"ha":833,"x_min":135,"x_max":776,"o":"m 135 0 l 135 1014 l 260 1014 l 260 449 l 406 449 l 619 764 l 763 764 l 517 400 l 776 0 l 631 0 l 408 340 l 260 340 l 260 0 l 135 0 z "},"l":{"ha":833,"x_min":42,"x_max":764,"o":"m 528 0 q 366 59 426 0 q 306 215 306 118 l 306 900 l 42 900 l 42 1014 l 431 1014 l 431 215 q 457 141 431 168 q 528 114 483 114 l 764 114 l 764 0 l 528 0 z "},"m":{"ha":833,"x_min":83,"x_max":750,"o":"m 83 0 l 83 764 l 192 764 l 192 663 l 194 663 q 235 746 201 714 q 322 778 269 778 q 407 749 372 778 q 457 669 442 719 l 458 669 q 502 749 468 719 q 589 778 536 778 q 706 723 663 778 q 750 581 750 668 l 750 0 l 633 0 l 633 582 q 611 655 633 628 q 550 682 589 682 q 490 656 513 682 q 468 583 468 629 l 468 0 l 365 0 l 365 582 q 343 655 365 628 q 283 682 321 682 q 222 656 244 682 q 200 583 200 629 l 200 0 l 83 0 z "},"n":{"ha":833,"x_min":128,"x_max":708,"o":"m 128 0 l 128 764 l 253 764 l 253 618 l 254 618 q 317 736 264 694 q 457 778 369 778 q 640 707 572 778 q 708 514 708 636 l 708 0 l 583 0 l 583 492 q 540 626 583 579 q 421 672 496 672 q 298 624 343 672 q 253 486 253 575 l 253 0 l 128 0 z "},"o":{"ha":833,"x_min":117,"x_max":717,"o":"m 417 -11 q 198 69 279 -11 q 117 294 117 150 l 117 469 q 197 695 117 615 q 417 775 278 775 q 636 695 556 775 q 717 469 717 615 l 717 294 q 635 69 717 150 q 417 -11 554 -11 m 417 100 q 545 146 499 100 q 592 281 592 192 l 592 483 q 545 618 592 572 q 417 664 499 664 q 289 618 336 664 q 242 483 242 572 l 242 281 q 289 146 242 192 q 417 100 336 100 z "},"p":{"ha":833,"x_min":128,"x_max":713,"o":"m 128 -250 l 128 764 l 253 764 l 253 618 l 254 618 q 319 735 264 693 q 461 778 375 778 q 644 702 576 778 q 713 494 713 626 l 713 271 q 644 63 713 139 q 461 -14 576 -14 q 319 29 375 -14 q 254 146 264 72 l 250 146 l 253 -28 l 253 -250 l 128 -250 m 419 94 q 543 136 499 94 q 588 271 588 178 l 588 493 q 543 628 588 588 q 419 669 499 669 q 298 621 343 669 q 253 486 253 572 l 253 278 q 298 143 253 192 q 419 94 343 94 z "},"q":{"ha":833,"x_min":121,"x_max":706,"o":"m 581 -250 l 581 -28 l 583 146 l 579 146 q 514 29 569 72 q 372 -14 458 -14 q 189 63 257 -14 q 121 271 121 139 l 121 494 q 190 702 121 626 q 372 778 258 778 q 514 735 458 778 q 579 618 569 693 l 581 618 l 581 764 l 706 764 l 706 -250 l 581 -250 m 414 94 q 536 143 492 94 q 581 278 581 192 l 581 486 q 536 621 581 572 q 414 669 492 669 q 290 629 335 669 q 246 500 246 589 l 246 264 q 290 135 246 175 q 414 94 335 94 z "},"r":{"ha":833,"x_min":156,"x_max":736,"o":"m 156 0 l 156 764 l 281 764 l 281 618 l 283 618 q 346 735 293 692 q 488 778 399 778 q 672 706 607 778 q 736 503 736 635 l 736 438 l 611 438 l 611 503 q 449 669 611 669 q 324 622 367 669 q 281 486 281 575 l 281 0 l 156 0 z "},"s":{"ha":833,"x_min":118,"x_max":715,"o":"m 386 -11 q 188 47 258 -11 q 118 210 118 104 l 243 210 q 281 127 243 157 q 386 97 318 97 l 447 97 q 555 128 517 97 q 593 214 593 158 q 503 325 593 313 l 292 356 q 171 420 214 367 q 128 561 128 474 q 197 718 128 661 q 386 775 265 775 l 447 775 q 628 720 558 775 q 704 576 699 665 l 578 576 q 540 643 575 617 q 447 669 504 669 l 386 669 q 286 640 322 669 q 250 561 250 611 q 324 469 250 481 l 521 442 q 715 214 715 414 q 645 48 715 107 q 447 -11 575 -11 l 386 -11 z "},"t":{"ha":833,"x_min":65,"x_max":722,"o":"m 493 0 q 342 55 399 0 q 285 201 285 110 l 285 650 l 65 650 l 65 764 l 285 764 l 285 979 l 410 979 l 410 764 l 722 764 l 722 650 l 410 650 l 410 201 q 433 138 410 163 q 493 114 456 114 l 715 114 l 715 0 l 493 0 z "},"u":{"ha":833,"x_min":125,"x_max":708,"o":"m 415 -14 q 204 65 283 -14 q 125 278 125 143 l 125 764 l 250 764 l 250 278 q 294 145 250 194 q 415 96 339 96 q 538 145 493 96 q 583 278 583 194 l 583 764 l 708 764 l 708 278 q 628 65 708 143 q 415 -14 547 -14 z "},"v":{"ha":833,"x_min":75,"x_max":758,"o":"m 335 0 l 75 764 l 210 764 l 376 250 q 403 162 392 204 q 419 96 414 119 q 436 162 426 119 q 460 250 446 204 l 626 764 l 758 764 l 499 0 l 335 0 z "},"w":{"ha":833,"x_min":43,"x_max":790,"o":"m 168 0 l 43 764 l 151 764 l 229 225 q 238 158 233 194 q 243 97 242 121 q 249 158 246 121 q 258 225 253 194 l 354 764 l 479 764 l 575 225 q 585 158 581 194 q 592 97 590 121 q 599 158 594 121 q 607 225 603 194 l 688 764 l 790 764 l 660 0 l 522 0 l 435 528 q 424 610 429 567 q 417 678 419 654 q 410 610 415 654 q 397 528 404 567 l 306 0 l 168 0 z "},"x":{"ha":833,"x_min":69,"x_max":764,"o":"m 69 0 l 340 393 l 86 764 l 233 764 l 385 528 q 403 494 394 513 q 418 465 413 476 q 431 494 422 476 q 450 528 440 513 l 601 764 l 749 764 l 494 392 l 764 0 l 617 0 l 453 250 q 434 285 443 265 q 418 318 425 306 q 402 285 413 306 q 381 250 392 265 l 217 0 l 69 0 z "},"y":{"ha":833,"x_min":75,"x_max":758,"o":"m 247 -250 l 360 47 l 75 764 l 210 764 l 390 292 q 411 233 401 264 q 425 181 421 203 q 439 233 429 203 q 458 292 449 264 l 626 764 l 758 764 l 378 -250 l 247 -250 z "},"z":{"ha":833,"x_min":125,"x_max":708,"o":"m 125 0 l 125 125 l 553 650 l 136 650 l 136 764 l 693 764 l 693 639 l 257 114 l 708 114 l 708 0 l 125 0 z "},"{":{"ha":833,"x_min":104,"x_max":701,"o":"m 639 -153 q 444 -92 517 -153 q 382 78 372 -32 l 403 306 q 382 412 410 379 q 264 444 354 444 l 104 444 l 104 556 l 264 556 q 382 588 354 556 q 403 694 410 621 l 382 922 q 444 1092 372 1032 q 639 1153 517 1153 l 701 1153 l 701 1042 l 639 1042 q 538 1012 574 1042 q 507 922 501 982 l 528 694 q 489 563 535 613 q 339 504 443 514 q 489 440 443 494 q 528 306 535 386 l 507 78 q 538 -12 501 18 q 639 -42 574 -42 l 701 -42 l 701 -153 l 639 -153 z "},"|":{"ha":833,"x_min":354,"x_max":479,"o":"m 354 -153 l 354 1153 l 479 1153 l 479 -153 l 354 -153 z "},"}":{"ha":833,"x_min":132,"x_max":729,"o":"m 132 -153 l 132 -42 l 194 -42 q 298 -12 260 -42 q 326 78 336 18 l 292 306 q 319 440 279 385 q 431 507 360 494 q 319 567 360 518 q 292 694 279 615 l 326 922 q 298 1012 336 982 q 194 1042 260 1042 l 132 1042 l 132 1153 l 194 1153 q 338 1126 276 1153 q 431 1047 400 1099 q 451 922 463 996 l 417 694 q 435 588 406 621 q 556 556 465 556 l 729 556 l 729 444 l 556 444 q 436 412 467 444 q 417 306 406 379 l 451 78 q 431 -47 463 6 q 338 -126 400 -99 q 194 -153 276 -153 l 132 -153 z "},"~":{"ha":833,"x_min":97,"x_max":736,"o":"m 97 354 l 97 451 q 147 583 97 533 q 278 632 197 632 q 364 614 329 632 q 422 569 399 596 q 465 515 446 542 q 504 469 483 488 q 553 451 525 451 q 618 528 618 451 l 618 625 l 736 625 l 736 528 q 687 397 736 447 q 556 347 638 347 q 469 365 504 347 q 411 410 435 383 q 369 465 388 438 q 329 510 350 492 q 281 528 308 528 q 215 451 215 528 l 215 354 l 97 354 z "}," ":{"ha":833,"x_min":0,"x_max":0,"o":""},"¡":{"ha":833,"x_min":313,"x_max":521,"o":"m 396 604 q 336 628 360 604 q 313 688 313 651 q 336 747 313 724 q 396 771 360 771 l 438 771 q 497 747 474 771 q 521 686 521 722 q 499 628 521 651 q 438 604 478 604 l 396 604 m 343 -250 l 360 465 l 474 465 l 490 -250 l 343 -250 z "},"¢":{"ha":833,"x_min":122,"x_max":726,"o":"m 379 -194 l 379 -11 q 192 78 261 3 q 122 278 122 154 l 122 486 q 192 685 122 610 q 379 775 261 761 l 379 958 l 463 958 l 463 776 q 651 697 581 767 q 726 514 722 628 l 601 514 q 561 617 597 578 q 463 664 525 656 l 463 100 q 561 147 525 108 q 601 250 597 186 l 726 250 q 651 67 722 136 q 463 -12 581 -3 l 463 -194 l 379 -194 m 247 278 q 283 160 247 206 q 379 101 318 115 l 379 663 q 283 604 318 649 q 247 488 247 560 l 247 278 z "},"£":{"ha":833,"x_min":104,"x_max":743,"o":"m 104 0 l 104 139 q 172 202 138 165 q 231 278 207 239 q 256 353 256 318 q 249 424 256 390 l 104 424 l 104 535 l 208 535 q 168 605 189 571 q 133 678 147 639 q 119 771 119 718 q 200 958 119 889 q 417 1028 281 1028 q 634 958 554 1028 q 715 764 714 888 l 583 764 q 538 875 583 833 q 415 917 492 917 q 290 877 335 917 q 246 764 246 838 q 263 680 246 715 q 303 611 279 644 q 347 535 326 578 l 604 535 l 604 424 l 378 424 q 382 365 382 396 q 358 255 382 306 q 298 167 333 204 q 229 111 263 131 l 743 111 l 743 0 l 104 0 z "},"¤":{"ha":833,"x_min":60,"x_max":775,"o":"m 688 157 l 567 278 q 418 238 503 238 q 267 278 332 238 l 149 160 l 63 246 l 178 363 q 132 518 132 431 q 179 675 132 607 l 60 794 l 147 882 l 269 760 q 418 799 336 799 q 572 756 506 799 l 689 872 l 774 788 l 658 672 q 701 518 701 603 q 690 435 701 475 q 657 363 678 396 l 775 244 l 688 157 m 418 333 q 547 386 496 333 q 599 518 599 439 q 547 650 599 597 q 418 703 496 703 q 325 678 367 703 q 259 613 283 654 q 235 518 235 571 q 259 424 235 465 q 325 358 283 382 q 418 333 367 333 z "},"¥":{"ha":833,"x_min":49,"x_max":785,"o":"m 83 167 l 83 271 l 354 271 l 354 375 l 83 375 l 83 479 l 306 479 l 49 1014 l 182 1014 l 379 597 q 406 538 396 563 q 418 503 415 514 q 431 538 421 514 q 458 597 442 563 l 656 1014 l 785 1014 l 528 479 l 750 479 l 750 375 l 479 375 l 479 271 l 750 271 l 750 167 l 479 167 l 479 0 l 354 0 l 354 167 l 83 167 z "},"¦":{"ha":833,"x_min":354,"x_max":479,"o":"m 354 625 l 354 1153 l 479 1153 l 479 625 l 354 625 m 354 -153 l 354 375 l 479 375 l 479 -153 l 354 -153 z "},"§":{"ha":833,"x_min":107,"x_max":726,"o":"m 382 -214 q 181 -156 256 -214 q 107 0 107 -99 l 239 0 q 278 -75 239 -47 q 382 -103 317 -103 l 451 -103 q 560 -71 521 -103 q 600 17 600 -39 q 565 102 600 67 q 460 149 529 138 l 332 169 q 221 217 268 181 q 147 304 174 253 q 121 411 121 356 q 162 542 121 492 q 275 601 203 592 l 275 604 q 164 674 203 621 q 125 804 125 726 q 196 967 125 907 q 388 1028 267 1028 l 457 1028 q 638 974 567 1028 q 718 826 708 919 l 586 826 q 546 892 581 868 q 457 917 511 917 l 388 917 q 287 886 324 917 q 250 803 250 856 q 275 725 250 757 q 344 685 300 693 l 511 653 q 666 567 610 635 q 722 414 722 499 q 675 285 722 333 q 563 233 628 238 l 563 231 q 630 205 592 228 q 697 137 668 182 q 726 21 726 92 q 653 -151 726 -87 q 451 -214 579 -214 l 382 -214 m 458 260 q 558 296 519 250 q 597 415 597 342 q 567 501 597 464 q 488 547 536 539 l 385 565 q 285 532 324 576 q 246 417 246 488 q 276 325 246 364 q 353 278 306 286 l 458 260 z "},"¨":{"ha":833,"x_min":174,"x_max":660,"o":"m 571 901 q 506 925 531 901 q 482 989 482 949 q 506 1055 482 1031 q 571 1079 531 1079 q 635 1055 611 1079 q 660 989 660 1031 q 635 925 660 949 q 571 901 611 901 m 263 901 q 198 925 222 901 q 174 989 174 949 q 198 1055 174 1031 q 263 1079 222 1079 q 327 1055 303 1079 q 351 989 351 1031 q 327 925 351 949 q 263 901 303 901 z "},"©":{"ha":833,"x_min":63,"x_max":771,"o":"m 417 153 q 231 194 311 153 q 107 311 151 236 q 63 486 63 386 l 63 694 q 107 869 63 794 q 231 986 151 944 q 417 1028 311 1028 q 603 986 524 1028 q 726 869 682 944 q 771 694 771 794 l 771 486 q 726 311 771 386 q 603 194 682 236 q 417 153 524 153 m 417 222 q 563 255 500 222 q 660 347 625 288 q 694 486 694 407 l 694 694 q 660 833 694 774 q 563 925 625 892 q 417 958 500 958 q 271 925 333 958 q 174 833 208 892 q 139 694 139 774 l 139 486 q 174 347 139 407 q 271 255 208 288 q 417 222 333 222 m 424 340 q 298 384 346 340 q 250 500 250 428 l 250 681 q 298 797 250 753 q 424 840 346 840 q 549 797 501 840 q 596 681 596 753 l 506 681 q 483 741 506 718 q 424 764 460 764 q 363 741 386 764 q 340 681 340 718 l 340 500 q 363 440 340 463 q 424 417 386 417 q 483 440 460 417 q 506 500 506 463 l 596 500 q 549 384 596 428 q 424 340 501 340 z "},"ª":{"ha":833,"x_min":243,"x_max":583,"o":"m 381 625 q 281 658 318 625 q 243 744 243 690 q 282 831 243 799 q 389 863 321 863 l 514 863 l 514 903 q 490 953 514 935 q 424 972 465 972 q 363 957 388 972 q 333 917 338 942 l 264 917 q 313 999 271 969 q 424 1028 356 1028 q 540 994 497 1028 q 583 903 583 961 l 583 632 l 518 632 l 518 708 l 514 708 q 465 647 500 669 q 381 625 429 625 m 399 678 q 483 703 453 678 q 514 771 514 728 l 514 807 l 389 807 q 313 744 313 807 q 336 696 313 714 q 399 678 360 678 z "},"«":{"ha":833,"x_min":42,"x_max":782,"o":"m 639 56 l 372 389 l 638 722 l 782 722 l 510 392 l 782 56 l 639 56 m 308 56 l 42 389 l 307 722 l 454 722 l 182 392 l 454 56 l 308 56 z "},"¬":{"ha":833,"x_min":139,"x_max":694,"o":"m 576 257 l 576 438 l 139 438 l 139 549 l 694 549 l 694 257 l 576 257 z "},"­":{"ha":833,"x_min":194,"x_max":639,"o":"m 194 403 l 194 514 l 639 514 l 639 403 l 194 403 z "},"®":{"ha":833,"x_min":63,"x_max":771,"o":"m 417 153 q 231 194 311 153 q 107 311 151 236 q 63 486 63 386 l 63 694 q 107 869 63 794 q 231 986 151 944 q 417 1028 311 1028 q 603 986 524 1028 q 726 869 682 944 q 771 694 771 794 l 771 486 q 726 311 771 386 q 603 194 682 236 q 417 153 524 153 m 139 486 q 174 347 139 407 q 271 255 208 288 q 417 222 333 222 q 563 255 500 222 q 660 347 625 288 q 694 486 694 407 l 694 694 q 660 833 694 774 q 563 925 625 892 q 417 958 500 958 q 271 925 333 958 q 174 833 208 892 q 139 694 139 774 l 139 486 m 264 347 l 264 833 l 422 833 q 541 794 497 833 q 585 688 585 754 q 501 556 585 592 l 593 347 l 504 347 l 422 542 l 347 542 l 347 347 l 264 347 m 347 611 l 422 611 q 479 631 458 611 q 500 688 500 651 q 479 744 500 724 q 422 764 458 764 l 347 764 l 347 611 z "},"¯":{"ha":833,"x_min":194,"x_max":639,"o":"m 194 931 l 194 1035 l 639 1035 l 639 931 l 194 931 z "},"°":{"ha":833,"x_min":208,"x_max":625,"o":"m 417 625 q 266 681 324 625 q 208 826 208 738 q 266 972 208 917 q 417 1028 324 1028 q 567 972 510 1028 q 625 826 625 917 q 567 681 625 738 q 417 625 510 625 m 417 703 q 502 737 469 703 q 535 826 535 771 q 502 917 535 882 q 417 951 469 951 q 332 917 365 951 q 299 826 299 882 q 332 737 299 771 q 417 703 365 703 z "},"±":{"ha":833,"x_min":90,"x_max":743,"o":"m 97 0 l 97 97 l 356 97 l 356 410 l 90 410 l 90 521 l 356 521 l 356 792 l 478 792 l 478 521 l 743 521 l 743 410 l 478 410 l 478 97 l 736 97 l 736 0 l 97 0 z "},"²":{"ha":833,"x_min":204,"x_max":635,"o":"m 217 531 l 217 638 l 471 857 q 515 906 499 881 q 532 963 532 932 q 499 1041 532 1011 q 418 1071 467 1071 q 337 1040 371 1071 q 303 960 303 1010 l 204 960 q 236 1064 207 1019 q 313 1134 265 1108 q 418 1160 361 1160 q 527 1135 479 1160 q 603 1067 575 1111 q 632 965 632 1024 q 603 872 632 915 q 524 786 574 829 l 329 621 l 635 621 l 635 531 l 217 531 z "},"³":{"ha":833,"x_min":193,"x_max":642,"o":"m 417 524 q 256 581 318 524 q 193 729 193 638 l 292 729 q 326 645 292 678 q 417 613 361 613 q 507 645 472 613 q 542 729 542 678 q 507 813 542 781 q 417 844 472 844 l 360 844 l 360 940 l 519 1063 l 224 1063 l 224 1153 l 619 1153 l 619 1053 l 457 925 q 591 863 540 915 q 642 729 642 810 q 579 581 642 638 q 417 524 517 524 z "},"´":{"ha":833,"x_min":322,"x_max":604,"o":"m 322 896 l 469 1090 l 604 1090 l 450 896 l 322 896 z "},"µ":{"ha":833,"x_min":129,"x_max":704,"o":"m 129 -250 l 129 764 l 254 764 l 254 278 q 296 143 254 192 q 414 94 338 94 q 535 143 492 94 q 579 278 579 192 l 579 764 l 704 764 l 704 0 l 582 0 l 582 146 l 578 146 q 536 29 574 72 q 413 -14 499 -14 q 293 29 326 -14 q 256 146 260 72 l 251 146 l 254 -28 l 254 -250 l 129 -250 z "},"¶":{"ha":833,"x_min":90,"x_max":701,"o":"m 354 -250 l 354 431 q 163 496 236 431 q 90 667 90 561 l 90 778 q 163 949 90 885 q 354 1014 236 1014 l 465 1014 l 465 -250 l 354 -250 m 590 -250 l 590 1014 l 701 1014 l 701 -250 l 590 -250 z "},"·":{"ha":833,"x_min":303,"x_max":531,"o":"m 417 361 q 334 392 365 361 q 303 471 303 422 q 334 554 303 522 q 417 586 365 586 q 499 554 468 586 q 531 471 531 522 q 499 392 531 422 q 417 361 468 361 z "},"¸":{"ha":833,"x_min":285,"x_max":569,"o":"m 285 -282 l 285 -206 l 382 -206 q 431 -190 413 -206 q 450 -156 450 -174 q 412 -114 450 -132 q 304 -96 374 -96 l 353 36 l 432 36 l 403 -49 q 478 -67 439 -53 q 543 -106 517 -81 q 569 -167 569 -131 q 524 -248 569 -214 q 403 -282 478 -282 l 285 -282 z "},"¹":{"ha":833,"x_min":208,"x_max":667,"o":"m 208 531 l 208 621 l 408 621 l 408 1071 l 213 953 l 213 1054 l 374 1153 l 507 1153 l 507 621 l 667 621 l 667 531 l 208 531 z "},"º":{"ha":833,"x_min":257,"x_max":576,"o":"m 417 618 q 301 658 344 618 q 257 764 257 699 l 257 875 q 301 981 257 940 q 417 1021 344 1021 q 533 981 489 1021 q 576 875 576 940 l 576 764 q 533 658 576 699 q 417 618 489 618 m 417 674 q 482 699 457 674 q 507 764 507 724 l 507 875 q 482 940 507 915 q 417 965 457 965 q 351 940 376 965 q 326 875 326 915 l 326 764 q 351 699 326 724 q 417 674 376 674 z "},"»":{"ha":833,"x_min":51,"x_max":792,"o":"m 381 56 l 647 390 l 379 722 l 525 722 l 792 389 l 526 56 l 381 56 m 53 56 l 319 390 l 51 722 l 194 722 l 461 389 l 196 56 l 53 56 z "},"¼":{"ha":833,"x_min":7,"x_max":826,"o":"m 7 0 l 396 563 l 42 563 l 42 632 l 206 632 l 206 960 q 188 935 200 950 q 160 907 175 921 l 74 832 l 74 929 l 171 1014 l 289 1014 l 289 632 l 424 632 l 424 603 l 708 1014 l 826 1014 l 125 0 l 7 0 m 667 0 l 667 97 l 424 97 l 424 208 l 599 451 l 694 451 l 507 189 l 507 167 l 667 167 l 667 290 l 750 290 l 750 0 l 667 0 z "},"½":{"ha":833,"x_min":7,"x_max":826,"o":"m 7 0 l 396 563 l 42 563 l 42 632 l 206 632 l 206 960 q 188 935 200 950 q 160 907 175 921 l 74 832 l 74 929 l 171 1014 l 289 1014 l 289 632 l 438 632 l 438 622 l 708 1014 l 826 1014 l 125 0 l 7 0 m 438 0 l 438 89 l 604 185 q 701 300 701 240 q 676 365 701 340 q 611 389 651 389 q 546 365 571 389 q 521 300 521 340 l 438 300 q 488 415 440 372 q 611 458 536 458 q 737 415 689 458 q 785 303 785 372 q 753 218 785 260 q 665 144 722 176 l 536 72 l 536 58 q 581 65 551 61 q 640 69 610 69 l 792 69 l 792 0 l 438 0 z "},"¾":{"ha":833,"x_min":7,"x_max":826,"o":"m 214 556 q 85 596 133 556 q 36 701 36 636 l 119 701 q 145 646 119 667 q 214 625 171 625 q 281 646 256 625 q 307 701 307 667 q 281 757 307 736 q 215 778 256 778 l 174 778 l 174 857 l 286 944 l 69 944 l 69 1014 l 368 1014 l 368 938 l 250 846 q 351 799 313 838 q 390 701 390 760 q 342 596 390 636 q 214 556 293 556 m 7 0 l 708 1014 l 826 1014 l 125 0 l 7 0 m 667 0 l 667 97 l 424 97 l 424 208 l 599 451 l 694 451 l 507 189 l 507 167 l 667 167 l 667 290 l 750 290 l 750 0 l 667 0 z "},"¿":{"ha":833,"x_min":160,"x_max":653,"o":"m 465 604 q 404 628 426 604 q 382 686 382 651 q 406 747 382 722 q 465 771 429 771 l 507 771 q 567 747 543 771 q 590 688 590 724 q 567 628 590 651 q 507 604 543 604 l 465 604 m 479 -250 q 310 -213 382 -250 q 199 -109 239 -176 q 160 49 160 -42 q 193 192 160 129 q 285 292 226 254 q 422 333 344 329 l 422 465 l 547 465 l 547 229 l 478 229 q 337 180 389 229 q 285 49 285 131 q 338 -83 285 -33 q 479 -132 390 -132 l 653 -132 l 653 -250 l 479 -250 z "},"À":{"ha":833,"x_min":69,"x_max":764,"o":"m 69 0 l 333 1014 l 501 1014 l 764 0 l 638 0 l 571 269 l 264 269 l 197 0 l 69 0 m 289 375 l 544 375 l 467 688 q 432 836 444 776 q 417 914 419 896 q 401 836 414 896 q 367 689 389 776 l 289 375 m 371 1125 l 211 1319 l 350 1319 l 503 1125 l 371 1125 z "},"Á":{"ha":833,"x_min":69,"x_max":764,"o":"m 69 0 l 333 1014 l 501 1014 l 764 0 l 638 0 l 571 269 l 264 269 l 197 0 l 69 0 m 289 375 l 544 375 l 467 688 q 432 836 444 776 q 417 914 419 896 q 401 836 414 896 q 367 689 389 776 l 289 375 m 336 1125 l 483 1319 l 618 1319 l 464 1125 l 336 1125 z "},"Â":{"ha":833,"x_min":69,"x_max":764,"o":"m 69 0 l 333 1014 l 501 1014 l 764 0 l 638 0 l 571 269 l 264 269 l 197 0 l 69 0 m 289 375 l 544 375 l 467 688 q 432 836 444 776 q 417 914 419 896 q 401 836 414 896 q 367 689 389 776 l 289 375 m 165 1125 l 358 1319 l 474 1319 l 668 1125 l 531 1125 l 417 1233 l 306 1125 l 165 1125 z "},"Ã":{"ha":833,"x_min":69,"x_max":764,"o":"m 69 0 l 333 1014 l 501 1014 l 764 0 l 638 0 l 571 269 l 264 269 l 197 0 l 69 0 m 289 375 l 544 375 l 467 688 q 432 836 444 776 q 417 914 419 896 q 401 836 414 896 q 367 689 389 776 l 289 375 m 514 1132 q 446 1147 472 1132 q 401 1181 419 1161 q 367 1215 383 1200 q 326 1229 350 1229 q 285 1181 285 1229 l 285 1139 l 194 1139 l 194 1181 q 229 1278 194 1243 q 319 1313 264 1313 q 388 1298 361 1313 q 432 1264 414 1283 q 467 1230 450 1244 q 507 1215 483 1215 q 549 1264 549 1215 l 549 1306 l 639 1306 l 639 1264 q 605 1167 639 1201 q 514 1132 571 1132 z "},"Ä":{"ha":833,"x_min":69,"x_max":764,"o":"m 69 0 l 333 1014 l 501 1014 l 764 0 l 638 0 l 571 269 l 264 269 l 197 0 l 69 0 m 289 375 l 544 375 l 467 688 q 432 836 444 776 q 417 914 419 896 q 401 836 414 896 q 367 689 389 776 l 289 375 m 571 1135 q 506 1158 531 1135 q 482 1222 482 1182 q 506 1288 482 1264 q 571 1313 531 1313 q 635 1288 611 1313 q 660 1222 660 1264 q 635 1158 660 1182 q 571 1135 611 1135 m 263 1135 q 198 1158 222 1135 q 174 1222 174 1182 q 198 1288 174 1264 q 263 1313 222 1313 q 327 1288 303 1313 q 351 1222 351 1264 q 327 1158 351 1182 q 263 1135 303 1135 z "},"Å":{"ha":833,"x_min":69,"x_max":764,"o":"m 69 0 l 333 1014 l 501 1014 l 764 0 l 638 0 l 571 269 l 264 269 l 197 0 l 69 0 m 289 375 l 544 375 l 467 688 q 432 836 444 776 q 417 914 419 896 q 401 836 414 896 q 367 689 389 776 l 289 375 m 417 1064 q 296 1108 342 1064 q 250 1222 250 1151 q 296 1337 250 1293 q 417 1381 342 1381 q 538 1337 492 1381 q 583 1222 583 1293 q 538 1108 583 1151 q 417 1064 492 1064 m 417 1138 q 477 1160 454 1138 q 500 1222 500 1183 q 477 1285 500 1261 q 417 1308 454 1308 q 356 1285 379 1308 q 333 1222 333 1261 q 356 1160 333 1183 q 417 1138 379 1138 z "},"Æ":{"ha":833,"x_min":42,"x_max":792,"o":"m 42 0 l 243 1014 l 792 1014 l 792 900 l 539 900 l 539 583 l 757 583 l 757 469 l 539 469 l 539 114 l 792 114 l 792 0 l 419 0 l 419 282 l 224 282 l 168 0 l 42 0 m 243 386 l 419 386 l 419 900 l 342 900 l 243 386 z "},"Ç":{"ha":833,"x_min":128,"x_max":725,"o":"m 292 -282 l 292 -206 l 389 -206 q 438 -190 419 -206 q 457 -156 457 -174 q 419 -114 457 -132 q 311 -96 381 -96 l 344 -6 q 185 90 243 17 q 128 278 128 164 l 128 736 q 208 950 128 872 q 428 1028 289 1028 q 644 949 564 1028 q 725 736 725 871 l 600 736 q 555 869 600 822 q 428 915 510 915 q 299 869 346 915 q 253 736 253 822 l 253 278 q 299 145 253 192 q 428 99 346 99 q 555 145 510 99 q 600 278 600 192 l 725 278 q 644 65 725 143 q 428 -14 564 -14 q 422 -14 424 -14 l 410 -49 q 485 -67 446 -53 q 550 -106 524 -81 q 576 -167 576 -131 q 531 -248 576 -214 q 410 -282 485 -282 l 292 -282 z "},"È":{"ha":833,"x_min":139,"x_max":722,"o":"m 139 0 l 139 1014 l 722 1014 l 722 900 l 263 900 l 263 586 l 674 586 l 674 475 l 263 475 l 263 114 l 722 114 l 722 0 l 139 0 m 385 1125 l 225 1319 l 364 1319 l 517 1125 l 385 1125 z "},"É":{"ha":833,"x_min":139,"x_max":722,"o":"m 139 0 l 139 1014 l 722 1014 l 722 900 l 263 900 l 263 586 l 674 586 l 674 475 l 263 475 l 263 114 l 722 114 l 722 0 l 139 0 m 350 1125 l 497 1319 l 632 1319 l 478 1125 l 350 1125 z "},"Ê":{"ha":833,"x_min":139,"x_max":722,"o":"m 139 0 l 139 1014 l 722 1014 l 722 900 l 263 900 l 263 586 l 674 586 l 674 475 l 263 475 l 263 114 l 722 114 l 722 0 l 139 0 m 179 1125 l 372 1319 l 488 1319 l 682 1125 l 544 1125 l 431 1233 l 319 1125 l 179 1125 z "},"Ë":{"ha":833,"x_min":139,"x_max":722,"o":"m 139 0 l 139 1014 l 722 1014 l 722 900 l 263 900 l 263 586 l 674 586 l 674 475 l 263 475 l 263 114 l 722 114 l 722 0 l 139 0 m 585 1135 q 520 1158 544 1135 q 496 1222 496 1182 q 520 1288 496 1264 q 585 1313 544 1313 q 649 1288 625 1313 q 674 1222 674 1264 q 649 1158 674 1182 q 585 1135 625 1135 m 276 1135 q 212 1158 236 1135 q 188 1222 188 1182 q 212 1288 188 1264 q 276 1313 236 1313 q 341 1288 317 1313 q 365 1222 365 1264 q 341 1158 365 1182 q 276 1135 317 1135 z "},"Ì":{"ha":833,"x_min":146,"x_max":688,"o":"m 146 0 l 146 114 l 353 114 l 353 900 l 146 900 l 146 1014 l 688 1014 l 688 900 l 481 900 l 481 114 l 688 114 l 688 0 l 146 0 m 371 1125 l 211 1319 l 350 1319 l 503 1125 l 371 1125 z "},"Í":{"ha":833,"x_min":146,"x_max":688,"o":"m 146 0 l 146 114 l 353 114 l 353 900 l 146 900 l 146 1014 l 688 1014 l 688 900 l 481 900 l 481 114 l 688 114 l 688 0 l 146 0 m 336 1125 l 483 1319 l 618 1319 l 464 1125 l 336 1125 z "},"Î":{"ha":833,"x_min":146,"x_max":688,"o":"m 146 0 l 146 114 l 353 114 l 353 900 l 146 900 l 146 1014 l 688 1014 l 688 900 l 481 900 l 481 114 l 688 114 l 688 0 l 146 0 m 165 1125 l 358 1319 l 474 1319 l 668 1125 l 531 1125 l 417 1233 l 306 1125 l 165 1125 z "},"Ï":{"ha":833,"x_min":146,"x_max":688,"o":"m 146 0 l 146 114 l 353 114 l 353 900 l 146 900 l 146 1014 l 688 1014 l 688 900 l 481 900 l 481 114 l 688 114 l 688 0 l 146 0 m 571 1135 q 506 1158 531 1135 q 482 1222 482 1182 q 506 1288 482 1264 q 571 1313 531 1313 q 635 1288 611 1313 q 660 1222 660 1264 q 635 1158 660 1182 q 571 1135 611 1135 m 263 1135 q 198 1158 222 1135 q 174 1222 174 1182 q 198 1288 174 1264 q 263 1313 222 1313 q 327 1288 303 1313 q 351 1222 351 1264 q 327 1158 351 1182 q 263 1135 303 1135 z "},"Ð":{"ha":833,"x_min":14,"x_max":711,"o":"m 128 0 l 128 465 l 14 465 l 14 569 l 128 569 l 128 1014 l 390 1014 q 560 976 489 1014 q 672 871 632 939 q 711 710 711 803 l 711 306 q 672 144 711 213 q 560 38 632 75 q 390 0 489 0 l 128 0 m 253 111 l 390 111 q 534 163 482 111 q 586 306 586 214 l 586 710 q 534 851 586 800 q 390 903 482 903 l 253 903 l 253 569 l 403 569 l 403 465 l 253 465 l 253 111 z "},"Ñ":{"ha":833,"x_min":125,"x_max":708,"o":"m 125 0 l 125 1014 l 292 1014 l 601 146 q 595 231 599 181 q 590 338 592 282 q 588 444 588 394 l 588 1014 l 708 1014 l 708 0 l 542 0 l 233 868 q 239 784 236 835 q 244 677 242 733 q 246 569 246 621 l 246 0 l 125 0 m 514 1132 q 446 1147 472 1132 q 401 1181 419 1161 q 367 1215 383 1200 q 326 1229 350 1229 q 285 1181 285 1229 l 285 1139 l 194 1139 l 194 1181 q 229 1278 194 1243 q 319 1313 264 1313 q 388 1298 361 1313 q 432 1264 414 1283 q 467 1230 450 1244 q 507 1215 483 1215 q 549 1264 549 1215 l 549 1306 l 639 1306 l 639 1264 q 605 1167 639 1201 q 514 1132 571 1132 z "},"Ò":{"ha":833,"x_min":122,"x_max":711,"o":"m 417 -14 q 201 65 281 -14 q 122 292 122 144 l 122 722 q 201 949 122 869 q 417 1028 281 1028 q 632 949 553 1028 q 711 724 711 869 l 711 292 q 632 65 711 144 q 417 -14 553 -14 m 417 99 q 542 145 499 99 q 586 278 586 192 l 586 736 q 542 869 586 822 q 417 915 499 915 q 292 869 336 915 q 247 736 247 822 l 247 278 q 292 145 247 192 q 417 99 336 99 m 371 1125 l 211 1319 l 350 1319 l 503 1125 l 371 1125 z "},"Ó":{"ha":833,"x_min":122,"x_max":711,"o":"m 417 -14 q 201 65 281 -14 q 122 292 122 144 l 122 722 q 201 949 122 869 q 417 1028 281 1028 q 632 949 553 1028 q 711 724 711 869 l 711 292 q 632 65 711 144 q 417 -14 553 -14 m 417 99 q 542 145 499 99 q 586 278 586 192 l 586 736 q 542 869 586 822 q 417 915 499 915 q 292 869 336 915 q 247 736 247 822 l 247 278 q 292 145 247 192 q 417 99 336 99 m 336 1125 l 483 1319 l 618 1319 l 464 1125 l 336 1125 z "},"Ô":{"ha":833,"x_min":122,"x_max":711,"o":"m 417 -14 q 201 65 281 -14 q 122 292 122 144 l 122 722 q 201 949 122 869 q 417 1028 281 1028 q 632 949 553 1028 q 711 724 711 869 l 711 292 q 632 65 711 144 q 417 -14 553 -14 m 417 99 q 542 145 499 99 q 586 278 586 192 l 586 736 q 542 869 586 822 q 417 915 499 915 q 292 869 336 915 q 247 736 247 822 l 247 278 q 292 145 247 192 q 417 99 336 99 m 165 1125 l 358 1319 l 474 1319 l 668 1125 l 531 1125 l 417 1233 l 306 1125 l 165 1125 z "},"Õ":{"ha":833,"x_min":122,"x_max":711,"o":"m 417 -14 q 201 65 281 -14 q 122 292 122 144 l 122 722 q 201 949 122 869 q 417 1028 281 1028 q 632 949 553 1028 q 711 724 711 869 l 711 292 q 632 65 711 144 q 417 -14 553 -14 m 417 99 q 542 145 499 99 q 586 278 586 192 l 586 736 q 542 869 586 822 q 417 915 499 915 q 292 869 336 915 q 247 736 247 822 l 247 278 q 292 145 247 192 q 417 99 336 99 m 514 1132 q 446 1147 472 1132 q 401 1181 419 1161 q 367 1215 383 1200 q 326 1229 350 1229 q 285 1181 285 1229 l 285 1139 l 194 1139 l 194 1181 q 229 1278 194 1243 q 319 1313 264 1313 q 388 1298 361 1313 q 432 1264 414 1283 q 467 1230 450 1244 q 507 1215 483 1215 q 549 1264 549 1215 l 549 1306 l 639 1306 l 639 1264 q 605 1167 639 1201 q 514 1132 571 1132 z "},"Ö":{"ha":833,"x_min":122,"x_max":711,"o":"m 417 -14 q 201 65 281 -14 q 122 292 122 144 l 122 722 q 201 949 122 869 q 417 1028 281 1028 q 632 949 553 1028 q 711 724 711 869 l 711 292 q 632 65 711 144 q 417 -14 553 -14 m 417 99 q 542 145 499 99 q 586 278 586 192 l 586 736 q 542 869 586 822 q 417 915 499 915 q 292 869 336 915 q 247 736 247 822 l 247 278 q 292 145 247 192 q 417 99 336 99 m 571 1135 q 506 1158 531 1135 q 482 1222 482 1182 q 506 1288 482 1264 q 571 1313 531 1313 q 635 1288 611 1313 q 660 1222 660 1264 q 635 1158 660 1182 q 571 1135 611 1135 m 263 1135 q 198 1158 222 1135 q 174 1222 174 1182 q 198 1288 174 1264 q 263 1313 222 1313 q 327 1288 303 1313 q 351 1222 351 1264 q 327 1158 351 1182 q 263 1135 303 1135 z "},"×":{"ha":833,"x_min":146,"x_max":686,"o":"m 217 189 l 146 261 l 342 457 l 146 654 l 217 725 l 414 529 l 615 731 l 686 658 l 485 457 l 682 261 l 610 189 l 414 386 l 217 189 z "},"Ø":{"ha":833,"x_min":49,"x_max":785,"o":"m 49 -56 l 154 131 q 122 278 122 193 l 122 736 q 201 950 122 872 q 417 1028 281 1028 q 622 960 544 1028 l 668 1042 l 785 1042 l 688 868 q 711 738 711 811 l 711 278 q 632 64 711 142 q 417 -14 553 -14 q 222 46 299 -14 l 165 -56 l 49 -56 m 247 736 l 247 296 l 558 847 q 417 915 515 915 q 292 869 336 915 q 247 736 247 822 m 417 99 q 542 145 499 99 q 586 278 586 192 l 586 690 l 283 154 q 417 99 328 99 z "},"Ù":{"ha":833,"x_min":125,"x_max":708,"o":"m 417 -14 q 200 65 275 -14 q 125 278 125 143 l 125 1014 l 250 1014 l 250 278 q 291 146 250 194 q 417 97 332 97 q 542 146 500 97 q 583 278 583 194 l 583 1014 l 708 1014 l 708 278 q 634 64 708 142 q 417 -14 560 -14 m 371 1125 l 211 1319 l 350 1319 l 503 1125 l 371 1125 z "},"Ú":{"ha":833,"x_min":125,"x_max":708,"o":"m 417 -14 q 200 65 275 -14 q 125 278 125 143 l 125 1014 l 250 1014 l 250 278 q 291 146 250 194 q 417 97 332 97 q 542 146 500 97 q 583 278 583 194 l 583 1014 l 708 1014 l 708 278 q 634 64 708 142 q 417 -14 560 -14 m 336 1125 l 483 1319 l 618 1319 l 464 1125 l 336 1125 z "},"Û":{"ha":833,"x_min":125,"x_max":708,"o":"m 417 -14 q 200 65 275 -14 q 125 278 125 143 l 125 1014 l 250 1014 l 250 278 q 291 146 250 194 q 417 97 332 97 q 542 146 500 97 q 583 278 583 194 l 583 1014 l 708 1014 l 708 278 q 634 64 708 142 q 417 -14 560 -14 m 165 1125 l 358 1319 l 474 1319 l 668 1125 l 531 1125 l 417 1233 l 306 1125 l 165 1125 z "},"Ü":{"ha":833,"x_min":125,"x_max":708,"o":"m 417 -14 q 200 65 275 -14 q 125 278 125 143 l 125 1014 l 250 1014 l 250 278 q 291 146 250 194 q 417 97 332 97 q 542 146 500 97 q 583 278 583 194 l 583 1014 l 708 1014 l 708 278 q 634 64 708 142 q 417 -14 560 -14 m 571 1135 q 506 1158 531 1135 q 482 1222 482 1182 q 506 1288 482 1264 q 571 1313 531 1313 q 635 1288 611 1313 q 660 1222 660 1264 q 635 1158 660 1182 q 571 1135 611 1135 m 263 1135 q 198 1158 222 1135 q 174 1222 174 1182 q 198 1288 174 1264 q 263 1313 222 1313 q 327 1288 303 1313 q 351 1222 351 1264 q 327 1158 351 1182 q 263 1135 303 1135 z "},"Ý":{"ha":833,"x_min":49,"x_max":785,"o":"m 354 0 l 354 379 l 49 1014 l 182 1014 l 379 597 q 406 538 396 563 q 418 503 415 514 q 431 538 421 514 q 458 597 442 563 l 656 1014 l 785 1014 l 479 379 l 479 0 l 354 0 m 336 1125 l 483 1319 l 618 1319 l 464 1125 l 336 1125 z "},"Þ":{"ha":833,"x_min":125,"x_max":764,"o":"m 125 0 l 125 1014 l 250 1014 l 250 806 l 463 806 q 622 771 554 806 q 726 674 689 736 q 764 528 764 611 q 682 326 764 401 q 463 250 600 250 l 250 250 l 250 0 l 125 0 m 250 361 l 463 361 q 589 406 543 361 q 635 528 635 451 q 588 650 635 606 q 463 694 542 694 l 250 694 l 250 361 z "},"ß":{"ha":833,"x_min":128,"x_max":744,"o":"m 128 0 l 128 742 q 165 891 128 826 q 267 992 201 956 q 421 1028 333 1028 q 574 995 508 1028 q 676 906 639 963 q 713 772 713 849 q 667 628 713 690 q 550 547 622 565 l 550 543 q 690 456 636 528 q 744 283 744 383 q 706 136 744 200 q 598 36 667 72 q 438 0 529 0 l 357 0 l 357 114 l 424 114 q 563 164 510 114 q 617 294 617 214 q 567 425 617 375 q 436 475 517 475 l 357 475 l 357 586 l 421 586 q 541 632 494 586 q 588 751 588 678 q 541 871 588 825 q 421 917 494 917 q 299 868 346 917 q 253 742 253 819 l 253 0 l 128 0 z "},"à":{"ha":833,"x_min":93,"x_max":706,"o":"m 350 -14 q 163 52 232 -14 q 93 225 93 118 q 125 349 93 296 q 214 431 157 401 q 344 461 271 461 l 581 461 l 581 521 q 418 669 581 669 q 301 643 346 669 q 254 569 257 617 l 129 569 q 213 719 136 660 q 418 778 290 778 q 631 711 557 778 q 706 525 706 644 l 706 0 l 582 0 l 582 139 l 579 139 q 508 27 568 68 q 350 -14 449 -14 m 381 92 q 526 136 472 92 q 581 257 581 181 l 581 364 l 358 364 q 259 327 297 364 q 221 229 221 290 q 263 128 221 165 q 381 92 306 92 m 378 896 l 218 1090 l 357 1090 l 510 896 l 378 896 z "},"á":{"ha":833,"x_min":93,"x_max":706,"o":"m 350 -14 q 163 52 232 -14 q 93 225 93 118 q 125 349 93 296 q 214 431 157 401 q 344 461 271 461 l 581 461 l 581 521 q 418 669 581 669 q 301 643 346 669 q 254 569 257 617 l 129 569 q 213 719 136 660 q 418 778 290 778 q 631 711 557 778 q 706 525 706 644 l 706 0 l 582 0 l 582 139 l 579 139 q 508 27 568 68 q 350 -14 449 -14 m 381 92 q 526 136 472 92 q 581 257 581 181 l 581 364 l 358 364 q 259 327 297 364 q 221 229 221 290 q 263 128 221 165 q 381 92 306 92 m 343 896 l 490 1090 l 625 1090 l 471 896 l 343 896 z "},"â":{"ha":833,"x_min":93,"x_max":706,"o":"m 350 -14 q 163 52 232 -14 q 93 225 93 118 q 125 349 93 296 q 214 431 157 401 q 344 461 271 461 l 581 461 l 581 521 q 418 669 581 669 q 301 643 346 669 q 254 569 257 617 l 129 569 q 213 719 136 660 q 418 778 290 778 q 631 711 557 778 q 706 525 706 644 l 706 0 l 582 0 l 582 139 l 579 139 q 508 27 568 68 q 350 -14 449 -14 m 381 92 q 526 136 472 92 q 581 257 581 181 l 581 364 l 358 364 q 259 327 297 364 q 221 229 221 290 q 263 128 221 165 q 381 92 306 92 m 172 896 l 365 1090 l 481 1090 l 675 896 l 538 896 l 424 1004 l 313 896 l 172 896 z "},"ã":{"ha":833,"x_min":93,"x_max":706,"o":"m 350 -14 q 163 52 232 -14 q 93 225 93 118 q 125 349 93 296 q 214 431 157 401 q 344 461 271 461 l 581 461 l 581 521 q 418 669 581 669 q 301 643 346 669 q 254 569 257 617 l 129 569 q 213 719 136 660 q 418 778 290 778 q 631 711 557 778 q 706 525 706 644 l 706 0 l 582 0 l 582 139 l 579 139 q 508 27 568 68 q 350 -14 449 -14 m 381 92 q 526 136 472 92 q 581 257 581 181 l 581 364 l 358 364 q 259 327 297 364 q 221 229 221 290 q 263 128 221 165 q 381 92 306 92 m 521 903 q 453 917 479 903 q 408 951 426 932 q 374 985 390 971 q 333 1000 357 1000 q 292 951 292 1000 l 292 910 l 201 910 l 201 951 q 236 1049 201 1014 q 326 1083 271 1083 q 394 1069 368 1083 q 439 1035 421 1054 q 474 1001 457 1015 q 514 986 490 986 q 556 1035 556 986 l 556 1076 l 646 1076 l 646 1035 q 612 938 646 972 q 521 903 578 903 z "},"ä":{"ha":833,"x_min":93,"x_max":706,"o":"m 350 -14 q 163 52 232 -14 q 93 225 93 118 q 125 349 93 296 q 214 431 157 401 q 344 461 271 461 l 581 461 l 581 521 q 418 669 581 669 q 301 643 346 669 q 254 569 257 617 l 129 569 q 213 719 136 660 q 418 778 290 778 q 631 711 557 778 q 706 525 706 644 l 706 0 l 582 0 l 582 139 l 579 139 q 508 27 568 68 q 350 -14 449 -14 m 381 92 q 526 136 472 92 q 581 257 581 181 l 581 364 l 358 364 q 259 327 297 364 q 221 229 221 290 q 263 128 221 165 q 381 92 306 92 m 578 901 q 513 925 538 901 q 489 989 489 949 q 513 1055 489 1031 q 578 1079 538 1079 q 642 1055 618 1079 q 667 989 667 1031 q 642 925 667 949 q 578 901 618 901 m 269 901 q 205 925 229 901 q 181 989 181 949 q 205 1055 181 1031 q 269 1079 229 1079 q 334 1055 310 1079 q 358 989 358 1031 q 334 925 358 949 q 269 901 310 901 z "},"å":{"ha":833,"x_min":93,"x_max":706,"o":"m 350 -14 q 163 52 232 -14 q 93 225 93 118 q 125 349 93 296 q 214 431 157 401 q 344 461 271 461 l 581 461 l 581 521 q 418 669 581 669 q 301 643 346 669 q 254 569 257 617 l 129 569 q 213 719 136 660 q 418 778 290 778 q 631 711 557 778 q 706 525 706 644 l 706 0 l 582 0 l 582 139 l 579 139 q 508 27 568 68 q 350 -14 449 -14 m 381 92 q 526 136 472 92 q 581 257 581 181 l 581 364 l 358 364 q 259 327 297 364 q 221 229 221 290 q 263 128 221 165 q 381 92 306 92 m 424 844 q 303 888 349 844 q 257 1003 257 932 q 303 1117 257 1074 q 424 1161 349 1161 q 544 1117 499 1161 q 590 1003 590 1074 q 544 888 590 932 q 424 844 499 844 m 424 918 q 484 941 461 918 q 507 1003 507 964 q 484 1065 507 1042 q 424 1089 461 1089 q 363 1065 386 1089 q 340 1003 340 1042 q 363 941 340 964 q 424 918 386 918 z "},"æ":{"ha":833,"x_min":43,"x_max":785,"o":"m 247 -14 q 100 51 157 -14 q 43 221 43 117 q 101 387 43 324 q 253 450 160 450 l 365 450 l 365 554 q 340 642 365 611 q 271 674 315 674 q 201 647 228 674 q 175 575 175 619 l 65 575 q 117 722 65 665 q 253 778 169 778 q 368 744 321 778 q 422 654 415 710 q 474 744 429 710 q 583 778 519 778 q 729 716 674 778 q 785 556 785 654 l 785 356 l 476 356 l 476 208 q 502 122 476 153 q 572 90 528 90 q 642 118 617 90 q 668 190 668 146 l 785 190 q 729 43 785 100 q 583 -14 674 -14 q 478 21 524 -14 q 422 111 433 56 q 363 21 411 56 q 247 -14 314 -14 m 476 450 l 668 450 l 668 556 q 642 642 668 610 q 572 674 617 674 q 503 642 529 674 q 476 556 476 610 l 476 450 m 265 90 q 338 122 311 90 q 365 208 365 154 l 365 356 l 256 356 q 186 319 213 356 q 160 222 160 283 q 188 126 160 163 q 265 90 217 90 z "},"ç":{"ha":833,"x_min":122,"x_max":726,"o":"m 290 -282 l 290 -206 l 388 -206 q 437 -190 418 -206 q 456 -156 456 -174 q 417 -114 456 -132 q 310 -96 379 -96 l 343 -6 q 182 90 242 17 q 122 278 122 164 l 122 486 q 206 700 122 622 q 428 778 289 778 q 641 707 560 778 q 726 514 722 636 l 601 514 q 551 627 597 588 q 428 667 506 667 q 297 620 346 667 q 247 488 247 574 l 247 278 q 297 144 247 192 q 428 97 346 97 q 551 138 506 97 q 601 250 597 178 l 726 250 q 641 57 722 128 q 428 -14 560 -14 q 421 -14 424 -14 l 408 -49 q 483 -67 444 -53 q 549 -106 522 -81 q 575 -167 575 -131 q 529 -248 575 -214 q 408 -282 483 -282 l 290 -282 z "},"è":{"ha":833,"x_min":117,"x_max":717,"o":"m 417 -14 q 199 67 282 -14 q 117 292 117 149 l 117 472 q 199 697 117 615 q 417 778 282 778 q 574 742 507 778 q 679 640 642 706 q 717 486 717 575 l 717 350 l 239 350 l 239 278 q 288 144 239 193 q 417 94 336 94 q 531 122 486 94 q 586 194 576 149 l 711 194 q 618 42 699 99 q 417 -14 538 -14 m 239 447 l 594 447 l 594 486 q 548 626 594 576 q 417 675 501 675 q 285 626 332 675 q 239 486 239 576 l 239 447 m 371 896 l 211 1090 l 350 1090 l 503 896 l 371 896 z "},"é":{"ha":833,"x_min":117,"x_max":717,"o":"m 417 -14 q 199 67 282 -14 q 117 292 117 149 l 117 472 q 199 697 117 615 q 417 778 282 778 q 574 742 507 778 q 679 640 642 706 q 717 486 717 575 l 717 350 l 239 350 l 239 278 q 288 144 239 193 q 417 94 336 94 q 531 122 486 94 q 586 194 576 149 l 711 194 q 618 42 699 99 q 417 -14 538 -14 m 239 447 l 594 447 l 594 486 q 548 626 594 576 q 417 675 501 675 q 285 626 332 675 q 239 486 239 576 l 239 447 m 336 896 l 483 1090 l 618 1090 l 464 896 l 336 896 z "},"ê":{"ha":833,"x_min":117,"x_max":717,"o":"m 417 -14 q 199 67 282 -14 q 117 292 117 149 l 117 472 q 199 697 117 615 q 417 778 282 778 q 574 742 507 778 q 679 640 642 706 q 717 486 717 575 l 717 350 l 239 350 l 239 278 q 288 144 239 193 q 417 94 336 94 q 531 122 486 94 q 586 194 576 149 l 711 194 q 618 42 699 99 q 417 -14 538 -14 m 239 447 l 594 447 l 594 486 q 548 626 594 576 q 417 675 501 675 q 285 626 332 675 q 239 486 239 576 l 239 447 m 165 896 l 358 1090 l 474 1090 l 668 896 l 531 896 l 417 1004 l 306 896 l 165 896 z "},"ë":{"ha":833,"x_min":117,"x_max":717,"o":"m 417 -14 q 199 67 282 -14 q 117 292 117 149 l 117 472 q 199 697 117 615 q 417 778 282 778 q 574 742 507 778 q 679 640 642 706 q 717 486 717 575 l 717 350 l 239 350 l 239 278 q 288 144 239 193 q 417 94 336 94 q 531 122 486 94 q 586 194 576 149 l 711 194 q 618 42 699 99 q 417 -14 538 -14 m 239 447 l 594 447 l 594 486 q 548 626 594 576 q 417 675 501 675 q 285 626 332 675 q 239 486 239 576 l 239 447 m 571 901 q 506 925 531 901 q 482 989 482 949 q 506 1055 482 1031 q 571 1079 531 1079 q 635 1055 611 1079 q 660 989 660 1031 q 635 925 660 949 q 571 901 611 901 m 263 901 q 198 925 222 901 q 174 989 174 949 q 198 1055 174 1031 q 263 1079 222 1079 q 327 1055 303 1079 q 351 989 351 1031 q 327 925 351 949 q 263 901 303 901 z "},"ì":{"ha":833,"x_min":118,"x_max":771,"o":"m 118 0 l 118 114 l 389 114 l 389 650 l 146 650 l 146 764 l 514 764 l 514 114 l 771 114 l 771 0 l 118 0 m 392 896 l 232 1090 l 371 1090 l 524 896 l 392 896 z "},"í":{"ha":833,"x_min":118,"x_max":771,"o":"m 118 0 l 118 114 l 389 114 l 389 650 l 146 650 l 146 764 l 514 764 l 514 114 l 771 114 l 771 0 l 118 0 m 357 896 l 504 1090 l 639 1090 l 485 896 l 357 896 z "},"î":{"ha":833,"x_min":118,"x_max":771,"o":"m 118 0 l 118 114 l 389 114 l 389 650 l 146 650 l 146 764 l 514 764 l 514 114 l 771 114 l 771 0 l 118 0 m 186 896 l 379 1090 l 494 1090 l 689 896 l 551 896 l 438 1004 l 326 896 l 186 896 z "},"ï":{"ha":833,"x_min":118,"x_max":771,"o":"m 118 0 l 118 114 l 389 114 l 389 650 l 146 650 l 146 764 l 514 764 l 514 114 l 771 114 l 771 0 l 118 0 m 592 901 q 527 925 551 901 q 503 989 503 949 q 527 1055 503 1031 q 592 1079 551 1079 q 656 1055 632 1079 q 681 989 681 1031 q 656 925 681 949 q 592 901 632 901 m 283 901 q 219 925 243 901 q 194 989 194 949 q 219 1055 194 1031 q 283 1079 243 1079 q 348 1055 324 1079 q 372 989 372 1031 q 348 925 372 949 q 283 901 324 901 z "},"ð":{"ha":833,"x_min":97,"x_max":736,"o":"m 415 -14 q 249 25 321 -14 q 137 135 176 64 q 97 299 97 206 q 134 460 97 392 q 237 567 171 529 q 390 606 303 606 q 492 579 451 606 q 549 528 533 553 l 568 528 q 540 578 563 542 q 479 667 518 615 l 389 793 l 163 688 l 163 799 l 329 876 l 229 1014 l 374 1014 l 435 925 l 640 1021 l 640 910 l 493 842 l 601 685 q 699 497 663 596 q 736 310 736 399 q 696 140 736 213 q 584 26 656 67 q 415 -14 513 -14 m 415 97 q 558 153 504 97 q 611 299 611 208 q 558 444 611 389 q 415 500 504 500 q 276 444 329 500 q 222 299 222 389 q 276 153 222 208 q 415 97 329 97 z "},"ñ":{"ha":833,"x_min":128,"x_max":708,"o":"m 128 0 l 128 764 l 253 764 l 253 618 l 254 618 q 317 736 264 694 q 457 778 369 778 q 640 707 572 778 q 708 514 708 636 l 708 0 l 583 0 l 583 492 q 540 626 583 579 q 421 672 496 672 q 298 624 343 672 q 253 486 253 575 l 253 0 l 128 0 m 521 903 q 453 917 479 903 q 408 951 426 932 q 374 985 390 971 q 333 1000 357 1000 q 292 951 292 1000 l 292 910 l 201 910 l 201 951 q 236 1049 201 1014 q 326 1083 271 1083 q 394 1069 368 1083 q 439 1035 421 1054 q 474 1001 457 1015 q 514 986 490 986 q 556 1035 556 986 l 556 1076 l 646 1076 l 646 1035 q 612 938 646 972 q 521 903 578 903 z "},"ò":{"ha":833,"x_min":117,"x_max":717,"o":"m 417 -11 q 198 69 279 -11 q 117 294 117 150 l 117 469 q 197 695 117 615 q 417 775 278 775 q 636 695 556 775 q 717 469 717 615 l 717 294 q 635 69 717 150 q 417 -11 554 -11 m 417 100 q 545 146 499 100 q 592 281 592 192 l 592 483 q 545 618 592 572 q 417 664 499 664 q 289 618 336 664 q 242 483 242 572 l 242 281 q 289 146 242 192 q 417 100 336 100 m 371 896 l 211 1090 l 350 1090 l 503 896 l 371 896 z "},"ó":{"ha":833,"x_min":117,"x_max":717,"o":"m 417 -11 q 198 69 279 -11 q 117 294 117 150 l 117 469 q 197 695 117 615 q 417 775 278 775 q 636 695 556 775 q 717 469 717 615 l 717 294 q 635 69 717 150 q 417 -11 554 -11 m 417 100 q 545 146 499 100 q 592 281 592 192 l 592 483 q 545 618 592 572 q 417 664 499 664 q 289 618 336 664 q 242 483 242 572 l 242 281 q 289 146 242 192 q 417 100 336 100 m 336 896 l 483 1090 l 618 1090 l 464 896 l 336 896 z "},"ô":{"ha":833,"x_min":117,"x_max":717,"o":"m 417 -11 q 198 69 279 -11 q 117 294 117 150 l 117 469 q 197 695 117 615 q 417 775 278 775 q 636 695 556 775 q 717 469 717 615 l 717 294 q 635 69 717 150 q 417 -11 554 -11 m 417 100 q 545 146 499 100 q 592 281 592 192 l 592 483 q 545 618 592 572 q 417 664 499 664 q 289 618 336 664 q 242 483 242 572 l 242 281 q 289 146 242 192 q 417 100 336 100 m 165 896 l 358 1090 l 474 1090 l 668 896 l 531 896 l 417 1004 l 306 896 l 165 896 z "},"õ":{"ha":833,"x_min":117,"x_max":717,"o":"m 417 -11 q 198 69 279 -11 q 117 294 117 150 l 117 469 q 197 695 117 615 q 417 775 278 775 q 636 695 556 775 q 717 469 717 615 l 717 294 q 635 69 717 150 q 417 -11 554 -11 m 417 100 q 545 146 499 100 q 592 281 592 192 l 592 483 q 545 618 592 572 q 417 664 499 664 q 289 618 336 664 q 242 483 242 572 l 242 281 q 289 146 242 192 q 417 100 336 100 m 514 903 q 446 917 472 903 q 401 951 419 932 q 367 985 383 971 q 326 1000 350 1000 q 285 951 285 1000 l 285 910 l 194 910 l 194 951 q 229 1049 194 1014 q 319 1083 264 1083 q 388 1069 361 1083 q 432 1035 414 1054 q 467 1001 450 1015 q 507 986 483 986 q 549 1035 549 986 l 549 1076 l 639 1076 l 639 1035 q 605 938 639 972 q 514 903 571 903 z "},"ö":{"ha":833,"x_min":117,"x_max":717,"o":"m 417 -11 q 198 69 279 -11 q 117 294 117 150 l 117 469 q 197 695 117 615 q 417 775 278 775 q 636 695 556 775 q 717 469 717 615 l 717 294 q 635 69 717 150 q 417 -11 554 -11 m 417 100 q 545 146 499 100 q 592 281 592 192 l 592 483 q 545 618 592 572 q 417 664 499 664 q 289 618 336 664 q 242 483 242 572 l 242 281 q 289 146 242 192 q 417 100 336 100 m 571 901 q 506 925 531 901 q 482 989 482 949 q 506 1055 482 1031 q 571 1079 531 1079 q 635 1055 611 1079 q 660 989 660 1031 q 635 925 660 949 q 571 901 611 901 m 263 901 q 198 925 222 901 q 174 989 174 949 q 198 1055 174 1031 q 263 1079 222 1079 q 327 1055 303 1079 q 351 989 351 1031 q 327 925 351 949 q 263 901 303 901 z "},"÷":{"ha":833,"x_min":139,"x_max":694,"o":"m 417 639 q 333 667 365 639 q 301 743 301 696 q 333 819 301 790 q 417 847 365 847 q 501 819 469 847 q 532 743 532 790 q 501 667 532 696 q 417 639 469 639 m 139 410 l 139 514 l 694 514 l 694 410 l 139 410 m 417 76 q 333 105 365 76 q 301 181 301 133 q 333 256 301 228 q 417 285 365 285 q 501 256 469 285 q 532 181 532 228 q 501 105 532 133 q 417 76 469 76 z "},"ø":{"ha":833,"x_min":49,"x_max":785,"o":"m 49 -42 l 161 117 q 122 278 122 185 l 122 486 q 201 700 122 622 q 417 778 281 778 q 594 731 522 778 l 658 819 l 785 819 l 668 656 q 711 488 711 586 l 711 278 q 632 64 711 142 q 417 -14 553 -14 q 231 39 306 -14 l 174 -42 l 49 -42 m 240 278 q 244 235 240 254 l 528 635 q 417 667 483 667 q 287 619 333 667 q 240 486 240 572 l 240 278 m 417 97 q 547 145 500 97 q 593 278 593 193 l 593 486 q 588 542 593 515 l 299 135 q 417 97 343 97 z "},"ù":{"ha":833,"x_min":125,"x_max":708,"o":"m 415 -14 q 204 65 283 -14 q 125 278 125 143 l 125 764 l 250 764 l 250 278 q 294 145 250 194 q 415 96 339 96 q 538 145 493 96 q 583 278 583 194 l 583 764 l 708 764 l 708 278 q 628 65 708 143 q 415 -14 547 -14 m 371 896 l 211 1090 l 350 1090 l 503 896 l 371 896 z "},"ú":{"ha":833,"x_min":125,"x_max":708,"o":"m 415 -14 q 204 65 283 -14 q 125 278 125 143 l 125 764 l 250 764 l 250 278 q 294 145 250 194 q 415 96 339 96 q 538 145 493 96 q 583 278 583 194 l 583 764 l 708 764 l 708 278 q 628 65 708 143 q 415 -14 547 -14 m 336 896 l 483 1090 l 618 1090 l 464 896 l 336 896 z "},"û":{"ha":833,"x_min":125,"x_max":708,"o":"m 415 -14 q 204 65 283 -14 q 125 278 125 143 l 125 764 l 250 764 l 250 278 q 294 145 250 194 q 415 96 339 96 q 538 145 493 96 q 583 278 583 194 l 583 764 l 708 764 l 708 278 q 628 65 708 143 q 415 -14 547 -14 m 165 896 l 358 1090 l 474 1090 l 668 896 l 531 896 l 417 1004 l 306 896 l 165 896 z "},"ü":{"ha":833,"x_min":125,"x_max":708,"o":"m 415 -14 q 204 65 283 -14 q 125 278 125 143 l 125 764 l 250 764 l 250 278 q 294 145 250 194 q 415 96 339 96 q 538 145 493 96 q 583 278 583 194 l 583 764 l 708 764 l 708 278 q 628 65 708 143 q 415 -14 547 -14 m 571 901 q 506 925 531 901 q 482 989 482 949 q 506 1055 482 1031 q 571 1079 531 1079 q 635 1055 611 1079 q 660 989 660 1031 q 635 925 660 949 q 571 901 611 901 m 263 901 q 198 925 222 901 q 174 989 174 949 q 198 1055 174 1031 q 263 1079 222 1079 q 327 1055 303 1079 q 351 989 351 1031 q 327 925 351 949 q 263 901 303 901 z "},"ý":{"ha":833,"x_min":75,"x_max":758,"o":"m 247 -250 l 360 47 l 75 764 l 210 764 l 390 292 q 411 233 401 264 q 425 181 421 203 q 439 233 429 203 q 458 292 449 264 l 626 764 l 758 764 l 378 -250 l 247 -250 m 336 896 l 483 1090 l 618 1090 l 464 896 l 336 896 z "},"þ":{"ha":833,"x_min":121,"x_max":706,"o":"m 121 -236 l 121 1014 l 246 1014 l 246 792 l 243 618 l 244 618 q 312 735 256 692 q 454 778 368 778 q 638 701 569 778 q 706 493 706 625 l 706 269 q 638 63 706 139 q 454 -14 569 -14 q 313 28 368 -14 q 247 146 257 71 l 246 146 l 246 -236 l 121 -236 m 413 94 q 536 136 492 94 q 581 271 581 178 l 581 493 q 536 628 581 588 q 413 669 492 669 q 291 621 336 669 q 246 486 246 572 l 246 278 q 291 143 246 192 q 413 94 336 94 z "},"ÿ":{"ha":833,"x_min":75,"x_max":758,"o":"m 247 -250 l 360 47 l 75 764 l 210 764 l 390 292 q 411 233 401 264 q 425 181 421 203 q 439 233 429 203 q 458 292 449 264 l 626 764 l 758 764 l 378 -250 l 247 -250 m 571 901 q 506 925 531 901 q 482 989 482 949 q 506 1055 482 1031 q 571 1079 531 1079 q 635 1055 611 1079 q 660 989 660 1031 q 635 925 660 949 q 571 901 611 901 m 263 901 q 198 925 222 901 q 174 989 174 949 q 198 1055 174 1031 q 263 1079 222 1079 q 327 1055 303 1079 q 351 989 351 1031 q 327 925 351 949 q 263 901 303 901 z "},"Ā":{"ha":833,"x_min":69,"x_max":764,"o":"m 69 0 l 333 1014 l 501 1014 l 764 0 l 638 0 l 571 269 l 264 269 l 197 0 l 69 0 m 289 375 l 544 375 l 467 688 q 432 836 444 776 q 417 914 419 896 q 401 836 414 896 q 367 689 389 776 l 289 375 m 194 1167 l 194 1271 l 639 1271 l 639 1167 l 194 1167 z "},"ā":{"ha":833,"x_min":93,"x_max":706,"o":"m 350 -14 q 163 52 232 -14 q 93 225 93 118 q 125 349 93 296 q 214 431 157 401 q 344 461 271 461 l 581 461 l 581 521 q 418 669 581 669 q 301 643 346 669 q 254 569 257 617 l 129 569 q 213 719 136 660 q 418 778 290 778 q 631 711 557 778 q 706 525 706 644 l 706 0 l 582 0 l 582 139 l 579 139 q 508 27 568 68 q 350 -14 449 -14 m 381 92 q 526 136 472 92 q 581 257 581 181 l 581 364 l 358 364 q 259 327 297 364 q 221 229 221 290 q 263 128 221 165 q 381 92 306 92 m 201 931 l 201 1035 l 646 1035 l 646 931 l 201 931 z "},"Ă":{"ha":833,"x_min":69,"x_max":764,"o":"m 69 0 l 333 1014 l 501 1014 l 764 0 l 638 0 l 571 269 l 264 269 l 197 0 l 69 0 m 289 375 l 544 375 l 467 688 q 432 836 444 776 q 417 914 419 896 q 401 836 414 896 q 367 689 389 776 l 289 375 m 417 1118 q 256 1174 317 1118 q 194 1319 194 1229 l 293 1319 q 326 1232 293 1265 q 415 1199 360 1199 q 506 1232 472 1199 q 540 1319 540 1265 l 639 1319 q 578 1174 639 1229 q 417 1118 517 1118 z "},"ă":{"ha":833,"x_min":93,"x_max":706,"o":"m 350 -14 q 163 52 232 -14 q 93 225 93 118 q 125 349 93 296 q 214 431 157 401 q 344 461 271 461 l 581 461 l 581 521 q 418 669 581 669 q 301 643 346 669 q 254 569 257 617 l 129 569 q 213 719 136 660 q 418 778 290 778 q 631 711 557 778 q 706 525 706 644 l 706 0 l 582 0 l 582 139 l 579 139 q 508 27 568 68 q 350 -14 449 -14 m 381 92 q 526 136 472 92 q 581 257 581 181 l 581 364 l 358 364 q 259 327 297 364 q 221 229 221 290 q 263 128 221 165 q 381 92 306 92 m 424 889 q 263 944 324 889 q 201 1090 201 1000 l 300 1090 q 333 1003 300 1036 q 422 969 367 969 q 513 1003 479 969 q 547 1090 547 1036 l 646 1090 q 585 944 646 1000 q 424 889 524 889 z "},"Ą":{"ha":833,"x_min":69,"x_max":813,"o":"m 69 0 l 333 1014 l 501 1014 l 764 0 l 740 0 q 674 -69 694 -37 q 653 -129 653 -100 q 674 -179 653 -160 q 729 -199 694 -199 l 813 -199 l 813 -282 l 704 -282 q 581 -245 628 -282 q 535 -153 535 -208 q 558 -78 535 -115 q 638 3 581 -40 l 571 269 l 264 269 l 197 0 l 69 0 m 289 375 l 544 375 l 467 688 q 432 836 444 776 q 417 914 419 896 q 401 836 414 896 q 367 689 389 776 l 289 375 z "},"ą":{"ha":833,"x_min":93,"x_max":779,"o":"m 350 -14 q 163 52 232 -14 q 93 225 93 118 q 125 349 93 296 q 214 431 157 401 q 344 461 271 461 l 581 461 l 581 521 q 418 669 581 669 q 301 643 346 669 q 254 569 257 617 l 129 569 q 213 719 136 660 q 418 778 290 778 q 631 711 557 778 q 706 525 706 644 l 706 0 l 708 0 q 640 -69 661 -39 q 619 -129 619 -100 q 640 -179 619 -160 q 696 -199 661 -199 l 779 -199 l 779 -282 l 671 -282 q 548 -245 594 -282 q 501 -153 501 -208 q 524 -79 501 -117 q 600 0 546 -42 l 582 0 l 582 139 l 579 139 q 508 27 568 68 q 350 -14 449 -14 m 381 92 q 526 136 472 92 q 581 257 581 181 l 581 364 l 358 364 q 259 327 297 364 q 221 229 221 290 q 263 128 221 165 q 381 92 306 92 z "},"Ć":{"ha":833,"x_min":128,"x_max":725,"o":"m 428 -14 q 208 64 289 -14 q 128 278 128 142 l 128 736 q 208 950 128 872 q 428 1028 289 1028 q 644 949 564 1028 q 725 736 725 871 l 600 736 q 555 869 600 822 q 428 915 510 915 q 299 869 346 915 q 253 736 253 822 l 253 278 q 299 145 253 192 q 428 99 346 99 q 555 145 510 99 q 600 278 600 192 l 725 278 q 644 65 725 143 q 428 -14 564 -14 m 343 1125 l 490 1319 l 625 1319 l 471 1125 l 343 1125 z "},"ć":{"ha":833,"x_min":122,"x_max":726,"o":"m 428 -14 q 206 64 289 -14 q 122 278 122 142 l 122 486 q 206 700 122 622 q 428 778 289 778 q 641 707 560 778 q 726 514 722 636 l 601 514 q 551 627 597 588 q 428 667 506 667 q 297 620 346 667 q 247 488 247 574 l 247 278 q 297 144 247 192 q 428 97 346 97 q 551 138 506 97 q 601 250 597 178 l 726 250 q 641 57 722 128 q 428 -14 560 -14 m 347 896 l 494 1090 l 629 1090 l 475 896 l 347 896 z "},"Ĉ":{"ha":833,"x_min":128,"x_max":725,"o":"m 428 -14 q 208 64 289 -14 q 128 278 128 142 l 128 736 q 208 950 128 872 q 428 1028 289 1028 q 644 949 564 1028 q 725 736 725 871 l 600 736 q 555 869 600 822 q 428 915 510 915 q 299 869 346 915 q 253 736 253 822 l 253 278 q 299 145 253 192 q 428 99 346 99 q 555 145 510 99 q 600 278 600 192 l 725 278 q 644 65 725 143 q 428 -14 564 -14 m 172 1125 l 365 1319 l 481 1319 l 675 1125 l 538 1125 l 424 1233 l 313 1125 l 172 1125 z "},"ĉ":{"ha":833,"x_min":122,"x_max":726,"o":"m 428 -14 q 206 64 289 -14 q 122 278 122 142 l 122 486 q 206 700 122 622 q 428 778 289 778 q 641 707 560 778 q 726 514 722 636 l 601 514 q 551 627 597 588 q 428 667 506 667 q 297 620 346 667 q 247 488 247 574 l 247 278 q 297 144 247 192 q 428 97 346 97 q 551 138 506 97 q 601 250 597 178 l 726 250 q 641 57 722 128 q 428 -14 560 -14 m 176 896 l 369 1090 l 485 1090 l 679 896 l 542 896 l 428 1004 l 317 896 l 176 896 z "},"Ċ":{"ha":833,"x_min":128,"x_max":725,"o":"m 428 -14 q 208 64 289 -14 q 128 278 128 142 l 128 736 q 208 950 128 872 q 428 1028 289 1028 q 644 949 564 1028 q 725 736 725 871 l 600 736 q 555 869 600 822 q 428 915 510 915 q 299 869 346 915 q 253 736 253 822 l 253 278 q 299 145 253 192 q 428 99 346 99 q 555 145 510 99 q 600 278 600 192 l 725 278 q 644 65 725 143 q 428 -14 564 -14 m 424 1133 q 351 1158 378 1133 q 325 1222 325 1182 q 351 1287 325 1263 q 424 1311 378 1311 q 496 1287 469 1311 q 522 1222 522 1263 q 496 1158 522 1182 q 424 1133 469 1133 z "},"ċ":{"ha":833,"x_min":122,"x_max":726,"o":"m 428 -14 q 206 64 289 -14 q 122 278 122 142 l 122 486 q 206 700 122 622 q 428 778 289 778 q 641 707 560 778 q 726 514 722 636 l 601 514 q 551 627 597 588 q 428 667 506 667 q 297 620 346 667 q 247 488 247 574 l 247 278 q 297 144 247 192 q 428 97 346 97 q 551 138 506 97 q 601 250 597 178 l 726 250 q 641 57 722 128 q 428 -14 560 -14 m 428 901 q 356 925 382 901 q 329 989 329 949 q 356 1055 329 1031 q 428 1079 382 1079 q 500 1055 474 1079 q 526 989 526 1031 q 500 925 526 949 q 428 901 474 901 z "},"Č":{"ha":833,"x_min":128,"x_max":725,"o":"m 428 -14 q 208 64 289 -14 q 128 278 128 142 l 128 736 q 208 950 128 872 q 428 1028 289 1028 q 644 949 564 1028 q 725 736 725 871 l 600 736 q 555 869 600 822 q 428 915 510 915 q 299 869 346 915 q 253 736 253 822 l 253 278 q 299 145 253 192 q 428 99 346 99 q 555 145 510 99 q 600 278 600 192 l 725 278 q 644 65 725 143 q 428 -14 564 -14 m 367 1125 l 172 1319 l 310 1319 l 424 1211 l 535 1319 l 675 1319 l 482 1125 l 367 1125 z "},"č":{"ha":833,"x_min":122,"x_max":726,"o":"m 428 -14 q 206 64 289 -14 q 122 278 122 142 l 122 486 q 206 700 122 622 q 428 778 289 778 q 641 707 560 778 q 726 514 722 636 l 601 514 q 551 627 597 588 q 428 667 506 667 q 297 620 346 667 q 247 488 247 574 l 247 278 q 297 144 247 192 q 428 97 346 97 q 551 138 506 97 q 601 250 597 178 l 726 250 q 641 57 722 128 q 428 -14 560 -14 m 371 896 l 176 1090 l 314 1090 l 428 982 l 539 1090 l 679 1090 l 486 896 l 371 896 z "},"Ď":{"ha":833,"x_min":128,"x_max":711,"o":"m 128 0 l 128 1014 l 390 1014 q 560 976 489 1014 q 672 871 632 939 q 711 710 711 803 l 711 306 q 672 144 711 213 q 560 38 632 75 q 390 0 489 0 l 128 0 m 253 111 l 390 111 q 534 163 482 111 q 586 306 586 214 l 586 710 q 534 851 586 800 q 390 903 482 903 l 253 903 l 253 111 m 360 1125 l 165 1319 l 303 1319 l 417 1211 l 528 1319 l 668 1319 l 475 1125 l 360 1125 z "},"ď":{"ha":833,"x_min":88,"x_max":839,"o":"m 317 -14 q 149 61 211 -14 q 88 263 88 136 l 88 500 q 149 703 88 628 q 317 778 211 778 q 445 735 396 778 q 503 618 494 692 l 507 618 l 504 792 l 504 1014 l 629 1014 l 629 0 l 504 0 l 504 146 l 503 146 q 445 29 494 72 q 317 -14 396 -14 m 701 764 l 722 1014 l 839 1014 l 806 764 l 701 764 m 358 94 q 466 141 428 94 q 504 271 504 188 l 504 493 q 466 623 504 576 q 358 669 428 669 q 251 623 290 669 q 213 493 213 576 l 213 271 q 251 141 213 188 q 358 94 290 94 z "},"Đ":{"ha":833,"x_min":14,"x_max":711,"o":"m 128 0 l 128 465 l 14 465 l 14 569 l 128 569 l 128 1014 l 390 1014 q 560 976 489 1014 q 672 871 632 939 q 711 710 711 803 l 711 306 q 672 144 711 213 q 560 38 632 75 q 390 0 489 0 l 128 0 m 253 111 l 390 111 q 534 163 482 111 q 586 306 586 214 l 586 710 q 534 851 586 800 q 390 903 482 903 l 253 903 l 253 569 l 403 569 l 403 465 l 253 465 l 253 111 z "},"đ":{"ha":833,"x_min":125,"x_max":833,"o":"m 372 -14 q 192 63 258 -14 q 125 269 125 139 l 125 410 q 191 618 125 542 q 372 694 257 694 q 513 651 458 694 q 576 535 567 608 l 581 535 l 578 708 l 578 792 l 347 792 l 347 896 l 578 896 l 578 1014 l 703 1014 l 703 896 l 833 896 l 833 792 l 703 792 l 703 0 l 578 0 l 578 146 l 576 146 q 513 28 567 71 q 372 -14 458 -14 m 414 94 q 535 143 492 94 q 578 278 578 192 l 578 403 q 535 538 578 489 q 414 586 492 586 q 292 539 335 586 q 250 403 250 492 l 250 278 q 292 142 250 189 q 414 94 335 94 z "},"Ē":{"ha":833,"x_min":139,"x_max":722,"o":"m 139 0 l 139 1014 l 722 1014 l 722 900 l 263 900 l 263 586 l 674 586 l 674 475 l 263 475 l 263 114 l 722 114 l 722 0 l 139 0 m 208 1167 l 208 1271 l 653 1271 l 653 1167 l 208 1167 z "},"ē":{"ha":833,"x_min":117,"x_max":717,"o":"m 417 -14 q 199 67 282 -14 q 117 292 117 149 l 117 472 q 199 697 117 615 q 417 778 282 778 q 574 742 507 778 q 679 640 642 706 q 717 486 717 575 l 717 350 l 239 350 l 239 278 q 288 144 239 193 q 417 94 336 94 q 531 122 486 94 q 586 194 576 149 l 711 194 q 618 42 699 99 q 417 -14 538 -14 m 239 447 l 594 447 l 594 486 q 548 626 594 576 q 417 675 501 675 q 285 626 332 675 q 239 486 239 576 l 239 447 m 194 931 l 194 1035 l 639 1035 l 639 931 l 194 931 z "},"Ĕ":{"ha":833,"x_min":139,"x_max":722,"o":"m 139 0 l 139 1014 l 722 1014 l 722 900 l 263 900 l 263 586 l 674 586 l 674 475 l 263 475 l 263 114 l 722 114 l 722 0 l 139 0 m 431 1118 q 269 1174 331 1118 q 208 1319 208 1229 l 307 1319 q 340 1232 307 1265 q 429 1199 374 1199 q 520 1232 486 1199 q 554 1319 554 1265 l 653 1319 q 592 1174 653 1229 q 431 1118 531 1118 z "},"ĕ":{"ha":833,"x_min":117,"x_max":717,"o":"m 417 -14 q 199 67 282 -14 q 117 292 117 149 l 117 472 q 199 697 117 615 q 417 778 282 778 q 574 742 507 778 q 679 640 642 706 q 717 486 717 575 l 717 350 l 239 350 l 239 278 q 288 144 239 193 q 417 94 336 94 q 531 122 486 94 q 586 194 576 149 l 711 194 q 618 42 699 99 q 417 -14 538 -14 m 239 447 l 594 447 l 594 486 q 548 626 594 576 q 417 675 501 675 q 285 626 332 675 q 239 486 239 576 l 239 447 m 417 889 q 256 944 317 889 q 194 1090 194 1000 l 293 1090 q 326 1003 293 1036 q 415 969 360 969 q 506 1003 472 969 q 540 1090 540 1036 l 639 1090 q 578 944 639 1000 q 417 889 517 889 z "},"Ė":{"ha":833,"x_min":139,"x_max":722,"o":"m 139 0 l 139 1014 l 722 1014 l 722 900 l 263 900 l 263 586 l 674 586 l 674 475 l 263 475 l 263 114 l 722 114 l 722 0 l 139 0 m 431 1133 q 358 1158 385 1133 q 332 1222 332 1182 q 358 1287 332 1263 q 431 1311 385 1311 q 503 1287 476 1311 q 529 1222 529 1263 q 503 1158 529 1182 q 431 1133 476 1133 z "},"ė":{"ha":833,"x_min":117,"x_max":717,"o":"m 417 -14 q 199 67 282 -14 q 117 292 117 149 l 117 472 q 199 697 117 615 q 417 778 282 778 q 574 742 507 778 q 679 640 642 706 q 717 486 717 575 l 717 350 l 239 350 l 239 278 q 288 144 239 193 q 417 94 336 94 q 531 122 486 94 q 586 194 576 149 l 711 194 q 618 42 699 99 q 417 -14 538 -14 m 239 447 l 594 447 l 594 486 q 548 626 594 576 q 417 675 501 675 q 285 626 332 675 q 239 486 239 576 l 239 447 m 417 901 q 344 925 371 901 q 318 989 318 949 q 344 1055 318 1031 q 417 1079 371 1079 q 489 1055 463 1079 q 515 989 515 1031 q 489 925 515 949 q 417 901 463 901 z "},"Ę":{"ha":833,"x_min":139,"x_max":729,"o":"m 139 0 l 139 1014 l 722 1014 l 722 900 l 263 900 l 263 586 l 674 586 l 674 475 l 263 475 l 263 114 l 722 114 l 722 0 l 657 0 q 590 -69 611 -37 q 569 -129 569 -100 q 590 -179 569 -160 q 646 -199 611 -199 l 729 -199 l 729 -282 l 621 -282 q 498 -245 544 -282 q 451 -153 451 -208 q 474 -79 451 -117 q 550 0 496 -42 l 139 0 z "},"ę":{"ha":833,"x_min":122,"x_max":711,"o":"m 518 -282 q 395 -245 442 -282 q 349 -153 349 -208 q 431 -14 349 -87 l 417 -14 q 202 66 282 -14 q 122 278 122 146 l 122 486 q 202 698 122 618 q 417 778 282 778 q 632 698 553 778 q 711 486 711 618 l 711 351 l 244 351 l 244 278 q 288 140 244 188 q 417 92 332 92 q 583 194 563 92 l 708 194 q 667 90 701 135 q 578 19 632 46 l 556 1 q 488 -69 508 -37 q 467 -129 467 -100 q 488 -179 467 -160 q 543 -199 508 -199 l 626 -199 l 626 -282 l 518 -282 m 244 446 l 589 446 l 589 486 q 546 625 589 576 q 417 674 503 674 q 288 625 332 674 q 244 486 244 576 l 244 446 z "},"Ě":{"ha":833,"x_min":139,"x_max":722,"o":"m 139 0 l 139 1014 l 722 1014 l 722 900 l 263 900 l 263 586 l 674 586 l 674 475 l 263 475 l 263 114 l 722 114 l 722 0 l 139 0 m 374 1125 l 179 1319 l 317 1319 l 431 1211 l 542 1319 l 682 1319 l 489 1125 l 374 1125 z "},"ě":{"ha":833,"x_min":117,"x_max":717,"o":"m 417 -14 q 199 67 282 -14 q 117 292 117 149 l 117 472 q 199 697 117 615 q 417 778 282 778 q 574 742 507 778 q 679 640 642 706 q 717 486 717 575 l 717 350 l 239 350 l 239 278 q 288 144 239 193 q 417 94 336 94 q 531 122 486 94 q 586 194 576 149 l 711 194 q 618 42 699 99 q 417 -14 538 -14 m 239 447 l 594 447 l 594 486 q 548 626 594 576 q 417 675 501 675 q 285 626 332 675 q 239 486 239 576 l 239 447 m 360 896 l 165 1090 l 303 1090 l 417 982 l 528 1090 l 668 1090 l 475 896 l 360 896 z "},"Ĝ":{"ha":833,"x_min":122,"x_max":719,"o":"m 422 -14 q 203 64 283 -14 q 122 278 122 142 l 122 736 q 203 950 122 872 q 422 1028 283 1028 q 639 949 558 1028 q 719 736 719 871 l 594 736 q 549 869 594 822 q 422 915 504 915 q 294 869 340 915 q 247 738 247 824 l 247 278 q 294 144 247 192 q 422 97 340 97 q 549 144 504 97 q 594 278 594 192 l 594 417 l 389 417 l 389 531 l 719 531 l 719 278 q 639 65 719 143 q 422 -14 558 -14 m 165 1125 l 358 1319 l 474 1319 l 668 1125 l 531 1125 l 417 1233 l 306 1125 l 165 1125 z "},"ĝ":{"ha":833,"x_min":122,"x_max":704,"o":"m 224 -250 l 224 -136 l 439 -136 q 542 -99 504 -136 q 579 0 579 -62 l 579 69 l 582 194 l 578 194 q 513 90 567 126 q 376 53 458 53 q 190 128 258 53 q 122 333 122 203 l 122 494 q 190 701 122 625 q 376 778 258 778 q 513 739 458 778 q 578 632 567 700 l 581 632 l 581 764 l 704 764 l 704 0 q 633 -183 704 -115 q 438 -250 561 -250 l 224 -250 m 414 157 q 536 206 492 157 q 581 340 581 254 l 581 486 q 536 621 581 572 q 414 669 492 669 q 291 624 335 669 q 247 500 247 578 l 247 326 q 291 203 247 249 q 414 157 335 157 m 161 896 l 354 1090 l 469 1090 l 664 896 l 526 896 l 413 1004 l 301 896 l 161 896 z "},"Ğ":{"ha":833,"x_min":122,"x_max":719,"o":"m 422 -14 q 203 64 283 -14 q 122 278 122 142 l 122 736 q 203 950 122 872 q 422 1028 283 1028 q 639 949 558 1028 q 719 736 719 871 l 594 736 q 549 869 594 822 q 422 915 504 915 q 294 869 340 915 q 247 738 247 824 l 247 278 q 294 144 247 192 q 422 97 340 97 q 549 144 504 97 q 594 278 594 192 l 594 417 l 389 417 l 389 531 l 719 531 l 719 278 q 639 65 719 143 q 422 -14 558 -14 m 417 1118 q 256 1174 317 1118 q 194 1319 194 1229 l 293 1319 q 326 1232 293 1265 q 415 1199 360 1199 q 506 1232 472 1199 q 540 1319 540 1265 l 639 1319 q 578 1174 639 1229 q 417 1118 517 1118 z "},"ğ":{"ha":833,"x_min":122,"x_max":704,"o":"m 224 -250 l 224 -136 l 439 -136 q 542 -99 504 -136 q 579 0 579 -62 l 579 69 l 582 194 l 578 194 q 513 90 567 126 q 376 53 458 53 q 190 128 258 53 q 122 333 122 203 l 122 494 q 190 701 122 625 q 376 778 258 778 q 513 739 458 778 q 578 632 567 700 l 581 632 l 581 764 l 704 764 l 704 0 q 633 -183 704 -115 q 438 -250 561 -250 l 224 -250 m 414 157 q 536 206 492 157 q 581 340 581 254 l 581 486 q 536 621 581 572 q 414 669 492 669 q 291 624 335 669 q 247 500 247 578 l 247 326 q 291 203 247 249 q 414 157 335 157 m 413 889 q 251 944 313 889 q 190 1090 190 1000 l 289 1090 q 322 1003 289 1036 q 411 969 356 969 q 502 1003 468 969 q 536 1090 536 1036 l 635 1090 q 574 944 635 1000 q 413 889 513 889 z "},"Ġ":{"ha":833,"x_min":122,"x_max":719,"o":"m 422 -14 q 203 64 283 -14 q 122 278 122 142 l 122 736 q 203 950 122 872 q 422 1028 283 1028 q 639 949 558 1028 q 719 736 719 871 l 594 736 q 549 869 594 822 q 422 915 504 915 q 294 869 340 915 q 247 738 247 824 l 247 278 q 294 144 247 192 q 422 97 340 97 q 549 144 504 97 q 594 278 594 192 l 594 417 l 389 417 l 389 531 l 719 531 l 719 278 q 639 65 719 143 q 422 -14 558 -14 m 417 1133 q 344 1158 371 1133 q 318 1222 318 1182 q 344 1287 318 1263 q 417 1311 371 1311 q 489 1287 463 1311 q 515 1222 515 1263 q 489 1158 515 1182 q 417 1133 463 1133 z "},"ġ":{"ha":833,"x_min":122,"x_max":704,"o":"m 224 -250 l 224 -136 l 439 -136 q 542 -99 504 -136 q 579 0 579 -62 l 579 69 l 582 194 l 578 194 q 513 90 567 126 q 376 53 458 53 q 190 128 258 53 q 122 333 122 203 l 122 494 q 190 701 122 625 q 376 778 258 778 q 513 739 458 778 q 578 632 567 700 l 581 632 l 581 764 l 704 764 l 704 0 q 633 -183 704 -115 q 438 -250 561 -250 l 224 -250 m 414 157 q 536 206 492 157 q 581 340 581 254 l 581 486 q 536 621 581 572 q 414 669 492 669 q 291 624 335 669 q 247 500 247 578 l 247 326 q 291 203 247 249 q 414 157 335 157 m 413 901 q 340 925 367 901 q 314 989 314 949 q 340 1055 314 1031 q 413 1079 367 1079 q 485 1055 458 1079 q 511 989 511 1031 q 485 925 511 949 q 413 901 458 901 z "},"Ģ":{"ha":833,"x_min":122,"x_max":719,"o":"m 422 -14 q 203 64 283 -14 q 122 278 122 142 l 122 736 q 203 950 122 872 q 422 1028 283 1028 q 639 949 558 1028 q 719 736 719 871 l 594 736 q 549 869 594 822 q 422 915 504 915 q 294 869 340 915 q 247 738 247 824 l 247 278 q 294 144 247 192 q 422 97 340 97 q 549 144 504 97 q 594 278 594 192 l 594 417 l 389 417 l 389 531 l 719 531 l 719 278 q 639 65 719 143 q 422 -14 558 -14 m 269 -333 l 401 -132 l 547 -132 l 401 -333 l 269 -333 z "},"ģ":{"ha":833,"x_min":122,"x_max":704,"o":"m 224 -250 l 224 -136 l 439 -136 q 542 -99 504 -136 q 579 0 579 -62 l 579 69 l 582 194 l 578 194 q 513 90 567 126 q 376 53 458 53 q 190 128 258 53 q 122 333 122 203 l 122 494 q 190 701 122 625 q 376 778 258 778 q 513 739 458 778 q 578 632 567 700 l 581 632 l 581 764 l 704 764 l 704 0 q 633 -183 704 -115 q 438 -250 561 -250 l 224 -250 m 414 157 q 536 206 492 157 q 581 340 581 254 l 581 486 q 536 621 581 572 q 414 669 492 669 q 291 624 335 669 q 247 500 247 578 l 247 326 q 291 203 247 249 q 414 157 335 157 m 572 1222 l 461 896 l 288 896 l 468 1222 l 572 1222 z "},"Ĥ":{"ha":833,"x_min":129,"x_max":704,"o":"m 129 0 l 129 1014 l 254 1014 l 254 581 l 579 581 l 579 1014 l 704 1014 l 704 0 l 579 0 l 579 467 l 254 467 l 254 0 l 129 0 m 165 1125 l 358 1319 l 474 1319 l 668 1125 l 531 1125 l 417 1233 l 306 1125 l 165 1125 z "},"ĥ":{"ha":833,"x_min":-61,"x_max":708,"o":"m 128 0 l 128 1014 l 253 1014 l 253 618 l 254 618 q 317 736 264 694 q 457 778 369 778 q 640 707 572 778 q 708 514 708 636 l 708 0 l 583 0 l 583 493 q 540 626 583 579 q 421 672 496 672 q 298 624 343 672 q 253 486 253 575 l 253 0 l 128 0 m -61 1146 l 132 1340 l 247 1340 l 442 1146 l 304 1146 l 190 1254 l 79 1146 l -61 1146 z "},"Ħ":{"ha":833,"x_min":14,"x_max":819,"o":"m 129 0 l 129 729 l 14 729 l 14 833 l 129 833 l 129 1014 l 254 1014 l 254 833 l 579 833 l 579 1014 l 704 1014 l 704 833 l 819 833 l 819 729 l 704 729 l 704 0 l 579 0 l 579 467 l 254 467 l 254 0 l 129 0 m 254 581 l 579 581 l 579 729 l 254 729 l 254 581 z "},"ħ":{"ha":833,"x_min":0,"x_max":708,"o":"m 0 792 l 0 896 l 128 896 l 128 1014 l 253 1014 l 253 896 l 486 896 l 486 792 l 253 792 l 253 535 l 254 535 q 317 653 264 611 q 457 694 369 694 q 640 624 572 694 q 708 431 708 553 l 708 0 l 583 0 l 583 417 q 540 544 583 499 q 421 589 496 589 q 298 540 343 589 q 253 403 253 492 l 253 0 l 128 0 l 128 792 l 0 792 z "},"Ĩ":{"ha":833,"x_min":146,"x_max":688,"o":"m 146 0 l 146 114 l 353 114 l 353 900 l 146 900 l 146 1014 l 688 1014 l 688 900 l 481 900 l 481 114 l 688 114 l 688 0 l 146 0 m 514 1132 q 446 1147 472 1132 q 401 1181 419 1161 q 367 1215 383 1200 q 326 1229 350 1229 q 285 1181 285 1229 l 285 1139 l 194 1139 l 194 1181 q 229 1278 194 1243 q 319 1313 264 1313 q 388 1298 361 1313 q 432 1264 414 1283 q 467 1230 450 1244 q 507 1215 483 1215 q 549 1264 549 1215 l 549 1306 l 639 1306 l 639 1264 q 605 1167 639 1201 q 514 1132 571 1132 z "},"ĩ":{"ha":833,"x_min":118,"x_max":771,"o":"m 118 0 l 118 114 l 389 114 l 389 650 l 146 650 l 146 764 l 514 764 l 514 114 l 771 114 l 771 0 l 118 0 m 535 903 q 467 917 493 903 q 422 951 440 932 q 388 985 404 971 q 347 1000 371 1000 q 306 951 306 1000 l 306 910 l 215 910 l 215 951 q 250 1049 215 1014 q 340 1083 285 1083 q 408 1069 382 1083 q 453 1035 435 1054 q 488 1001 471 1015 q 528 986 504 986 q 569 1035 569 986 l 569 1076 l 660 1076 l 660 1035 q 626 938 660 972 q 535 903 592 903 z "},"Ī":{"ha":833,"x_min":146,"x_max":688,"o":"m 146 0 l 146 114 l 353 114 l 353 900 l 146 900 l 146 1014 l 688 1014 l 688 900 l 481 900 l 481 114 l 688 114 l 688 0 l 146 0 m 194 1167 l 194 1271 l 639 1271 l 639 1167 l 194 1167 z "},"ī":{"ha":833,"x_min":118,"x_max":771,"o":"m 118 0 l 118 114 l 389 114 l 389 650 l 146 650 l 146 764 l 514 764 l 514 114 l 771 114 l 771 0 l 118 0 m 215 931 l 215 1035 l 660 1035 l 660 931 l 215 931 z "},"Ĭ":{"ha":833,"x_min":146,"x_max":688,"o":"m 146 0 l 146 114 l 353 114 l 353 900 l 146 900 l 146 1014 l 688 1014 l 688 900 l 481 900 l 481 114 l 688 114 l 688 0 l 146 0 m 417 1118 q 256 1174 317 1118 q 194 1319 194 1229 l 293 1319 q 326 1232 293 1265 q 415 1199 360 1199 q 506 1232 472 1199 q 540 1319 540 1265 l 639 1319 q 578 1174 639 1229 q 417 1118 517 1118 z "},"ĭ":{"ha":833,"x_min":118,"x_max":771,"o":"m 118 0 l 118 114 l 389 114 l 389 650 l 146 650 l 146 764 l 514 764 l 514 114 l 771 114 l 771 0 l 118 0 m 438 889 q 276 944 338 889 q 215 1090 215 1000 l 314 1090 q 347 1003 314 1036 q 436 969 381 969 q 527 1003 493 969 q 561 1090 561 1036 l 660 1090 q 599 944 660 1000 q 438 889 538 889 z "},"Į":{"ha":833,"x_min":146,"x_max":688,"o":"m 146 0 l 146 114 l 353 114 l 353 900 l 146 900 l 146 1014 l 688 1014 l 688 900 l 481 900 l 481 114 l 688 114 l 688 0 l 463 0 q 396 -69 417 -37 q 375 -129 375 -100 q 396 -179 375 -160 q 451 -199 417 -199 l 535 -199 l 535 -282 l 426 -282 q 303 -245 350 -282 q 257 -153 257 -208 q 279 -79 257 -117 q 356 0 301 -42 l 146 0 z "},"į":{"ha":833,"x_min":118,"x_max":771,"o":"m 438 901 q 365 925 392 901 q 339 989 339 949 q 365 1055 339 1031 q 438 1079 392 1079 q 510 1055 483 1079 q 536 989 536 1031 q 510 925 536 949 q 438 901 483 901 m 118 0 l 118 114 l 389 114 l 389 650 l 146 650 l 146 764 l 514 764 l 514 114 l 771 114 l 771 0 l 483 0 q 417 -69 438 -37 q 396 -129 396 -100 q 417 -179 396 -160 q 472 -199 438 -199 l 556 -199 l 556 -282 l 447 -282 q 324 -245 371 -282 q 278 -153 278 -208 q 300 -79 278 -117 q 376 0 322 -42 l 118 0 z "},"İ":{"ha":833,"x_min":146,"x_max":688,"o":"m 146 0 l 146 114 l 353 114 l 353 900 l 146 900 l 146 1014 l 688 1014 l 688 900 l 481 900 l 481 114 l 688 114 l 688 0 l 146 0 m 417 1133 q 344 1158 371 1133 q 318 1222 318 1182 q 344 1287 318 1263 q 417 1311 371 1311 q 489 1287 463 1311 q 515 1222 515 1263 q 489 1158 515 1182 q 417 1133 463 1133 z "},"ı":{"ha":833,"x_min":118,"x_max":771,"o":"m 118 0 l 118 114 l 389 114 l 389 650 l 146 650 l 146 764 l 514 764 l 514 114 l 771 114 l 771 0 l 118 0 z "},"Ĵ":{"ha":833,"x_min":63,"x_max":876,"o":"m 375 -14 q 146 68 229 -14 q 63 292 63 150 l 188 292 q 237 148 188 199 q 375 97 286 97 q 513 148 464 97 q 563 292 563 199 l 563 1014 l 688 1014 l 688 292 q 603 68 688 150 q 375 -14 519 -14 m 374 1125 l 567 1319 l 682 1319 l 876 1125 l 739 1125 l 625 1233 l 514 1125 l 374 1125 z "},"ĵ":{"ha":833,"x_min":118,"x_max":779,"o":"m 125 -250 l 125 -136 l 297 -136 q 431 -89 383 -136 q 479 43 479 -42 l 479 650 l 118 650 l 118 764 l 604 764 l 604 43 q 521 -171 604 -92 q 297 -250 438 -250 l 125 -250 m 276 896 l 469 1090 l 585 1090 l 779 896 l 642 896 l 528 1004 l 417 896 l 276 896 z "},"Ķ":{"ha":833,"x_min":128,"x_max":778,"o":"m 128 0 l 128 1014 l 253 1014 l 253 578 l 403 578 l 628 1014 l 764 1014 l 513 525 l 778 0 l 635 0 l 399 468 l 253 468 l 253 0 l 128 0 m 264 -333 l 396 -132 l 542 -132 l 396 -333 l 264 -333 z "},"ķ":{"ha":833,"x_min":135,"x_max":776,"o":"m 135 0 l 135 1014 l 260 1014 l 260 449 l 406 449 l 619 764 l 763 764 l 517 400 l 776 0 l 631 0 l 408 340 l 260 340 l 260 0 l 135 0 m 264 -333 l 396 -132 l 542 -132 l 396 -333 l 264 -333 z "},"ĸ":{"ha":833,"x_min":143,"x_max":785,"o":"m 143 0 l 143 764 l 268 764 l 268 449 l 417 449 l 628 764 l 771 764 l 524 397 l 785 0 l 639 0 l 418 335 l 268 335 l 268 0 l 143 0 z "},"Ĺ":{"ha":833,"x_min":163,"x_max":764,"o":"m 181 0 l 181 1014 l 306 1014 l 306 114 l 764 114 l 764 0 l 181 0 m 163 1125 l 310 1319 l 444 1319 l 290 1125 l 163 1125 z "},"ĺ":{"ha":833,"x_min":42,"x_max":764,"o":"m 528 0 q 366 59 426 0 q 306 215 306 118 l 306 900 l 42 900 l 42 1014 l 431 1014 l 431 215 q 457 141 431 168 q 528 114 483 114 l 764 114 l 764 0 l 528 0 m 253 1125 l 400 1319 l 535 1319 l 381 1125 l 253 1125 z "},"Ļ":{"ha":833,"x_min":181,"x_max":764,"o":"m 181 0 l 181 1014 l 306 1014 l 306 114 l 764 114 l 764 0 l 181 0 m 319 -333 l 451 -132 l 597 -132 l 451 -333 l 319 -333 z "},"ļ":{"ha":833,"x_min":42,"x_max":764,"o":"m 528 0 q 366 59 426 0 q 306 215 306 118 l 306 900 l 42 900 l 42 1014 l 431 1014 l 431 215 q 457 141 431 168 q 528 114 483 114 l 764 114 l 764 0 l 528 0 m 292 -333 l 424 -132 l 569 -132 l 424 -333 l 292 -333 z "},"Ľ":{"ha":833,"x_min":181,"x_max":764,"o":"m 181 0 l 181 1014 l 306 1014 l 306 114 l 764 114 l 764 0 l 181 0 m 479 764 l 500 1014 l 617 1014 l 583 764 l 479 764 z "},"ľ":{"ha":833,"x_min":42,"x_max":764,"o":"m 528 0 q 366 59 426 0 q 306 215 306 118 l 306 900 l 42 900 l 42 1014 l 431 1014 l 431 215 q 457 141 431 168 q 528 114 483 114 l 764 114 l 764 0 l 528 0 m 569 764 l 590 1014 l 707 1014 l 674 764 l 569 764 z "},"Ŀ":{"ha":833,"x_min":181,"x_max":764,"o":"m 181 0 l 181 1014 l 306 1014 l 306 114 l 764 114 l 764 0 l 181 0 m 646 368 q 563 399 594 368 q 532 478 532 429 q 563 561 532 529 q 646 593 594 593 q 728 561 697 593 q 760 478 760 529 q 728 399 760 429 q 646 368 697 368 z "},"ŀ":{"ha":833,"x_min":14,"x_max":874,"o":"m 500 0 q 338 59 399 0 q 278 215 278 118 l 278 900 l 14 900 l 14 1014 l 403 1014 l 403 215 q 429 141 403 168 q 500 114 456 114 l 736 114 l 736 0 l 500 0 m 760 368 q 677 399 708 368 q 646 478 646 429 q 677 561 646 529 q 760 593 708 593 q 842 561 811 593 q 874 478 874 529 q 842 399 874 429 q 760 368 811 368 z "},"Ł":{"ha":833,"x_min":28,"x_max":764,"o":"m 181 0 l 181 422 l 28 319 l 28 431 l 181 533 l 181 1014 l 306 1014 l 306 618 l 542 778 l 542 667 l 306 507 l 306 114 l 764 114 l 764 0 l 181 0 z "},"ł":{"ha":833,"x_min":42,"x_max":764,"o":"m 139 319 l 139 431 l 306 543 l 306 900 l 42 900 l 42 1014 l 431 1014 l 431 628 l 653 778 l 653 667 l 431 517 l 431 215 q 457 141 431 168 q 528 114 483 114 l 764 114 l 764 0 l 528 0 q 366 59 426 0 q 306 215 306 118 l 306 432 l 139 319 z "},"Ń":{"ha":833,"x_min":125,"x_max":708,"o":"m 125 0 l 125 1014 l 292 1014 l 601 146 q 595 231 599 181 q 590 338 592 282 q 588 444 588 394 l 588 1014 l 708 1014 l 708 0 l 542 0 l 233 868 q 239 784 236 835 q 244 677 242 733 q 246 569 246 621 l 246 0 l 125 0 m 336 1125 l 483 1319 l 618 1319 l 464 1125 l 336 1125 z "},"ń":{"ha":833,"x_min":128,"x_max":708,"o":"m 128 0 l 128 764 l 253 764 l 253 618 l 254 618 q 317 736 264 694 q 457 778 369 778 q 640 707 572 778 q 708 514 708 636 l 708 0 l 583 0 l 583 492 q 540 626 583 579 q 421 672 496 672 q 298 624 343 672 q 253 486 253 575 l 253 0 l 128 0 m 343 896 l 490 1090 l 625 1090 l 471 896 l 343 896 z "},"Ņ":{"ha":833,"x_min":125,"x_max":708,"o":"m 125 0 l 125 1014 l 292 1014 l 601 146 q 595 231 599 181 q 590 338 592 282 q 588 444 588 394 l 588 1014 l 708 1014 l 708 0 l 542 0 l 233 868 q 239 784 236 835 q 244 677 242 733 q 246 569 246 621 l 246 0 l 125 0 m 264 -333 l 396 -132 l 542 -132 l 396 -333 l 264 -333 z "},"ņ":{"ha":833,"x_min":128,"x_max":708,"o":"m 128 0 l 128 764 l 253 764 l 253 618 l 254 618 q 317 736 264 694 q 457 778 369 778 q 640 707 572 778 q 708 514 708 636 l 708 0 l 583 0 l 583 492 q 540 626 583 579 q 421 672 496 672 q 298 624 343 672 q 253 486 253 575 l 253 0 l 128 0 m 264 -333 l 396 -132 l 542 -132 l 396 -333 l 264 -333 z "},"Ň":{"ha":833,"x_min":125,"x_max":708,"o":"m 125 0 l 125 1014 l 292 1014 l 601 146 q 595 231 599 181 q 590 338 592 282 q 588 444 588 394 l 588 1014 l 708 1014 l 708 0 l 542 0 l 233 868 q 239 784 236 835 q 244 677 242 733 q 246 569 246 621 l 246 0 l 125 0 m 360 1125 l 165 1319 l 303 1319 l 417 1211 l 528 1319 l 668 1319 l 475 1125 l 360 1125 z "},"ň":{"ha":833,"x_min":128,"x_max":708,"o":"m 128 0 l 128 764 l 253 764 l 253 618 l 254 618 q 317 736 264 694 q 457 778 369 778 q 640 707 572 778 q 708 514 708 636 l 708 0 l 583 0 l 583 492 q 540 626 583 579 q 421 672 496 672 q 298 624 343 672 q 253 486 253 575 l 253 0 l 128 0 m 367 896 l 172 1090 l 310 1090 l 424 982 l 535 1090 l 675 1090 l 482 896 l 367 896 z "},"ŉ":{"ha":833,"x_min":-14,"x_max":708,"o":"m 128 0 l 128 764 l 253 764 l 253 618 l 254 618 q 317 736 264 694 q 457 778 369 778 q 640 707 572 778 q 708 514 708 636 l 708 0 l 583 0 l 583 492 q 540 626 583 579 q 421 672 496 672 q 298 624 343 672 q 253 486 253 575 l 253 0 l 128 0 m -14 896 l 118 1097 l 264 1097 l 118 896 l -14 896 z "},"Ŋ":{"ha":833,"x_min":125,"x_max":708,"o":"m 333 -250 l 333 -136 l 424 -136 q 540 -94 497 -136 q 583 21 583 -51 l 233 868 q 239 784 236 835 q 244 677 242 733 q 246 569 246 621 l 246 0 l 125 0 l 125 1014 l 292 1014 l 601 251 q 595 337 599 286 q 590 444 592 388 q 588 551 588 501 l 588 1014 l 708 1014 l 708 21 q 631 -176 708 -101 q 424 -250 553 -250 l 333 -250 z "},"ŋ":{"ha":833,"x_min":131,"x_max":706,"o":"m 333 -250 l 333 -136 l 421 -136 q 538 -94 494 -136 q 581 21 581 -51 l 581 500 q 538 627 581 582 q 421 672 496 672 q 299 624 343 672 q 256 486 256 575 l 256 0 l 131 0 l 131 764 l 256 764 l 256 618 l 257 618 q 317 736 265 694 q 457 778 369 778 q 639 707 572 778 q 706 514 706 636 l 706 21 q 628 -176 706 -101 q 421 -250 550 -250 l 333 -250 z "},"Ō":{"ha":833,"x_min":122,"x_max":711,"o":"m 417 -14 q 201 65 281 -14 q 122 292 122 144 l 122 722 q 201 949 122 869 q 417 1028 281 1028 q 632 949 553 1028 q 711 724 711 869 l 711 292 q 632 65 711 144 q 417 -14 553 -14 m 417 99 q 542 145 499 99 q 586 278 586 192 l 586 736 q 542 869 586 822 q 417 915 499 915 q 292 869 336 915 q 247 736 247 822 l 247 278 q 292 145 247 192 q 417 99 336 99 m 194 1167 l 194 1271 l 639 1271 l 639 1167 l 194 1167 z "},"ō":{"ha":833,"x_min":117,"x_max":717,"o":"m 417 -11 q 198 69 279 -11 q 117 294 117 150 l 117 469 q 197 695 117 615 q 417 775 278 775 q 636 695 556 775 q 717 469 717 615 l 717 294 q 635 69 717 150 q 417 -11 554 -11 m 417 100 q 545 146 499 100 q 592 281 592 192 l 592 483 q 545 618 592 572 q 417 664 499 664 q 289 618 336 664 q 242 483 242 572 l 242 281 q 289 146 242 192 q 417 100 336 100 m 194 931 l 194 1035 l 639 1035 l 639 931 l 194 931 z "},"Ŏ":{"ha":833,"x_min":122,"x_max":711,"o":"m 417 -14 q 201 65 281 -14 q 122 292 122 144 l 122 722 q 201 949 122 869 q 417 1028 281 1028 q 632 949 553 1028 q 711 724 711 869 l 711 292 q 632 65 711 144 q 417 -14 553 -14 m 417 99 q 542 145 499 99 q 586 278 586 192 l 586 736 q 542 869 586 822 q 417 915 499 915 q 292 869 336 915 q 247 736 247 822 l 247 278 q 292 145 247 192 q 417 99 336 99 m 417 1118 q 256 1174 317 1118 q 194 1319 194 1229 l 293 1319 q 326 1232 293 1265 q 415 1199 360 1199 q 506 1232 472 1199 q 540 1319 540 1265 l 639 1319 q 578 1174 639 1229 q 417 1118 517 1118 z "},"ŏ":{"ha":833,"x_min":117,"x_max":717,"o":"m 417 -11 q 198 69 279 -11 q 117 294 117 150 l 117 469 q 197 695 117 615 q 417 775 278 775 q 636 695 556 775 q 717 469 717 615 l 717 294 q 635 69 717 150 q 417 -11 554 -11 m 417 100 q 545 146 499 100 q 592 281 592 192 l 592 483 q 545 618 592 572 q 417 664 499 664 q 289 618 336 664 q 242 483 242 572 l 242 281 q 289 146 242 192 q 417 100 336 100 m 417 889 q 256 944 317 889 q 194 1090 194 1000 l 293 1090 q 326 1003 293 1036 q 415 969 360 969 q 506 1003 472 969 q 540 1090 540 1036 l 639 1090 q 578 944 639 1000 q 417 889 517 889 z "},"Ő":{"ha":833,"x_min":122,"x_max":733,"o":"m 417 -14 q 201 65 281 -14 q 122 292 122 144 l 122 722 q 201 949 122 869 q 417 1028 281 1028 q 632 949 553 1028 q 711 724 711 869 l 711 292 q 632 65 711 144 q 417 -14 553 -14 m 417 99 q 542 145 499 99 q 586 278 586 192 l 586 736 q 542 869 586 822 q 417 915 499 915 q 292 869 336 915 q 247 736 247 822 l 247 278 q 292 145 247 192 q 417 99 336 99 m 453 1125 l 606 1319 l 733 1319 l 574 1125 l 453 1125 m 204 1125 l 357 1319 l 485 1319 l 325 1125 l 204 1125 z "},"ő":{"ha":833,"x_min":117,"x_max":733,"o":"m 417 -11 q 198 69 279 -11 q 117 294 117 150 l 117 469 q 197 695 117 615 q 417 775 278 775 q 636 695 556 775 q 717 469 717 615 l 717 294 q 635 69 717 150 q 417 -11 554 -11 m 417 100 q 545 146 499 100 q 592 281 592 192 l 592 483 q 545 618 592 572 q 417 664 499 664 q 289 618 336 664 q 242 483 242 572 l 242 281 q 289 146 242 192 q 417 100 336 100 m 453 896 l 606 1090 l 733 1090 l 574 896 l 453 896 m 204 896 l 357 1090 l 485 1090 l 325 896 l 204 896 z "},"Œ":{"ha":833,"x_min":56,"x_max":799,"o":"m 271 -14 q 113 57 171 -14 q 56 250 56 128 l 56 764 q 113 957 56 886 q 271 1028 171 1028 q 351 1008 319 1028 q 401 959 383 988 q 424 903 419 931 l 431 903 l 431 1014 l 799 1014 l 799 900 l 553 900 l 553 581 l 764 581 l 764 467 l 553 467 l 553 114 l 799 114 l 799 0 l 431 0 l 431 111 l 424 111 q 401 56 419 85 q 351 6 383 26 q 271 -14 319 -14 m 306 97 q 397 138 364 97 q 431 250 431 179 l 431 764 q 397 876 431 835 q 306 917 364 917 q 214 876 247 917 q 181 764 181 835 l 181 250 q 214 138 181 179 q 306 97 247 97 z "},"œ":{"ha":833,"x_min":49,"x_max":785,"o":"m 250 -14 q 103 47 157 -14 q 49 208 49 107 l 49 556 q 103 718 49 658 q 250 778 157 778 q 341 760 306 778 q 394 716 376 742 q 414 667 413 690 l 419 667 q 440 716 422 690 q 492 760 457 742 q 583 778 528 778 q 731 718 676 778 q 785 556 785 658 l 785 347 l 476 347 l 476 208 q 501 124 476 156 q 569 93 526 93 q 631 115 606 93 q 663 174 657 138 l 781 174 q 714 37 767 88 q 583 -14 661 -14 q 492 4 528 -14 q 440 48 457 22 q 419 97 422 74 l 414 97 q 394 48 413 74 q 341 4 376 22 q 250 -14 306 -14 m 264 93 q 332 124 307 93 q 357 208 357 156 l 357 556 q 332 640 357 608 q 264 671 307 671 q 193 640 219 671 q 167 556 167 608 l 167 208 q 193 124 167 156 q 264 93 219 93 m 476 449 l 667 449 l 667 556 q 640 640 667 608 q 569 671 614 671 q 501 640 526 671 q 476 556 476 608 l 476 449 z "},"Ŕ":{"ha":833,"x_min":129,"x_max":757,"o":"m 129 0 l 129 1014 l 442 1014 q 600 977 532 1014 q 706 875 668 940 q 743 722 743 810 q 690 546 743 619 q 550 443 638 472 l 757 0 l 619 0 l 421 431 l 253 431 l 253 0 l 129 0 m 253 543 l 442 543 q 567 592 519 543 q 614 722 614 642 q 567 853 614 804 q 442 901 519 901 l 253 901 l 253 543 m 336 1125 l 483 1319 l 618 1319 l 464 1125 l 336 1125 z "},"ŕ":{"ha":833,"x_min":156,"x_max":736,"o":"m 156 0 l 156 764 l 281 764 l 281 618 l 283 618 q 346 735 293 692 q 488 778 399 778 q 672 706 607 778 q 736 503 736 635 l 736 438 l 611 438 l 611 503 q 449 669 611 669 q 324 622 367 669 q 281 486 281 575 l 281 0 l 156 0 m 364 896 l 511 1090 l 646 1090 l 492 896 l 364 896 z "},"Ŗ":{"ha":833,"x_min":129,"x_max":757,"o":"m 129 0 l 129 1014 l 442 1014 q 600 977 532 1014 q 706 875 668 940 q 743 722 743 810 q 690 546 743 619 q 550 443 638 472 l 757 0 l 619 0 l 421 431 l 253 431 l 253 0 l 129 0 m 253 543 l 442 543 q 567 592 519 543 q 614 722 614 642 q 567 853 614 804 q 442 901 519 901 l 253 901 l 253 543 m 264 -333 l 396 -132 l 542 -132 l 396 -333 l 264 -333 z "},"ŗ":{"ha":833,"x_min":49,"x_max":736,"o":"m 156 0 l 156 764 l 281 764 l 281 618 l 283 618 q 346 735 293 692 q 488 778 399 778 q 672 706 607 778 q 736 503 736 635 l 736 438 l 611 438 l 611 503 q 449 669 611 669 q 324 622 367 669 q 281 486 281 575 l 281 0 l 156 0 m 49 -333 l 181 -132 l 326 -132 l 181 -333 l 49 -333 z "},"Ř":{"ha":833,"x_min":129,"x_max":757,"o":"m 129 0 l 129 1014 l 442 1014 q 600 977 532 1014 q 706 875 668 940 q 743 722 743 810 q 690 546 743 619 q 550 443 638 472 l 757 0 l 619 0 l 421 431 l 253 431 l 253 0 l 129 0 m 253 543 l 442 543 q 567 592 519 543 q 614 722 614 642 q 567 853 614 804 q 442 901 519 901 l 253 901 l 253 543 m 360 1125 l 165 1319 l 303 1319 l 417 1211 l 528 1319 l 668 1319 l 475 1125 l 360 1125 z "},"ř":{"ha":833,"x_min":156,"x_max":736,"o":"m 156 0 l 156 764 l 281 764 l 281 618 l 283 618 q 346 735 293 692 q 488 778 399 778 q 672 706 607 778 q 736 503 736 635 l 736 438 l 611 438 l 611 503 q 449 669 611 669 q 324 622 367 669 q 281 486 281 575 l 281 0 l 156 0 m 388 896 l 193 1090 l 331 1090 l 444 982 l 556 1090 l 696 1090 l 503 896 l 388 896 z "},"Ś":{"ha":833,"x_min":100,"x_max":733,"o":"m 422 -14 q 188 64 275 -14 q 100 278 100 142 l 225 278 q 279 145 225 193 q 422 97 333 97 q 560 147 508 97 q 611 278 611 197 q 578 384 611 339 q 485 446 546 429 l 331 489 q 180 588 235 517 q 125 757 125 660 q 161 899 125 838 q 263 994 197 960 q 413 1028 328 1028 q 565 994 499 1028 q 668 899 631 960 q 706 760 706 839 l 581 760 q 533 873 581 829 q 413 917 486 917 q 293 873 339 917 q 247 760 247 829 q 277 665 247 704 q 361 610 307 625 l 519 565 q 677 460 621 538 q 733 278 733 383 q 649 65 733 144 q 422 -14 564 -14 m 336 1125 l 483 1319 l 618 1319 l 464 1125 l 336 1125 z "},"ś":{"ha":833,"x_min":118,"x_max":715,"o":"m 386 -11 q 188 47 258 -11 q 118 210 118 104 l 243 210 q 281 127 243 157 q 386 97 318 97 l 447 97 q 555 128 517 97 q 593 214 593 158 q 503 325 593 313 l 292 356 q 171 420 214 367 q 128 561 128 474 q 197 718 128 661 q 386 775 265 775 l 447 775 q 628 720 558 775 q 704 576 699 665 l 578 576 q 540 643 575 617 q 447 669 504 669 l 386 669 q 286 640 322 669 q 250 561 250 611 q 324 469 250 481 l 521 442 q 715 214 715 414 q 645 48 715 107 q 447 -11 575 -11 l 386 -11 m 336 896 l 483 1090 l 618 1090 l 464 896 l 336 896 z "},"Ŝ":{"ha":833,"x_min":100,"x_max":733,"o":"m 422 -14 q 188 64 275 -14 q 100 278 100 142 l 225 278 q 279 145 225 193 q 422 97 333 97 q 560 147 508 97 q 611 278 611 197 q 578 384 611 339 q 485 446 546 429 l 331 489 q 180 588 235 517 q 125 757 125 660 q 161 899 125 838 q 263 994 197 960 q 413 1028 328 1028 q 565 994 499 1028 q 668 899 631 960 q 706 760 706 839 l 581 760 q 533 873 581 829 q 413 917 486 917 q 293 873 339 917 q 247 760 247 829 q 277 665 247 704 q 361 610 307 625 l 519 565 q 677 460 621 538 q 733 278 733 383 q 649 65 733 144 q 422 -14 564 -14 m 165 1125 l 358 1319 l 474 1319 l 668 1125 l 531 1125 l 417 1233 l 306 1125 l 165 1125 z "},"ŝ":{"ha":833,"x_min":118,"x_max":715,"o":"m 386 -11 q 188 47 258 -11 q 118 210 118 104 l 243 210 q 281 127 243 157 q 386 97 318 97 l 447 97 q 555 128 517 97 q 593 214 593 158 q 503 325 593 313 l 292 356 q 171 420 214 367 q 128 561 128 474 q 197 718 128 661 q 386 775 265 775 l 447 775 q 628 720 558 775 q 704 576 699 665 l 578 576 q 540 643 575 617 q 447 669 504 669 l 386 669 q 286 640 322 669 q 250 561 250 611 q 324 469 250 481 l 521 442 q 715 214 715 414 q 645 48 715 107 q 447 -11 575 -11 l 386 -11 m 165 896 l 358 1090 l 474 1090 l 668 896 l 531 896 l 417 1004 l 306 896 l 165 896 z "},"Ş":{"ha":833,"x_min":100,"x_max":733,"o":"m 285 -282 l 285 -206 l 382 -206 q 431 -190 413 -206 q 450 -156 450 -174 q 412 -114 450 -132 q 304 -96 374 -96 l 338 -7 q 164 88 228 14 q 100 278 100 163 l 225 278 q 279 145 225 193 q 422 97 333 97 q 560 147 508 97 q 611 278 611 197 q 578 384 611 339 q 485 446 546 429 l 331 489 q 180 588 235 517 q 125 757 125 660 q 161 899 125 838 q 263 994 197 960 q 413 1028 328 1028 q 565 994 499 1028 q 668 899 631 960 q 706 760 706 839 l 581 760 q 533 873 581 829 q 413 917 486 917 q 293 873 339 917 q 247 760 247 829 q 277 665 247 704 q 361 610 307 625 l 519 565 q 677 460 621 538 q 733 278 733 383 q 649 65 733 144 q 422 -14 564 -14 q 415 -14 418 -14 l 403 -49 q 478 -67 439 -53 q 543 -106 517 -81 q 569 -167 569 -131 q 524 -248 569 -214 q 403 -282 478 -282 l 285 -282 z "},"ş":{"ha":833,"x_min":118,"x_max":715,"o":"m 299 -282 l 299 -206 l 396 -206 q 445 -190 426 -206 q 464 -156 464 -174 q 426 -114 464 -132 q 318 -96 388 -96 l 350 -10 q 178 55 239 -1 q 118 210 118 111 l 243 210 q 281 127 243 157 q 386 97 318 97 l 447 97 q 555 128 517 97 q 593 214 593 158 q 503 325 593 313 l 292 356 q 171 420 214 367 q 128 561 128 474 q 197 718 128 661 q 386 775 265 775 l 447 775 q 628 720 558 775 q 704 576 699 665 l 578 576 q 540 643 575 617 q 447 669 504 669 l 386 669 q 286 640 322 669 q 250 561 250 611 q 324 469 250 481 l 521 442 q 715 214 715 414 q 645 48 715 107 q 447 -11 575 -11 l 429 -11 l 417 -49 q 492 -67 453 -53 q 557 -106 531 -81 q 583 -167 583 -131 q 538 -248 583 -214 q 417 -282 492 -282 l 299 -282 z "},"Š":{"ha":833,"x_min":100,"x_max":733,"o":"m 422 -14 q 188 64 275 -14 q 100 278 100 142 l 225 278 q 279 145 225 193 q 422 97 333 97 q 560 147 508 97 q 611 278 611 197 q 578 384 611 339 q 485 446 546 429 l 331 489 q 180 588 235 517 q 125 757 125 660 q 161 899 125 838 q 263 994 197 960 q 413 1028 328 1028 q 565 994 499 1028 q 668 899 631 960 q 706 760 706 839 l 581 760 q 533 873 581 829 q 413 917 486 917 q 293 873 339 917 q 247 760 247 829 q 277 665 247 704 q 361 610 307 625 l 519 565 q 677 460 621 538 q 733 278 733 383 q 649 65 733 144 q 422 -14 564 -14 m 360 1125 l 165 1319 l 303 1319 l 417 1211 l 528 1319 l 668 1319 l 475 1125 l 360 1125 z "},"š":{"ha":833,"x_min":118,"x_max":715,"o":"m 386 -11 q 188 47 258 -11 q 118 210 118 104 l 243 210 q 281 127 243 157 q 386 97 318 97 l 447 97 q 555 128 517 97 q 593 214 593 158 q 503 325 593 313 l 292 356 q 171 420 214 367 q 128 561 128 474 q 197 718 128 661 q 386 775 265 775 l 447 775 q 628 720 558 775 q 704 576 699 665 l 578 576 q 540 643 575 617 q 447 669 504 669 l 386 669 q 286 640 322 669 q 250 561 250 611 q 324 469 250 481 l 521 442 q 715 214 715 414 q 645 48 715 107 q 447 -11 575 -11 l 386 -11 m 360 896 l 165 1090 l 303 1090 l 417 982 l 528 1090 l 668 1090 l 475 896 l 360 896 z "},"Ţ":{"ha":833,"x_min":76,"x_max":757,"o":"m 354 0 l 354 900 l 76 900 l 76 1014 l 757 1014 l 757 900 l 479 900 l 479 0 l 463 -49 q 538 -67 499 -53 q 603 -106 576 -81 q 629 -167 629 -131 q 583 -248 629 -214 q 463 -282 538 -282 l 344 -282 l 344 -206 l 442 -206 q 491 -190 472 -206 q 510 -156 510 -174 q 472 -114 510 -132 q 364 -96 433 -96 l 399 0 l 354 0 z "},"ţ":{"ha":833,"x_min":65,"x_max":722,"o":"m 368 -282 l 368 -206 l 465 -206 q 515 -190 496 -206 q 533 -156 533 -174 q 495 -114 533 -132 q 388 -96 457 -96 l 426 8 q 322 77 360 26 q 285 201 285 128 l 285 650 l 65 650 l 65 764 l 285 764 l 285 979 l 410 979 l 410 764 l 722 764 l 722 650 l 410 650 l 410 201 q 433 138 410 163 q 493 114 456 114 l 715 114 l 715 0 l 503 0 l 486 -49 q 561 -67 522 -53 q 626 -106 600 -81 q 653 -167 653 -131 q 607 -248 653 -214 q 486 -282 561 -282 l 368 -282 z "},"Ť":{"ha":833,"x_min":76,"x_max":757,"o":"m 354 0 l 354 900 l 76 900 l 76 1014 l 757 1014 l 757 900 l 479 900 l 479 0 l 354 0 m 360 1125 l 165 1319 l 303 1319 l 417 1211 l 528 1319 l 668 1319 l 475 1125 l 360 1125 z "},"ť":{"ha":833,"x_min":65,"x_max":722,"o":"m 493 0 q 342 55 399 0 q 285 201 285 110 l 285 650 l 65 650 l 65 764 l 285 764 l 285 979 l 410 979 l 410 764 l 722 764 l 722 650 l 410 650 l 410 201 q 433 138 410 163 q 493 114 456 114 l 715 114 l 715 0 l 493 0 m 514 863 l 535 1113 l 651 1113 l 618 863 l 514 863 z "},"Ŧ":{"ha":833,"x_min":76,"x_max":757,"o":"m 354 0 l 354 410 l 153 410 l 153 514 l 354 514 l 354 900 l 76 900 l 76 1014 l 757 1014 l 757 900 l 479 900 l 479 514 l 681 514 l 681 410 l 479 410 l 479 0 l 354 0 z "},"ŧ":{"ha":833,"x_min":65,"x_max":722,"o":"m 118 332 l 118 436 l 285 436 l 285 650 l 65 650 l 65 764 l 285 764 l 285 979 l 410 979 l 410 764 l 722 764 l 722 650 l 410 650 l 410 436 l 660 436 l 660 332 l 410 332 l 410 201 q 433 138 410 163 q 493 114 456 114 l 715 114 l 715 0 l 493 0 q 342 55 399 0 q 285 201 285 110 l 285 332 l 118 332 z "},"Ũ":{"ha":833,"x_min":125,"x_max":708,"o":"m 417 -14 q 200 65 275 -14 q 125 278 125 143 l 125 1014 l 250 1014 l 250 278 q 291 146 250 194 q 417 97 332 97 q 542 146 500 97 q 583 278 583 194 l 583 1014 l 708 1014 l 708 278 q 634 64 708 142 q 417 -14 560 -14 m 514 1132 q 446 1147 472 1132 q 401 1181 419 1161 q 367 1215 383 1200 q 326 1229 350 1229 q 285 1181 285 1229 l 285 1139 l 194 1139 l 194 1181 q 229 1278 194 1243 q 319 1313 264 1313 q 388 1298 361 1313 q 432 1264 414 1283 q 467 1230 450 1244 q 507 1215 483 1215 q 549 1264 549 1215 l 549 1306 l 639 1306 l 639 1264 q 605 1167 639 1201 q 514 1132 571 1132 z "},"ũ":{"ha":833,"x_min":125,"x_max":708,"o":"m 415 -14 q 204 65 283 -14 q 125 278 125 143 l 125 764 l 250 764 l 250 278 q 294 145 250 194 q 415 96 339 96 q 538 145 493 96 q 583 278 583 194 l 583 764 l 708 764 l 708 278 q 628 65 708 143 q 415 -14 547 -14 m 514 903 q 446 917 472 903 q 401 951 419 932 q 367 985 383 971 q 326 1000 350 1000 q 285 951 285 1000 l 285 910 l 194 910 l 194 951 q 229 1049 194 1014 q 319 1083 264 1083 q 388 1069 361 1083 q 432 1035 414 1054 q 467 1001 450 1015 q 507 986 483 986 q 549 1035 549 986 l 549 1076 l 639 1076 l 639 1035 q 605 938 639 972 q 514 903 571 903 z "},"Ū":{"ha":833,"x_min":125,"x_max":708,"o":"m 417 -14 q 200 65 275 -14 q 125 278 125 143 l 125 1014 l 250 1014 l 250 278 q 291 146 250 194 q 417 97 332 97 q 542 146 500 97 q 583 278 583 194 l 583 1014 l 708 1014 l 708 278 q 634 64 708 142 q 417 -14 560 -14 m 194 1167 l 194 1271 l 639 1271 l 639 1167 l 194 1167 z "},"ū":{"ha":833,"x_min":125,"x_max":708,"o":"m 415 -14 q 204 65 283 -14 q 125 278 125 143 l 125 764 l 250 764 l 250 278 q 294 145 250 194 q 415 96 339 96 q 538 145 493 96 q 583 278 583 194 l 583 764 l 708 764 l 708 278 q 628 65 708 143 q 415 -14 547 -14 m 194 931 l 194 1035 l 639 1035 l 639 931 l 194 931 z "},"Ŭ":{"ha":833,"x_min":125,"x_max":708,"o":"m 417 -14 q 200 65 275 -14 q 125 278 125 143 l 125 1014 l 250 1014 l 250 278 q 291 146 250 194 q 417 97 332 97 q 542 146 500 97 q 583 278 583 194 l 583 1014 l 708 1014 l 708 278 q 634 64 708 142 q 417 -14 560 -14 m 417 1118 q 256 1174 317 1118 q 194 1319 194 1229 l 293 1319 q 326 1232 293 1265 q 415 1199 360 1199 q 506 1232 472 1199 q 540 1319 540 1265 l 639 1319 q 578 1174 639 1229 q 417 1118 517 1118 z "},"ŭ":{"ha":833,"x_min":125,"x_max":708,"o":"m 415 -14 q 204 65 283 -14 q 125 278 125 143 l 125 764 l 250 764 l 250 278 q 294 145 250 194 q 415 96 339 96 q 538 145 493 96 q 583 278 583 194 l 583 764 l 708 764 l 708 278 q 628 65 708 143 q 415 -14 547 -14 m 417 889 q 256 944 317 889 q 194 1090 194 1000 l 293 1090 q 326 1003 293 1036 q 415 969 360 969 q 506 1003 472 969 q 540 1090 540 1036 l 639 1090 q 578 944 639 1000 q 417 889 517 889 z "},"Ů":{"ha":833,"x_min":125,"x_max":708,"o":"m 417 -14 q 200 65 275 -14 q 125 278 125 143 l 125 1014 l 250 1014 l 250 278 q 291 146 250 194 q 417 97 332 97 q 542 146 500 97 q 583 278 583 194 l 583 1014 l 708 1014 l 708 278 q 634 64 708 142 q 417 -14 560 -14 m 417 1064 q 296 1108 342 1064 q 250 1222 250 1151 q 296 1337 250 1293 q 417 1381 342 1381 q 538 1337 492 1381 q 583 1222 583 1293 q 538 1108 583 1151 q 417 1064 492 1064 m 417 1138 q 477 1160 454 1138 q 500 1222 500 1183 q 477 1285 500 1261 q 417 1308 454 1308 q 356 1285 379 1308 q 333 1222 333 1261 q 356 1160 333 1183 q 417 1138 379 1138 z "},"ů":{"ha":833,"x_min":125,"x_max":708,"o":"m 415 -14 q 204 65 283 -14 q 125 278 125 143 l 125 764 l 250 764 l 250 278 q 294 145 250 194 q 415 96 339 96 q 538 145 493 96 q 583 278 583 194 l 583 764 l 708 764 l 708 278 q 628 65 708 143 q 415 -14 547 -14 m 417 844 q 296 888 342 844 q 250 1003 250 932 q 296 1117 250 1074 q 417 1161 342 1161 q 538 1117 492 1161 q 583 1003 583 1074 q 538 888 583 932 q 417 844 492 844 m 417 918 q 477 941 454 918 q 500 1003 500 964 q 477 1065 500 1042 q 417 1089 454 1089 q 356 1065 379 1089 q 333 1003 333 1042 q 356 941 333 964 q 417 918 379 918 z "},"Ű":{"ha":833,"x_min":125,"x_max":733,"o":"m 417 -14 q 200 65 275 -14 q 125 278 125 143 l 125 1014 l 250 1014 l 250 278 q 291 146 250 194 q 417 97 332 97 q 542 146 500 97 q 583 278 583 194 l 583 1014 l 708 1014 l 708 278 q 634 64 708 142 q 417 -14 560 -14 m 453 1125 l 606 1319 l 733 1319 l 574 1125 l 453 1125 m 204 1125 l 357 1319 l 485 1319 l 325 1125 l 204 1125 z "},"ű":{"ha":833,"x_min":125,"x_max":733,"o":"m 415 -14 q 204 65 283 -14 q 125 278 125 143 l 125 764 l 250 764 l 250 278 q 294 145 250 194 q 415 96 339 96 q 538 145 493 96 q 583 278 583 194 l 583 764 l 708 764 l 708 278 q 628 65 708 143 q 415 -14 547 -14 m 453 896 l 606 1090 l 733 1090 l 574 896 l 453 896 m 204 896 l 357 1090 l 485 1090 l 325 896 l 204 896 z "},"Ų":{"ha":833,"x_min":125,"x_max":708,"o":"m 526 -282 q 403 -245 450 -282 q 357 -153 357 -208 q 435 -14 357 -89 l 417 -14 q 203 64 281 -14 q 125 278 125 142 l 125 1014 l 250 1014 l 250 278 q 293 145 250 192 q 417 99 336 99 q 541 145 499 99 q 583 278 583 192 l 583 1014 l 708 1014 l 708 278 q 597 35 708 110 l 557 1 q 493 -69 511 -37 q 475 -129 475 -100 q 496 -179 475 -160 q 551 -199 517 -199 l 635 -199 l 635 -282 l 526 -282 z "},"ų":{"ha":833,"x_min":125,"x_max":708,"o":"m 517 -282 q 394 -245 440 -282 q 347 -153 347 -208 q 365 -90 347 -122 q 429 -14 382 -57 l 417 -14 q 203 64 281 -14 q 125 278 125 142 l 125 764 l 250 764 l 250 278 q 417 97 250 97 q 583 278 583 97 l 583 764 l 708 764 l 708 278 q 588 29 708 101 l 554 1 q 486 -69 507 -37 q 465 -129 465 -100 q 486 -179 465 -160 q 542 -199 507 -199 l 625 -199 l 625 -282 l 517 -282 z "},"Ŵ":{"ha":833,"x_min":28,"x_max":806,"o":"m 149 0 l 28 1014 l 143 1014 l 222 264 q 231 169 228 218 q 235 90 233 119 q 242 169 238 119 q 253 264 247 218 l 353 1014 l 488 1014 l 579 264 q 590 169 585 218 q 599 90 596 119 q 605 169 601 119 q 614 264 608 218 l 696 1014 l 806 1014 l 682 0 l 525 0 l 433 764 q 425 856 428 811 q 419 926 422 901 q 414 856 417 901 q 404 764 411 811 l 306 0 l 149 0 m 165 1125 l 358 1319 l 474 1319 l 668 1125 l 531 1125 l 417 1233 l 306 1125 l 165 1125 z "},"ŵ":{"ha":833,"x_min":43,"x_max":790,"o":"m 168 0 l 43 764 l 151 764 l 229 225 q 238 158 233 194 q 243 97 242 121 q 249 158 246 121 q 258 225 253 194 l 354 764 l 479 764 l 575 225 q 585 158 581 194 q 592 97 590 121 q 599 158 594 121 q 607 225 603 194 l 688 764 l 790 764 l 660 0 l 522 0 l 435 528 q 424 610 429 567 q 417 678 419 654 q 410 610 415 654 q 397 528 404 567 l 306 0 l 168 0 m 165 896 l 358 1090 l 474 1090 l 668 896 l 531 896 l 417 1004 l 306 896 l 165 896 z "},"Ŷ":{"ha":833,"x_min":49,"x_max":785,"o":"m 354 0 l 354 379 l 49 1014 l 182 1014 l 379 597 q 406 538 396 563 q 418 503 415 514 q 431 538 421 514 q 458 597 442 563 l 656 1014 l 785 1014 l 479 379 l 479 0 l 354 0 m 165 1125 l 358 1319 l 474 1319 l 668 1125 l 531 1125 l 417 1233 l 306 1125 l 165 1125 z "},"ŷ":{"ha":833,"x_min":75,"x_max":758,"o":"m 247 -250 l 360 47 l 75 764 l 210 764 l 390 292 q 411 233 401 264 q 425 181 421 203 q 439 233 429 203 q 458 292 449 264 l 626 764 l 758 764 l 378 -250 l 247 -250 m 165 896 l 358 1090 l 474 1090 l 668 896 l 531 896 l 417 1004 l 306 896 l 165 896 z "},"Ÿ":{"ha":833,"x_min":49,"x_max":785,"o":"m 354 0 l 354 379 l 49 1014 l 182 1014 l 379 597 q 406 538 396 563 q 418 503 415 514 q 431 538 421 514 q 458 597 442 563 l 656 1014 l 785 1014 l 479 379 l 479 0 l 354 0 m 571 1135 q 506 1158 531 1135 q 482 1222 482 1182 q 506 1288 482 1264 q 571 1313 531 1313 q 635 1288 611 1313 q 660 1222 660 1264 q 635 1158 660 1182 q 571 1135 611 1135 m 263 1135 q 198 1158 222 1135 q 174 1222 174 1182 q 198 1288 174 1264 q 263 1313 222 1313 q 327 1288 303 1313 q 351 1222 351 1264 q 327 1158 351 1182 q 263 1135 303 1135 z "},"Ź":{"ha":833,"x_min":118,"x_max":715,"o":"m 118 0 l 118 125 l 575 900 l 125 900 l 125 1014 l 701 1014 l 701 889 l 244 114 l 715 114 l 715 0 l 118 0 m 336 1125 l 483 1319 l 618 1319 l 464 1125 l 336 1125 z "},"ź":{"ha":833,"x_min":125,"x_max":708,"o":"m 125 0 l 125 125 l 553 650 l 136 650 l 136 764 l 693 764 l 693 639 l 257 114 l 708 114 l 708 0 l 125 0 m 336 896 l 483 1090 l 618 1090 l 464 896 l 336 896 z "},"Ż":{"ha":833,"x_min":118,"x_max":715,"o":"m 118 0 l 118 125 l 575 900 l 125 900 l 125 1014 l 701 1014 l 701 889 l 244 114 l 715 114 l 715 0 l 118 0 m 417 1133 q 344 1158 371 1133 q 318 1222 318 1182 q 344 1287 318 1263 q 417 1311 371 1311 q 489 1287 463 1311 q 515 1222 515 1263 q 489 1158 515 1182 q 417 1133 463 1133 z "},"ż":{"ha":833,"x_min":125,"x_max":708,"o":"m 125 0 l 125 125 l 553 650 l 136 650 l 136 764 l 693 764 l 693 639 l 257 114 l 708 114 l 708 0 l 125 0 m 417 901 q 344 925 371 901 q 318 989 318 949 q 344 1055 318 1031 q 417 1079 371 1079 q 489 1055 463 1079 q 515 989 515 1031 q 489 925 515 949 q 417 901 463 901 z "},"Ž":{"ha":833,"x_min":118,"x_max":715,"o":"m 118 0 l 118 125 l 575 900 l 125 900 l 125 1014 l 701 1014 l 701 889 l 244 114 l 715 114 l 715 0 l 118 0 m 360 1125 l 165 1319 l 303 1319 l 417 1211 l 528 1319 l 668 1319 l 475 1125 l 360 1125 z "},"ž":{"ha":833,"x_min":125,"x_max":708,"o":"m 125 0 l 125 125 l 553 650 l 136 650 l 136 764 l 693 764 l 693 639 l 257 114 l 708 114 l 708 0 l 125 0 m 360 896 l 165 1090 l 303 1090 l 417 982 l 528 1090 l 668 1090 l 475 896 l 360 896 z "},"ſ":{"ha":833,"x_min":229,"x_max":708,"o":"m 229 0 l 229 793 q 294 953 229 892 q 464 1014 358 1014 l 708 1014 l 708 903 l 464 903 q 385 872 415 903 q 354 792 354 842 l 354 0 l 229 0 z "},"Ə":{"ha":833,"x_min":125,"x_max":708,"o":"m 417 -14 q 203 66 282 -14 q 125 278 125 146 l 125 556 l 583 556 l 583 738 q 541 870 583 824 q 417 917 499 917 q 293 869 336 917 q 250 736 250 822 l 125 736 q 203 949 125 871 q 417 1028 281 1028 q 632 950 556 1028 q 708 736 708 872 l 708 278 q 631 66 708 146 q 417 -14 553 -14 m 417 90 q 543 139 503 90 q 583 278 583 188 l 583 458 l 250 458 l 250 278 q 291 139 250 188 q 417 90 332 90 z "},"Ɛ":{"ha":833,"x_min":92,"x_max":761,"o":"m 429 -14 q 253 23 329 -14 q 135 125 178 60 q 92 276 92 190 q 146 447 92 375 q 286 533 200 518 l 286 538 q 169 619 214 556 q 124 765 124 682 q 162 902 124 843 q 267 994 200 961 q 424 1028 335 1028 q 585 991 515 1028 q 694 889 656 954 q 733 736 733 824 l 608 736 q 557 867 608 817 q 424 917 506 917 q 297 872 346 917 q 249 753 249 826 q 298 631 249 678 q 426 583 347 583 l 547 583 l 547 472 l 428 472 q 277 420 335 472 q 219 285 219 368 q 277 149 219 201 q 428 97 335 97 q 576 147 518 97 q 636 278 635 197 l 761 278 q 717 126 760 192 q 601 23 675 60 q 429 -14 526 -14 z "},"ƒ":{"ha":833,"x_min":0,"x_max":743,"o":"m 0 -250 l 0 -136 l 146 -136 q 263 -94 219 -136 q 306 21 306 -51 l 306 435 l 83 435 l 83 549 l 306 549 l 306 821 q 362 963 306 913 q 519 1014 418 1014 l 743 1014 l 743 903 l 519 903 q 431 819 431 903 l 431 549 l 743 549 l 743 435 l 431 435 l 431 21 q 353 -176 431 -101 q 146 -250 275 -250 l 0 -250 z "},"ƛ":{"ha":833,"x_min":69,"x_max":764,"o":"m 69 0 l 353 751 l 347 764 l 125 653 l 125 764 l 311 857 l 250 1014 l 383 1014 l 421 913 l 653 1028 l 653 917 l 457 818 l 764 0 l 631 0 l 449 496 q 422 582 431 544 q 407 640 414 619 q 401 582 407 619 q 379 496 396 544 l 204 0 l 69 0 z "},"Ơ":{"ha":833,"x_min":122,"x_max":736,"o":"m 417 -14 q 201 65 281 -14 q 122 292 122 144 l 122 722 q 201 949 122 869 q 417 1028 281 1028 q 601 975 528 1028 q 632 1021 632 985 l 632 1125 l 736 1125 l 736 1014 q 669 899 736 933 q 711 724 711 828 l 711 292 q 632 65 711 144 q 417 -14 553 -14 m 417 99 q 542 145 499 99 q 586 278 586 192 l 586 736 q 542 869 586 822 q 417 915 499 915 q 292 869 336 915 q 247 736 247 822 l 247 278 q 292 145 247 192 q 417 99 336 99 z "},"ơ":{"ha":833,"x_min":117,"x_max":750,"o":"m 417 -11 q 198 69 279 -11 q 117 294 117 150 l 117 469 q 197 695 117 615 q 417 775 278 775 q 582 736 513 775 l 597 736 q 646 785 646 736 l 646 889 l 750 889 l 750 778 q 728 703 750 735 q 667 657 706 671 q 717 469 717 582 l 717 294 q 635 69 717 150 q 417 -11 554 -11 m 417 100 q 545 146 499 100 q 592 281 592 192 l 592 483 q 545 618 592 572 q 417 664 499 664 q 289 618 336 664 q 242 483 242 572 l 242 281 q 289 146 242 192 q 417 100 336 100 z "},"Ư":{"ha":833,"x_min":125,"x_max":826,"o":"m 417 -14 q 200 65 275 -14 q 125 278 125 143 l 125 1014 l 250 1014 l 250 278 q 291 146 250 194 q 417 97 332 97 q 542 146 500 97 q 583 278 583 194 l 583 1014 l 674 1014 q 709 1027 696 1014 q 722 1063 722 1040 l 722 1167 l 826 1167 l 826 1056 q 794 967 826 1001 q 708 925 763 933 l 708 278 q 634 64 708 142 q 417 -14 560 -14 z "},"ư":{"ha":833,"x_min":125,"x_max":833,"o":"m 125 278 l 125 764 l 250 764 l 250 278 q 294 144 250 192 q 415 96 339 96 q 538 144 493 96 q 583 278 583 192 l 583 764 l 681 764 q 729 813 729 764 l 729 917 l 833 917 l 833 806 q 803 710 833 746 q 708 674 774 674 l 708 278 q 628 65 708 143 q 415 -14 547 -14 q 204 65 283 -14 q 125 278 125 143 z "},"Ǎ":{"ha":833,"x_min":69,"x_max":764,"o":"m 69 0 l 333 1014 l 501 1014 l 764 0 l 638 0 l 571 269 l 264 269 l 197 0 l 69 0 m 289 375 l 544 375 l 467 688 q 432 836 444 776 q 417 914 419 896 q 401 836 414 896 q 367 689 389 776 l 289 375 m 360 1125 l 165 1319 l 303 1319 l 417 1211 l 528 1319 l 668 1319 l 475 1125 l 360 1125 z "},"ǎ":{"ha":833,"x_min":93,"x_max":706,"o":"m 350 -14 q 163 52 232 -14 q 93 225 93 118 q 125 349 93 296 q 214 431 157 401 q 344 461 271 461 l 581 461 l 581 521 q 418 669 581 669 q 301 643 346 669 q 254 569 257 617 l 129 569 q 213 719 136 660 q 418 778 290 778 q 631 711 557 778 q 706 525 706 644 l 706 0 l 582 0 l 582 139 l 579 139 q 508 27 568 68 q 350 -14 449 -14 m 381 92 q 526 136 472 92 q 581 257 581 181 l 581 364 l 358 364 q 259 327 297 364 q 221 229 221 290 q 263 128 221 165 q 381 92 306 92 m 367 896 l 172 1090 l 310 1090 l 424 982 l 535 1090 l 675 1090 l 482 896 l 367 896 z "},"ǐ":{"ha":833,"x_min":118,"x_max":771,"o":"m 118 0 l 118 114 l 389 114 l 389 650 l 146 650 l 146 764 l 514 764 l 514 114 l 771 114 l 771 0 l 118 0 m 381 896 l 186 1090 l 324 1090 l 438 982 l 549 1090 l 689 1090 l 496 896 l 381 896 z "},"ǒ":{"ha":833,"x_min":117,"x_max":717,"o":"m 417 -11 q 198 69 279 -11 q 117 294 117 150 l 117 469 q 197 695 117 615 q 417 775 278 775 q 636 695 556 775 q 717 469 717 615 l 717 294 q 635 69 717 150 q 417 -11 554 -11 m 417 100 q 545 146 499 100 q 592 281 592 192 l 592 483 q 545 618 592 572 q 417 664 499 664 q 289 618 336 664 q 242 483 242 572 l 242 281 q 289 146 242 192 q 417 100 336 100 m 360 896 l 165 1090 l 303 1090 l 417 982 l 528 1090 l 668 1090 l 475 896 l 360 896 z "},"ǔ":{"ha":833,"x_min":125,"x_max":708,"o":"m 415 -14 q 204 65 283 -14 q 125 278 125 143 l 125 764 l 250 764 l 250 278 q 294 145 250 194 q 415 96 339 96 q 538 145 493 96 q 583 278 583 194 l 583 764 l 708 764 l 708 278 q 628 65 708 143 q 415 -14 547 -14 m 360 896 l 165 1090 l 303 1090 l 417 982 l 528 1090 l 668 1090 l 475 896 l 360 896 z "},"ǖ":{"ha":833,"x_min":125,"x_max":708,"o":"m 415 -14 q 204 65 283 -14 q 125 278 125 143 l 125 764 l 250 764 l 250 278 q 294 145 250 194 q 415 96 339 96 q 538 145 493 96 q 583 278 583 194 l 583 764 l 708 764 l 708 278 q 628 65 708 143 q 415 -14 547 -14 m 571 901 q 506 925 531 901 q 482 989 482 949 q 506 1055 482 1031 q 571 1079 531 1079 q 635 1055 611 1079 q 660 989 660 1031 q 635 925 660 949 q 571 901 611 901 m 263 901 q 198 925 222 901 q 174 989 174 949 q 198 1055 174 1031 q 263 1079 222 1079 q 327 1055 303 1079 q 351 989 351 1031 q 327 925 351 949 q 263 901 303 901 m 194 1246 l 194 1350 l 639 1350 l 639 1246 l 194 1246 z "},"ǘ":{"ha":833,"x_min":125,"x_max":708,"o":"m 415 -14 q 204 65 283 -14 q 125 278 125 143 l 125 764 l 250 764 l 250 278 q 294 145 250 194 q 415 96 339 96 q 538 145 493 96 q 583 278 583 194 l 583 764 l 708 764 l 708 278 q 628 65 708 143 q 415 -14 547 -14 m 571 901 q 506 925 531 901 q 482 989 482 949 q 506 1055 482 1031 q 571 1079 531 1079 q 635 1055 611 1079 q 660 989 660 1031 q 635 925 660 949 q 571 901 611 901 m 263 901 q 198 925 222 901 q 174 989 174 949 q 198 1055 174 1031 q 263 1079 222 1079 q 327 1055 303 1079 q 351 989 351 1031 q 327 925 351 949 q 263 901 303 901 m 336 1211 l 483 1406 l 618 1406 l 464 1211 l 336 1211 z "},"ǚ":{"ha":833,"x_min":125,"x_max":708,"o":"m 415 -14 q 204 65 283 -14 q 125 278 125 143 l 125 764 l 250 764 l 250 278 q 294 145 250 194 q 415 96 339 96 q 538 145 493 96 q 583 278 583 194 l 583 764 l 708 764 l 708 278 q 628 65 708 143 q 415 -14 547 -14 m 571 901 q 506 925 531 901 q 482 989 482 949 q 506 1055 482 1031 q 571 1079 531 1079 q 635 1055 611 1079 q 660 989 660 1031 q 635 925 660 949 q 571 901 611 901 m 263 901 q 198 925 222 901 q 174 989 174 949 q 198 1055 174 1031 q 263 1079 222 1079 q 327 1055 303 1079 q 351 989 351 1031 q 327 925 351 949 q 263 901 303 901 m 360 1211 l 165 1406 l 303 1406 l 417 1297 l 528 1406 l 668 1406 l 475 1211 l 360 1211 z "},"ǜ":{"ha":833,"x_min":125,"x_max":708,"o":"m 415 -14 q 204 65 283 -14 q 125 278 125 143 l 125 764 l 250 764 l 250 278 q 294 145 250 194 q 415 96 339 96 q 538 145 493 96 q 583 278 583 194 l 583 764 l 708 764 l 708 278 q 628 65 708 143 q 415 -14 547 -14 m 571 901 q 506 925 531 901 q 482 989 482 949 q 506 1055 482 1031 q 571 1079 531 1079 q 635 1055 611 1079 q 660 989 660 1031 q 635 925 660 949 q 571 901 611 901 m 263 901 q 198 925 222 901 q 174 989 174 949 q 198 1055 174 1031 q 263 1079 222 1079 q 327 1055 303 1079 q 351 989 351 1031 q 327 925 351 949 q 263 901 303 901 m 371 1211 l 211 1406 l 350 1406 l 503 1211 l 371 1211 z "},"Ǧ":{"ha":833,"x_min":122,"x_max":719,"o":"m 422 -14 q 203 64 283 -14 q 122 278 122 142 l 122 736 q 203 950 122 872 q 422 1028 283 1028 q 639 949 558 1028 q 719 736 719 871 l 594 736 q 549 869 594 822 q 422 915 504 915 q 294 869 340 915 q 247 738 247 824 l 247 278 q 294 144 247 192 q 422 97 340 97 q 549 144 504 97 q 594 278 594 192 l 594 417 l 389 417 l 389 531 l 719 531 l 719 278 q 639 65 719 143 q 422 -14 558 -14 m 360 1125 l 165 1319 l 303 1319 l 417 1211 l 528 1319 l 668 1319 l 475 1125 l 360 1125 z "},"ǧ":{"ha":833,"x_min":122,"x_max":704,"o":"m 224 -250 l 224 -136 l 439 -136 q 542 -99 504 -136 q 579 0 579 -62 l 579 69 l 582 194 l 578 194 q 513 90 567 126 q 376 53 458 53 q 190 128 258 53 q 122 333 122 203 l 122 494 q 190 701 122 625 q 376 778 258 778 q 513 739 458 778 q 578 632 567 700 l 581 632 l 581 764 l 704 764 l 704 0 q 633 -183 704 -115 q 438 -250 561 -250 l 224 -250 m 414 157 q 536 206 492 157 q 581 340 581 254 l 581 486 q 536 621 581 572 q 414 669 492 669 q 291 624 335 669 q 247 500 247 578 l 247 326 q 291 203 247 249 q 414 157 335 157 m 356 896 l 161 1090 l 299 1090 l 413 982 l 524 1090 l 664 1090 l 471 896 l 356 896 z "},"Ǫ":{"ha":833,"x_min":122,"x_max":711,"o":"m 526 -282 q 403 -245 450 -282 q 357 -153 357 -208 q 435 -14 357 -89 l 417 -14 q 201 64 281 -14 q 122 278 122 142 l 122 736 q 201 950 122 872 q 417 1028 281 1028 q 632 951 553 1028 q 711 738 711 874 l 711 278 q 681 133 711 196 q 597 35 651 71 l 557 1 q 493 -69 511 -37 q 475 -129 475 -100 q 496 -179 475 -160 q 551 -199 517 -199 l 635 -199 l 635 -282 l 526 -282 m 417 99 q 542 145 499 99 q 586 278 586 192 l 586 736 q 542 869 586 822 q 417 915 499 915 q 292 869 336 915 q 247 736 247 822 l 247 278 q 292 145 247 192 q 417 99 336 99 z "},"ǫ":{"ha":833,"x_min":122,"x_max":711,"o":"m 517 -282 q 394 -245 440 -282 q 347 -153 347 -208 q 365 -90 347 -122 q 429 -14 382 -57 l 417 -14 q 201 64 281 -14 q 122 278 122 142 l 122 486 q 201 700 122 622 q 417 778 281 778 q 632 701 553 778 q 711 488 711 624 l 711 278 q 679 128 711 192 q 588 29 647 65 l 554 1 q 486 -69 507 -37 q 465 -129 465 -100 q 486 -179 465 -160 q 542 -199 507 -199 l 625 -199 l 625 -282 l 517 -282 m 417 97 q 542 143 499 97 q 586 278 586 189 l 586 486 q 542 621 586 575 q 417 667 499 667 q 292 621 336 667 q 247 486 247 575 l 247 278 q 292 143 247 189 q 417 97 336 97 z "},"Ǵ":{"ha":833,"x_min":122,"x_max":719,"o":"m 422 -14 q 203 64 283 -14 q 122 278 122 142 l 122 736 q 203 950 122 872 q 422 1028 283 1028 q 639 949 558 1028 q 719 736 719 871 l 594 736 q 549 869 594 822 q 422 915 504 915 q 294 869 340 915 q 247 738 247 824 l 247 278 q 294 144 247 192 q 422 97 340 97 q 549 144 504 97 q 594 278 594 192 l 594 417 l 389 417 l 389 531 l 719 531 l 719 278 q 639 65 719 143 q 422 -14 558 -14 m 336 1125 l 483 1319 l 618 1319 l 464 1125 l 336 1125 z "},"ǵ":{"ha":833,"x_min":122,"x_max":704,"o":"m 224 -250 l 224 -136 l 439 -136 q 542 -99 504 -136 q 579 0 579 -62 l 579 69 l 582 194 l 578 194 q 513 90 567 126 q 376 53 458 53 q 190 128 258 53 q 122 333 122 203 l 122 494 q 190 701 122 625 q 376 778 258 778 q 513 739 458 778 q 578 632 567 700 l 581 632 l 581 764 l 704 764 l 704 0 q 633 -183 704 -115 q 438 -250 561 -250 l 224 -250 m 414 157 q 536 206 492 157 q 581 340 581 254 l 581 486 q 536 621 581 572 q 414 669 492 669 q 291 624 335 669 q 247 500 247 578 l 247 326 q 291 203 247 249 q 414 157 335 157 m 332 896 l 479 1090 l 614 1090 l 460 896 l 332 896 z "},"Ǽ":{"ha":833,"x_min":42,"x_max":792,"o":"m 42 0 l 243 1014 l 792 1014 l 792 900 l 539 900 l 539 583 l 757 583 l 757 469 l 539 469 l 539 114 l 792 114 l 792 0 l 419 0 l 419 282 l 224 282 l 168 0 l 42 0 m 243 386 l 419 386 l 419 900 l 342 900 l 243 386 m 336 1125 l 483 1319 l 618 1319 l 464 1125 l 336 1125 z "},"ǽ":{"ha":833,"x_min":43,"x_max":785,"o":"m 247 -14 q 100 51 157 -14 q 43 221 43 117 q 101 387 43 324 q 253 450 160 450 l 365 450 l 365 554 q 340 642 365 611 q 271 674 315 674 q 201 647 228 674 q 175 575 175 619 l 65 575 q 117 722 65 665 q 253 778 169 778 q 368 744 321 778 q 422 654 415 710 q 474 744 429 710 q 583 778 519 778 q 729 716 674 778 q 785 556 785 654 l 785 356 l 476 356 l 476 208 q 502 122 476 153 q 572 90 528 90 q 642 118 617 90 q 668 190 668 146 l 785 190 q 729 43 785 100 q 583 -14 674 -14 q 478 21 524 -14 q 422 111 433 56 q 363 21 411 56 q 247 -14 314 -14 m 476 450 l 668 450 l 668 556 q 642 642 668 610 q 572 674 617 674 q 503 642 529 674 q 476 556 476 610 l 476 450 m 265 90 q 338 122 311 90 q 365 208 365 154 l 365 356 l 256 356 q 186 319 213 356 q 160 222 160 283 q 188 126 160 163 q 265 90 217 90 m 336 896 l 483 1090 l 618 1090 l 464 896 l 336 896 z "},"Ǿ":{"ha":833,"x_min":49,"x_max":785,"o":"m 49 -56 l 154 131 q 122 278 122 193 l 122 736 q 201 950 122 872 q 417 1028 281 1028 q 622 960 544 1028 l 668 1042 l 785 1042 l 688 868 q 711 738 711 811 l 711 278 q 632 64 711 142 q 417 -14 553 -14 q 222 46 299 -14 l 165 -56 l 49 -56 m 247 736 l 247 296 l 558 847 q 417 915 515 915 q 292 869 336 915 q 247 736 247 822 m 417 99 q 542 145 499 99 q 586 278 586 192 l 586 690 l 283 154 q 417 99 328 99 m 336 1125 l 483 1319 l 618 1319 l 464 1125 l 336 1125 z "},"ǿ":{"ha":833,"x_min":49,"x_max":785,"o":"m 49 -42 l 161 117 q 122 278 122 185 l 122 486 q 201 700 122 622 q 417 778 281 778 q 594 731 522 778 l 658 819 l 785 819 l 668 656 q 711 488 711 586 l 711 278 q 632 64 711 142 q 417 -14 553 -14 q 231 39 306 -14 l 174 -42 l 49 -42 m 240 278 q 244 235 240 254 l 528 635 q 417 667 483 667 q 287 619 333 667 q 240 486 240 572 l 240 278 m 417 97 q 547 145 500 97 q 593 278 593 193 l 593 486 q 588 542 593 515 l 299 135 q 417 97 343 97 m 336 896 l 483 1090 l 618 1090 l 464 896 l 336 896 z "},"Ș":{"ha":833,"x_min":100,"x_max":733,"o":"m 422 -14 q 188 64 275 -14 q 100 278 100 142 l 225 278 q 279 145 225 193 q 422 97 333 97 q 560 147 508 97 q 611 278 611 197 q 578 384 611 339 q 485 446 546 429 l 331 489 q 180 588 235 517 q 125 757 125 660 q 161 899 125 838 q 263 994 197 960 q 413 1028 328 1028 q 565 994 499 1028 q 668 899 631 960 q 706 760 706 839 l 581 760 q 533 873 581 829 q 413 917 486 917 q 293 873 339 917 q 247 760 247 829 q 277 665 247 704 q 361 610 307 625 l 519 565 q 677 460 621 538 q 733 278 733 383 q 649 65 733 144 q 422 -14 564 -14 m 264 -333 l 396 -132 l 542 -132 l 396 -333 l 264 -333 z "},"ș":{"ha":833,"x_min":118,"x_max":715,"o":"m 386 -11 q 188 47 258 -11 q 118 210 118 104 l 243 210 q 281 127 243 157 q 386 97 318 97 l 447 97 q 555 128 517 97 q 593 214 593 158 q 503 325 593 313 l 292 356 q 171 420 214 367 q 128 561 128 474 q 197 718 128 661 q 386 775 265 775 l 447 775 q 628 720 558 775 q 704 576 699 665 l 578 576 q 540 643 575 617 q 447 669 504 669 l 386 669 q 286 640 322 669 q 250 561 250 611 q 324 469 250 481 l 521 442 q 715 214 715 414 q 645 48 715 107 q 447 -11 575 -11 l 386 -11 m 264 -333 l 396 -132 l 542 -132 l 396 -333 l 264 -333 z "},"Ț":{"ha":833,"x_min":76,"x_max":757,"o":"m 354 0 l 354 900 l 76 900 l 76 1014 l 757 1014 l 757 900 l 479 900 l 479 0 l 354 0 m 264 -333 l 396 -132 l 542 -132 l 396 -333 l 264 -333 z "},"ț":{"ha":833,"x_min":65,"x_max":722,"o":"m 493 0 q 342 55 399 0 q 285 201 285 110 l 285 650 l 65 650 l 65 764 l 285 764 l 285 979 l 410 979 l 410 764 l 722 764 l 722 650 l 410 650 l 410 201 q 433 138 410 163 q 493 114 456 114 l 715 114 l 715 0 l 493 0 m 347 -333 l 479 -132 l 625 -132 l 479 -333 l 347 -333 z "},"Ȳ":{"ha":833,"x_min":49,"x_max":785,"o":"m 354 0 l 354 379 l 49 1014 l 182 1014 l 379 597 q 406 538 396 563 q 418 503 415 514 q 431 538 421 514 q 458 597 442 563 l 656 1014 l 785 1014 l 479 379 l 479 0 l 354 0 m 194 1167 l 194 1271 l 639 1271 l 639 1167 l 194 1167 z "},"ȳ":{"ha":833,"x_min":75,"x_max":758,"o":"m 247 -250 l 360 47 l 75 764 l 210 764 l 390 292 q 411 233 401 264 q 425 181 421 203 q 439 233 429 203 q 458 292 449 264 l 626 764 l 758 764 l 378 -250 l 247 -250 m 194 931 l 194 1035 l 639 1035 l 639 931 l 194 931 z "},"ȷ":{"ha":833,"x_min":118,"x_max":604,"o":"m 125 -250 l 125 -136 l 297 -136 q 431 -89 383 -136 q 479 43 479 -42 l 479 650 l 118 650 l 118 764 l 604 764 l 604 43 q 521 -171 604 -92 q 297 -250 438 -250 l 125 -250 z "},"ə":{"ha":833,"x_min":125,"x_max":708,"o":"m 417 -14 q 203 66 282 -14 q 125 278 125 146 l 125 413 l 586 413 l 586 486 q 544 624 586 576 q 417 672 503 672 q 253 569 274 672 l 128 569 q 218 722 140 665 q 417 778 296 778 q 631 698 553 778 q 708 486 708 618 l 708 278 q 631 66 708 146 q 417 -14 553 -14 m 417 90 q 544 139 503 90 q 586 278 586 188 l 586 318 l 247 318 l 247 278 q 290 139 247 188 q 417 90 332 90 z "},"ʹ":{"ha":833,"x_min":229,"x_max":521,"o":"m 229 569 l 340 1001 l 521 1001 l 340 569 l 229 569 z "},"ʺ":{"ha":833,"x_min":76,"x_max":750,"o":"m 458 568 l 569 1000 l 750 1000 l 569 568 l 458 568 m 76 568 l 188 1000 l 368 1000 l 188 568 l 76 568 z "},"ʼ":{"ha":833,"x_min":229,"x_max":521,"o":"m 229 646 l 340 1078 l 521 1078 l 340 646 l 229 646 z "},"ˆ":{"ha":833,"x_min":165,"x_max":668,"o":"m 165 896 l 358 1090 l 474 1090 l 668 896 l 531 896 l 417 1004 l 306 896 l 165 896 z "},"ˇ":{"ha":833,"x_min":165,"x_max":668,"o":"m 360 896 l 165 1090 l 303 1090 l 417 982 l 528 1090 l 668 1090 l 475 896 l 360 896 z "},"ˉ":{"ha":833,"x_min":194,"x_max":639,"o":"m 194 931 l 194 1035 l 639 1035 l 639 931 l 194 931 z "},"˘":{"ha":833,"x_min":194,"x_max":639,"o":"m 417 889 q 256 944 317 889 q 194 1090 194 1000 l 293 1090 q 326 1003 293 1036 q 415 969 360 969 q 506 1003 472 969 q 540 1090 540 1036 l 639 1090 q 578 944 639 1000 q 417 889 517 889 z "},"˙":{"ha":833,"x_min":318,"x_max":515,"o":"m 417 901 q 344 925 371 901 q 318 989 318 949 q 344 1055 318 1031 q 417 1079 371 1079 q 489 1055 463 1079 q 515 989 515 1031 q 489 925 515 949 q 417 901 463 901 z "},"˚":{"ha":833,"x_min":250,"x_max":583,"o":"m 417 844 q 296 888 342 844 q 250 1003 250 932 q 296 1117 250 1074 q 417 1161 342 1161 q 538 1117 492 1161 q 583 1003 583 1074 q 538 888 583 932 q 417 844 492 844 m 417 918 q 477 941 454 918 q 500 1003 500 964 q 477 1065 500 1042 q 417 1089 454 1089 q 356 1065 379 1089 q 333 1003 333 1042 q 356 941 333 964 q 417 918 379 918 z "},"˛":{"ha":833,"x_min":257,"x_max":535,"o":"m 426 -282 q 303 -245 350 -282 q 257 -153 257 -208 q 283 -72 257 -112 q 375 14 310 -32 l 479 14 l 464 1 q 396 -69 417 -37 q 375 -129 375 -100 q 396 -179 375 -160 q 451 -199 417 -199 l 535 -199 l 535 -282 l 426 -282 z "},"˜":{"ha":833,"x_min":194,"x_max":639,"o":"m 514 903 q 446 917 472 903 q 401 951 419 932 q 367 985 383 971 q 326 1000 350 1000 q 285 951 285 1000 l 285 910 l 194 910 l 194 951 q 229 1049 194 1014 q 319 1083 264 1083 q 388 1069 361 1083 q 432 1035 414 1054 q 467 1001 450 1015 q 507 986 483 986 q 549 1035 549 986 l 549 1076 l 639 1076 l 639 1035 q 605 938 639 972 q 514 903 571 903 z "},"˝":{"ha":833,"x_min":204,"x_max":733,"o":"m 453 896 l 606 1090 l 733 1090 l 574 896 l 453 896 m 204 896 l 357 1090 l 485 1090 l 325 896 l 204 896 z "},"˳":{"ha":833,"x_min":250,"x_max":583,"o":"m 417 -347 q 296 -309 342 -347 q 250 -208 250 -271 q 296 -108 250 -146 q 417 -69 342 -69 q 538 -108 492 -69 q 583 -208 583 -146 q 538 -309 583 -271 q 417 -347 492 -347 m 415 -276 q 477 -258 454 -276 q 500 -208 500 -239 q 478 -156 500 -172 q 415 -139 456 -139 q 356 -158 379 -139 q 333 -208 333 -176 q 356 -258 333 -239 q 415 -276 379 -276 z "},"˷":{"ha":833,"x_min":194,"x_max":639,"o":"m 514 -292 q 446 -277 472 -292 q 401 -243 419 -262 q 367 -209 383 -224 q 326 -194 350 -194 q 285 -243 285 -194 l 285 -285 l 194 -285 l 194 -243 q 229 -146 194 -181 q 319 -111 264 -111 q 388 -126 361 -111 q 432 -160 414 -140 q 467 -194 450 -179 q 507 -208 483 -208 q 549 -160 549 -208 l 549 -118 l 639 -118 l 639 -160 q 605 -257 639 -222 q 514 -292 571 -292 z "},"̀":{"ha":0,"x_min":-608,"x_max":-317,"o":"m -449 896 l -608 1090 l -469 1090 l -317 896 l -449 896 z "},"́":{"ha":0,"x_min":-511,"x_max":-229,"o":"m -511 896 l -364 1090 l -229 1090 l -383 896 l -511 896 z "},"̂":{"ha":0,"x_min":-668,"x_max":-165,"o":"m -668 896 l -475 1090 l -360 1090 l -165 896 l -303 896 l -417 1004 l -528 896 l -668 896 z "},"̃":{"ha":0,"x_min":-639,"x_max":-194,"o":"m -319 903 q -387 917 -361 903 q -432 951 -414 932 q -467 985 -450 971 q -507 1000 -483 1000 q -549 951 -549 1000 l -549 910 l -639 910 l -639 951 q -604 1049 -639 1014 q -514 1083 -569 1083 q -446 1069 -472 1083 q -401 1035 -419 1054 q -367 1001 -383 1015 q -326 986 -350 986 q -285 1035 -285 986 l -285 1076 l -194 1076 l -194 1035 q -228 938 -194 972 q -319 903 -262 903 z "},"̄":{"ha":0,"x_min":-639,"x_max":-194,"o":"m -639 931 l -639 1035 l -194 1035 l -194 931 l -639 931 z "},"̆":{"ha":0,"x_min":-639,"x_max":-194,"o":"m -417 889 q -578 944 -517 889 q -639 1090 -639 1000 l -540 1090 q -507 1003 -540 1036 q -418 969 -474 969 q -327 1003 -361 969 q -293 1090 -293 1036 l -194 1090 q -256 944 -194 1000 q -417 889 -317 889 z "},"̇":{"ha":0,"x_min":-515,"x_max":-318,"o":"m -417 901 q -489 925 -462 901 q -515 989 -515 949 q -489 1055 -515 1031 q -417 1079 -462 1079 q -344 1055 -371 1079 q -318 989 -318 1031 q -344 925 -318 949 q -417 901 -371 901 z "},"̈":{"ha":0,"x_min":-660,"x_max":-174,"o":"m -262 901 q -327 925 -303 901 q -351 989 -351 949 q -327 1055 -351 1031 q -262 1079 -303 1079 q -198 1055 -222 1079 q -174 989 -174 1031 q -198 925 -174 949 q -262 901 -222 901 m -571 901 q -635 925 -611 901 q -660 989 -660 949 q -635 1055 -660 1031 q -571 1079 -611 1079 q -506 1055 -531 1079 q -482 989 -482 1031 q -506 925 -482 949 q -571 901 -531 901 z "},"̉":{"ha":0,"x_min":-542,"x_max":-278,"o":"m -475 896 l -406 983 q -386 1028 -386 1010 q -431 1056 -386 1056 l -542 1056 l -542 1146 l -396 1146 q -310 1119 -343 1146 q -278 1043 -278 1092 q -301 968 -278 999 l -357 896 l -475 896 z "},"̊":{"ha":0,"x_min":-583,"x_max":-250,"o":"m -417 844 q -537 888 -492 844 q -583 1003 -583 932 q -537 1117 -583 1074 q -417 1161 -492 1161 q -296 1117 -342 1161 q -250 1003 -250 1074 q -296 888 -250 932 q -417 844 -342 844 m -417 918 q -356 941 -379 918 q -333 1003 -333 964 q -356 1065 -333 1042 q -417 1089 -379 1089 q -477 1065 -454 1089 q -500 1003 -500 1042 q -477 941 -500 964 q -417 918 -454 918 z "},"̋":{"ha":0,"x_min":-629,"x_max":-100,"o":"m -381 896 l -228 1090 l -100 1090 l -260 896 l -381 896 m -629 896 l -476 1090 l -349 1090 l -508 896 l -629 896 z "},"̌":{"ha":0,"x_min":-668,"x_max":-165,"o":"m -474 896 l -668 1090 l -531 1090 l -417 982 l -306 1090 l -165 1090 l -358 896 l -474 896 z "},"̏":{"ha":0,"x_min":-733,"x_max":-204,"o":"m -453 896 l -574 896 l -733 1090 l -606 1090 l -453 896 m -204 896 l -325 896 l -485 1090 l -357 1090 l -204 896 z "},"̒":{"ha":0,"x_min":-542,"x_max":-257,"o":"m -257 1222 l -368 896 l -542 896 l -361 1222 l -257 1222 z "},"̛":{"ha":0,"x_min":-322,"x_max":-133,"o":"m -322 674 l -322 764 l -286 764 q -237 813 -237 764 l -237 917 l -133 917 l -133 806 q -174 710 -133 746 q -279 674 -214 674 l -322 674 z "},"̣":{"ha":0,"x_min":-515,"x_max":-318,"o":"m -417 -296 q -489 -272 -462 -296 q -515 -208 -515 -249 q -489 -142 -515 -167 q -417 -118 -462 -118 q -344 -142 -371 -118 q -318 -208 -318 -167 q -344 -272 -318 -249 q -417 -296 -371 -296 z "},"̥":{"ha":0,"x_min":-583,"x_max":-250,"o":"m -417 -347 q -537 -309 -492 -347 q -583 -208 -583 -271 q -537 -108 -583 -146 q -417 -69 -492 -69 q -296 -108 -342 -69 q -250 -208 -250 -146 q -296 -309 -250 -271 q -417 -347 -342 -347 m -418 -276 q -356 -258 -379 -276 q -333 -208 -333 -239 q -356 -156 -333 -172 q -418 -139 -378 -139 q -477 -158 -454 -139 q -500 -208 -500 -176 q -477 -258 -500 -239 q -418 -276 -454 -276 z "},"̦":{"ha":0,"x_min":-569,"x_max":-292,"o":"m -569 -333 l -437 -132 l -292 -132 l -437 -333 l -569 -333 z "},"̧":{"ha":0,"x_min":-549,"x_max":-264,"o":"m -549 -282 l -549 -206 l -451 -206 q -402 -190 -421 -206 q -383 -156 -383 -174 q -422 -114 -383 -132 q -529 -96 -460 -96 l -481 36 l -401 36 l -431 -49 q -356 -67 -394 -53 q -290 -106 -317 -81 q -264 -167 -264 -131 q -310 -248 -264 -214 q -431 -282 -356 -282 l -549 -282 z "},"̨":{"ha":0,"x_min":-576,"x_max":-299,"o":"m -407 -282 q -530 -245 -483 -282 q -576 -153 -576 -208 q -550 -72 -576 -112 q -458 14 -524 -32 l -354 14 l -369 1 q -437 -69 -417 -37 q -458 -129 -458 -100 q -437 -179 -458 -160 q -382 -199 -417 -199 l -299 -199 l -299 -282 l -407 -282 z "},"̶":{"ha":0,"x_min":-875,"x_max":42,"o":"m -875 403 l -875 500 l 42 500 l 42 403 l -875 403 z "},"̷":{"ha":0,"x_min":-785,"x_max":-49,"o":"m -785 -42 l -175 819 l -49 819 l -660 -42 l -785 -42 z "},"̸":{"ha":0,"x_min":-681,"x_max":-153,"o":"m -681 -153 l -240 917 l -153 917 l -593 -153 l -681 -153 z "},"ʹ":{"ha":833,"x_min":229,"x_max":521,"o":"m 229 569 l 340 1001 l 521 1001 l 340 569 l 229 569 z "},"͵":{"ha":833,"x_min":292,"x_max":518,"o":"m 292 -222 l 368 203 l 518 203 l 421 -222 l 292 -222 z "},";":{"ha":833,"x_min":285,"x_max":535,"o":"m 403 569 q 328 599 357 569 q 299 674 299 628 q 328 748 299 718 q 403 778 358 778 l 431 778 q 505 748 475 778 q 535 674 535 718 q 506 599 535 628 q 431 569 476 569 l 403 569 m 285 -222 l 361 203 l 511 203 l 414 -222 l 285 -222 z "},"΄":{"ha":833,"x_min":292,"x_max":578,"o":"m 292 896 l 439 1090 l 578 1090 l 424 896 l 292 896 z "},"΅":{"ha":833,"x_min":174,"x_max":660,"o":"m 360 1068 l 468 1250 l 579 1250 l 457 1068 l 360 1068 m 571 901 q 506 925 531 901 q 482 989 482 949 q 506 1055 482 1031 q 571 1079 531 1079 q 635 1055 611 1079 q 660 989 660 1031 q 635 925 660 949 q 571 901 611 901 m 263 901 q 198 925 222 901 q 174 989 174 949 q 198 1055 174 1031 q 263 1079 222 1079 q 327 1055 303 1079 q 351 989 351 1031 q 327 925 351 949 q 263 901 303 901 z "},"Ά":{"ha":833,"x_min":14,"x_max":764,"o":"m 69 0 l 333 1014 l 501 1014 l 764 0 l 638 0 l 571 269 l 264 269 l 197 0 l 69 0 m 289 375 l 544 375 l 467 688 q 432 836 444 776 q 417 914 419 896 q 401 836 414 896 q 367 689 389 776 l 289 375 m 14 792 l 92 1014 l 222 1014 l 133 792 l 14 792 z "},"·":{"ha":833,"x_min":303,"x_max":531,"o":"m 417 368 q 334 399 365 368 q 303 478 303 429 q 334 561 303 529 q 417 593 365 593 q 499 561 468 593 q 531 478 531 529 q 499 399 531 429 q 417 368 468 368 z "},"Έ":{"ha":833,"x_min":-160,"x_max":722,"o":"m 139 0 l 139 1014 l 722 1014 l 722 900 l 263 900 l 263 586 l 674 586 l 674 475 l 263 475 l 263 114 l 722 114 l 722 0 l 139 0 m -160 792 l -82 1014 l 49 1014 l -40 792 l -160 792 z "},"Ή":{"ha":833,"x_min":-160,"x_max":704,"o":"m -160 792 l -82 1014 l 49 1014 l -40 792 l -160 792 m 129 0 l 129 1014 l 254 1014 l 254 581 l 579 581 l 579 1014 l 704 1014 l 704 0 l 579 0 l 579 467 l 254 467 l 254 0 l 129 0 z "},"Ί":{"ha":833,"x_min":-160,"x_max":688,"o":"m -160 792 l -82 1014 l 49 1014 l -40 792 l -160 792 m 146 0 l 146 114 l 353 114 l 353 900 l 146 900 l 146 1014 l 688 1014 l 688 900 l 481 900 l 481 114 l 688 114 l 688 0 l 146 0 z "},"Ό":{"ha":833,"x_min":-111,"x_max":711,"o":"m -111 792 l -33 1014 l 97 1014 l 8 792 l -111 792 m 417 -14 q 201 65 281 -14 q 122 292 122 144 l 122 722 q 201 949 122 869 q 417 1028 281 1028 q 632 949 553 1028 q 711 724 711 869 l 711 292 q 632 65 711 144 q 417 -14 553 -14 m 417 99 q 542 145 499 99 q 586 278 586 192 l 586 736 q 542 869 586 822 q 417 915 499 915 q 292 869 336 915 q 247 736 247 822 l 247 278 q 292 145 247 192 q 417 99 336 99 z "},"Ύ":{"ha":833,"x_min":-174,"x_max":785,"o":"m -174 792 l -96 1014 l 35 1014 l -54 792 l -174 792 m 354 0 l 354 379 l 49 1014 l 182 1014 l 379 597 q 406 538 396 563 q 418 503 415 514 q 431 538 421 514 q 458 597 442 563 l 656 1014 l 785 1014 l 479 379 l 479 0 l 354 0 z "},"Ώ":{"ha":833,"x_min":-111,"x_max":765,"o":"m 69 0 l 69 111 l 271 111 l 271 118 q 200 147 238 122 q 137 219 163 171 q 111 340 111 267 l 111 729 q 194 947 111 865 q 417 1028 276 1028 q 640 947 557 1028 q 722 729 722 865 l 722 340 q 697 219 722 267 q 634 148 671 172 q 563 119 597 124 l 563 111 l 765 111 l 765 0 l 472 0 l 472 153 q 563 203 528 153 q 597 333 597 254 l 597 729 q 548 866 597 815 q 417 917 499 917 q 285 866 335 917 q 236 729 236 815 l 236 333 q 271 203 236 254 q 361 153 306 153 l 361 0 l 69 0 m -111 792 l -33 1014 l 97 1014 l 8 792 l -111 792 z "},"ΐ":{"ha":833,"x_min":76,"x_max":764,"o":"m 569 0 q 408 59 468 0 q 347 215 347 118 l 347 650 l 76 650 l 76 764 l 472 764 l 472 215 q 499 141 472 168 q 569 114 525 114 l 764 114 l 764 0 l 569 0 m 360 1068 l 468 1250 l 579 1250 l 457 1068 l 360 1068 m 571 901 q 506 925 531 901 q 482 989 482 949 q 506 1055 482 1031 q 571 1079 531 1079 q 635 1055 611 1079 q 660 989 660 1031 q 635 925 660 949 q 571 901 611 901 m 263 901 q 198 925 222 901 q 174 989 174 949 q 198 1055 174 1031 q 263 1079 222 1079 q 327 1055 303 1079 q 351 989 351 1031 q 327 925 351 949 q 263 901 303 901 z "},"Α":{"ha":833,"x_min":69,"x_max":764,"o":"m 69 0 l 333 1014 l 501 1014 l 764 0 l 638 0 l 571 269 l 264 269 l 197 0 l 69 0 m 289 375 l 544 375 l 467 688 q 432 836 444 776 q 417 914 419 896 q 401 836 414 896 q 367 689 389 776 l 289 375 z "},"Β":{"ha":833,"x_min":129,"x_max":736,"o":"m 129 0 l 129 1014 l 417 1014 q 634 944 556 1014 q 713 751 713 875 q 663 611 713 674 q 535 533 614 549 l 535 529 q 640 488 594 522 q 710 399 685 453 q 736 282 736 346 q 656 76 736 151 q 438 0 576 0 l 129 0 m 251 582 l 415 582 q 542 625 496 582 q 589 742 589 668 q 543 858 589 815 q 417 901 497 901 l 251 901 l 251 582 m 251 113 l 424 113 q 562 159 511 113 q 613 286 613 206 q 562 422 613 369 q 424 474 511 474 l 251 474 l 251 113 z "},"Γ":{"ha":833,"x_min":181,"x_max":771,"o":"m 181 0 l 181 1014 l 771 1014 l 771 900 l 306 900 l 306 0 l 181 0 z "},"Δ":{"ha":833,"x_min":69,"x_max":764,"o":"m 69 0 l 333 1014 l 501 1014 l 764 0 l 69 0 m 367 689 l 225 111 l 610 111 l 467 688 q 436 823 449 760 q 417 917 424 886 q 398 824 411 886 q 367 689 385 761 z "},"Ε":{"ha":833,"x_min":139,"x_max":722,"o":"m 139 0 l 139 1014 l 722 1014 l 722 900 l 263 900 l 263 586 l 674 586 l 674 475 l 263 475 l 263 114 l 722 114 l 722 0 l 139 0 z "},"Ζ":{"ha":833,"x_min":118,"x_max":715,"o":"m 118 0 l 118 125 l 575 900 l 125 900 l 125 1014 l 701 1014 l 701 889 l 244 114 l 715 114 l 715 0 l 118 0 z "},"Η":{"ha":833,"x_min":129,"x_max":704,"o":"m 129 0 l 129 1014 l 254 1014 l 254 581 l 579 581 l 579 1014 l 704 1014 l 704 0 l 579 0 l 579 467 l 254 467 l 254 0 l 129 0 z "},"Θ":{"ha":833,"x_min":122,"x_max":711,"o":"m 417 -14 q 201 64 281 -14 q 122 278 122 142 l 122 736 q 201 950 122 872 q 417 1028 281 1028 q 632 951 553 1028 q 711 738 711 874 l 711 278 q 632 64 711 142 q 417 -14 553 -14 m 417 99 q 542 145 499 99 q 586 278 586 192 l 586 736 q 542 869 586 822 q 417 915 499 915 q 292 869 336 915 q 247 736 247 822 l 247 278 q 292 145 247 192 q 417 99 336 99 m 292 451 l 292 565 l 542 565 l 542 451 l 292 451 z "},"Ι":{"ha":833,"x_min":146,"x_max":688,"o":"m 146 0 l 146 114 l 353 114 l 353 900 l 146 900 l 146 1014 l 688 1014 l 688 900 l 481 900 l 481 114 l 688 114 l 688 0 l 146 0 z "},"Κ":{"ha":833,"x_min":128,"x_max":778,"o":"m 128 0 l 128 1014 l 253 1014 l 253 578 l 403 578 l 628 1014 l 764 1014 l 513 525 l 778 0 l 635 0 l 399 468 l 253 468 l 253 0 l 128 0 z "},"Λ":{"ha":833,"x_min":69,"x_max":764,"o":"m 69 0 l 333 1014 l 501 1014 l 764 0 l 638 0 l 467 688 q 430 851 443 786 q 417 917 417 917 q 403 852 417 917 q 367 689 390 788 l 197 0 l 69 0 z "},"Μ":{"ha":833,"x_min":100,"x_max":733,"o":"m 100 0 l 100 1014 l 285 1014 l 414 575 l 549 1014 l 733 1014 l 733 0 l 613 0 l 613 479 q 615 635 613 547 q 621 814 617 724 q 631 976 625 904 l 467 453 l 358 453 l 201 964 q 217 739 213 861 q 221 479 221 617 l 221 0 l 100 0 z "},"Ν":{"ha":833,"x_min":125,"x_max":708,"o":"m 125 0 l 125 1014 l 292 1014 l 601 146 q 595 231 599 181 q 590 338 592 282 q 588 444 588 394 l 588 1014 l 708 1014 l 708 0 l 542 0 l 233 868 q 239 784 236 835 q 244 677 242 733 q 246 569 246 621 l 246 0 l 125 0 z "},"Ξ":{"ha":833,"x_min":111,"x_max":722,"o":"m 111 900 l 111 1014 l 722 1014 l 722 900 l 111 900 m 153 457 l 153 571 l 681 571 l 681 457 l 153 457 m 111 0 l 111 114 l 722 114 l 722 0 l 111 0 z "},"Ο":{"ha":833,"x_min":122,"x_max":711,"o":"m 417 -14 q 201 65 281 -14 q 122 292 122 144 l 122 722 q 201 949 122 869 q 417 1028 281 1028 q 632 949 553 1028 q 711 724 711 869 l 711 292 q 632 65 711 144 q 417 -14 553 -14 m 417 99 q 542 145 499 99 q 586 278 586 192 l 586 736 q 542 869 586 822 q 417 915 499 915 q 292 869 336 915 q 247 736 247 822 l 247 278 q 292 145 247 192 q 417 99 336 99 z "},"Π":{"ha":833,"x_min":131,"x_max":703,"o":"m 131 0 l 131 1014 l 703 1014 l 703 0 l 578 0 l 578 900 l 256 900 l 256 0 l 131 0 z "},"Ρ":{"ha":833,"x_min":128,"x_max":764,"o":"m 128 0 l 128 1014 l 454 1014 q 680 933 596 1014 q 764 715 764 851 q 680 498 764 579 q 454 417 596 417 l 253 417 l 253 0 l 128 0 m 253 529 l 454 529 q 585 580 536 529 q 635 715 635 631 q 585 851 635 801 q 454 901 536 901 l 253 901 l 253 529 z "},"Σ":{"ha":833,"x_min":104,"x_max":764,"o":"m 104 0 l 104 111 l 426 515 l 104 903 l 104 1014 l 764 1014 l 764 903 l 251 903 l 578 521 l 250 111 l 764 111 l 764 0 l 104 0 z "},"Τ":{"ha":833,"x_min":76,"x_max":757,"o":"m 354 0 l 354 900 l 76 900 l 76 1014 l 757 1014 l 757 900 l 479 900 l 479 0 l 354 0 z "},"Υ":{"ha":833,"x_min":49,"x_max":785,"o":"m 354 0 l 354 379 l 49 1014 l 182 1014 l 379 597 q 406 538 396 563 q 418 503 415 514 q 431 538 421 514 q 458 597 442 563 l 656 1014 l 785 1014 l 479 379 l 479 0 l 354 0 z "},"Φ":{"ha":833,"x_min":64,"x_max":769,"o":"m 354 -35 l 354 76 q 206 113 271 76 q 102 213 140 149 q 64 365 64 278 l 64 669 q 101 826 64 760 q 205 928 139 892 q 354 965 271 965 l 354 1069 l 479 1069 l 479 965 q 629 928 564 965 q 732 826 694 892 q 769 669 769 760 l 769 365 q 731 213 769 278 q 628 113 693 149 q 479 76 563 76 l 479 -35 l 354 -35 m 360 182 l 360 860 q 231 809 282 860 q 181 669 181 758 l 181 365 q 231 231 181 281 q 360 182 282 182 m 474 182 q 602 231 551 182 q 653 365 653 281 l 653 669 q 602 809 653 758 q 474 860 551 860 l 474 182 z "},"Χ":{"ha":833,"x_min":56,"x_max":778,"o":"m 56 0 l 347 514 l 71 1014 l 215 1014 l 372 714 q 398 663 385 690 q 419 621 411 636 q 440 663 426 636 q 465 714 453 690 l 625 1014 l 763 1014 l 486 522 l 778 0 l 635 0 l 461 322 q 435 373 449 346 q 415 417 422 400 q 395 374 408 400 q 369 324 382 347 l 194 0 l 56 0 z "},"Ψ":{"ha":833,"x_min":75,"x_max":758,"o":"m 354 0 l 354 236 q 208 272 271 236 q 110 373 146 308 q 75 525 75 438 l 75 1014 l 192 1014 l 192 525 q 238 392 192 440 q 363 344 285 344 l 363 1014 l 471 1014 l 471 344 q 595 392 549 344 q 642 525 642 440 l 642 1014 l 758 1014 l 758 525 q 724 373 758 438 q 626 272 689 308 q 479 236 563 236 l 479 0 l 354 0 z "},"Ω":{"ha":833,"x_min":69,"x_max":765,"o":"m 69 0 l 69 111 l 271 111 l 271 118 q 200 147 238 122 q 137 219 163 171 q 111 340 111 267 l 111 729 q 194 947 111 865 q 417 1028 276 1028 q 640 947 557 1028 q 722 729 722 865 l 722 340 q 697 219 722 267 q 634 148 671 172 q 563 119 597 124 l 563 111 l 765 111 l 765 0 l 472 0 l 472 153 q 563 203 528 153 q 597 333 597 254 l 597 729 q 548 866 597 815 q 417 917 499 917 q 285 866 335 917 q 236 729 236 815 l 236 333 q 271 203 236 254 q 361 153 306 153 l 361 0 l 69 0 z "},"Ϊ":{"ha":833,"x_min":146,"x_max":688,"o":"m 571 1135 q 506 1158 531 1135 q 482 1222 482 1182 q 506 1288 482 1264 q 571 1313 531 1313 q 635 1288 611 1313 q 660 1222 660 1264 q 635 1158 660 1182 q 571 1135 611 1135 m 263 1135 q 198 1158 222 1135 q 174 1222 174 1182 q 198 1288 174 1264 q 263 1313 222 1313 q 327 1288 303 1313 q 351 1222 351 1264 q 327 1158 351 1182 q 263 1135 303 1135 m 146 0 l 146 114 l 353 114 l 353 900 l 146 900 l 146 1014 l 688 1014 l 688 900 l 481 900 l 481 114 l 688 114 l 688 0 l 146 0 z "},"Ϋ":{"ha":833,"x_min":49,"x_max":785,"o":"m 571 1135 q 506 1158 531 1135 q 482 1222 482 1182 q 506 1288 482 1264 q 571 1313 531 1313 q 635 1288 611 1313 q 660 1222 660 1264 q 635 1158 660 1182 q 571 1135 611 1135 m 263 1135 q 198 1158 222 1135 q 174 1222 174 1182 q 198 1288 174 1264 q 263 1313 222 1313 q 327 1288 303 1313 q 351 1222 351 1264 q 327 1158 351 1182 q 263 1135 303 1135 m 354 0 l 354 379 l 49 1014 l 182 1014 l 379 597 q 406 538 396 563 q 418 503 415 514 q 431 538 421 514 q 458 597 442 563 l 656 1014 l 785 1014 l 479 379 l 479 0 l 354 0 z "},"ά":{"ha":833,"x_min":118,"x_max":706,"o":"m 325 896 l 472 1090 l 611 1090 l 457 896 l 325 896 m 372 -14 q 188 63 258 -14 q 118 269 118 139 l 118 493 q 188 701 118 625 q 372 778 257 778 q 514 735 458 778 q 579 618 569 692 l 583 618 l 581 764 l 706 764 l 706 0 l 581 0 l 581 146 l 579 146 q 514 28 569 71 q 372 -14 458 -14 m 414 94 q 536 143 492 94 q 581 278 581 192 l 581 486 q 536 621 581 572 q 414 669 492 669 q 289 622 335 669 q 243 486 243 575 l 243 278 q 289 142 243 189 q 414 94 335 94 z "},"έ":{"ha":833,"x_min":104,"x_max":736,"o":"m 464 -10 l 390 -10 q 181 52 258 -10 q 104 218 104 114 q 150 354 104 301 q 279 413 196 407 l 279 418 q 166 467 210 424 q 122 575 122 511 q 195 722 122 671 q 393 774 268 774 l 458 774 q 649 720 578 774 q 721 576 719 667 l 596 576 q 557 640 594 617 q 458 664 519 664 l 393 664 q 291 635 329 664 q 253 558 253 607 q 291 479 253 508 q 394 450 329 450 l 557 450 l 557 342 l 390 342 q 276 309 318 342 q 235 219 235 276 q 276 134 235 165 q 390 103 318 103 l 464 103 q 572 132 532 103 q 611 210 611 161 l 736 210 q 663 49 736 108 q 464 -10 589 -10 m 333 896 l 481 1090 l 619 1090 l 465 896 l 333 896 z "},"ή":{"ha":833,"x_min":128,"x_max":708,"o":"m 128 0 l 128 764 l 253 764 l 253 618 l 254 618 q 317 736 264 694 q 457 778 369 778 q 640 707 572 778 q 708 514 708 636 l 708 0 l 583 0 l 583 492 q 540 626 583 579 q 421 672 496 672 q 298 624 343 672 q 253 486 253 575 l 253 0 l 128 0 m 340 896 l 488 1090 l 626 1090 l 472 896 l 340 896 z "},"ί":{"ha":833,"x_min":76,"x_max":764,"o":"m 569 0 q 408 59 468 0 q 347 215 347 118 l 347 650 l 76 650 l 76 764 l 472 764 l 472 215 q 499 141 472 168 q 569 114 525 114 l 764 114 l 764 0 l 569 0 m 326 896 l 474 1090 l 613 1090 l 458 896 l 326 896 z "},"ΰ":{"ha":833,"x_min":125,"x_max":708,"o":"m 415 -14 q 204 65 283 -14 q 125 278 125 143 l 125 764 l 250 764 l 250 278 q 294 145 250 194 q 415 96 339 96 q 538 145 493 96 q 583 278 583 194 l 583 764 l 708 764 l 708 278 q 628 65 708 143 q 415 -14 547 -14 m 360 1068 l 468 1250 l 579 1250 l 457 1068 l 360 1068 m 571 901 q 506 925 531 901 q 482 989 482 949 q 506 1055 482 1031 q 571 1079 531 1079 q 635 1055 611 1079 q 660 989 660 1031 q 635 925 660 949 q 571 901 611 901 m 263 901 q 198 925 222 901 q 174 989 174 949 q 198 1055 174 1031 q 263 1079 222 1079 q 327 1055 303 1079 q 351 989 351 1031 q 327 925 351 949 q 263 901 303 901 z "},"α":{"ha":833,"x_min":118,"x_max":706,"o":"m 372 -14 q 188 63 258 -14 q 118 269 118 139 l 118 493 q 188 701 118 625 q 372 778 257 778 q 514 735 458 778 q 579 618 569 692 l 583 618 l 581 764 l 706 764 l 706 0 l 581 0 l 581 146 l 579 146 q 514 28 569 71 q 372 -14 458 -14 m 414 94 q 536 143 492 94 q 581 278 581 192 l 581 486 q 536 621 581 572 q 414 669 492 669 q 289 622 335 669 q 243 486 243 575 l 243 278 q 289 142 243 189 q 414 94 335 94 z "},"β":{"ha":833,"x_min":128,"x_max":747,"o":"m 128 -250 l 128 735 q 164 888 128 822 q 265 991 200 954 q 415 1028 331 1028 q 563 997 500 1028 q 663 909 626 965 q 699 779 699 853 q 654 642 699 701 q 539 564 610 582 l 539 560 q 648 514 601 551 q 721 419 694 476 q 747 290 747 361 q 710 131 747 200 q 607 24 674 63 q 453 -14 540 -14 q 316 28 369 -14 q 253 142 263 69 l 249 142 l 253 -28 l 253 -250 l 128 -250 m 439 100 q 569 155 519 100 q 619 297 619 210 q 569 440 619 385 q 438 494 519 494 l 361 494 l 361 600 l 415 600 q 532 644 488 600 q 576 758 576 688 q 532 873 576 829 q 415 917 488 917 q 298 867 343 917 q 253 735 253 817 l 253 297 q 305 155 253 210 q 439 100 357 100 z "},"γ":{"ha":833,"x_min":83,"x_max":750,"o":"m 354 -250 l 354 0 l 83 764 l 215 764 l 388 257 q 411 173 404 210 q 422 113 418 136 q 433 173 426 136 q 454 257 439 210 l 622 764 l 750 764 l 479 0 l 479 -250 l 354 -250 z "},"δ":{"ha":833,"x_min":117,"x_max":717,"o":"m 417 -14 q 199 66 282 -14 q 117 285 117 146 l 117 419 q 151 572 117 507 q 246 674 185 638 q 388 711 307 711 l 396 711 q 288 796 349 750 q 150 900 228 842 l 150 1014 l 696 1014 l 696 910 l 290 910 q 520 733 425 817 q 666 557 615 650 q 717 340 717 464 q 635 73 717 160 q 417 -14 553 -14 m 417 97 q 542 153 496 97 q 589 340 589 210 q 570 489 589 428 q 503 607 551 550 l 415 607 q 290 555 339 607 q 242 419 242 503 l 242 285 q 290 147 242 196 q 417 97 338 97 z "},"ε":{"ha":833,"x_min":104,"x_max":736,"o":"m 464 -10 l 390 -10 q 181 52 258 -10 q 104 218 104 114 q 150 354 104 301 q 279 413 196 407 l 279 418 q 166 467 210 424 q 122 575 122 511 q 195 722 122 671 q 393 774 268 774 l 458 774 q 649 720 578 774 q 721 576 719 667 l 596 576 q 557 640 594 617 q 458 664 519 664 l 393 664 q 291 635 329 664 q 253 558 253 607 q 291 479 253 508 q 394 450 329 450 l 557 450 l 557 342 l 390 342 q 276 309 318 342 q 235 219 235 276 q 276 134 235 165 q 390 103 318 103 l 464 103 q 572 132 532 103 q 611 210 611 161 l 736 210 q 663 49 736 108 q 464 -10 589 -10 z "},"ζ":{"ha":833,"x_min":146,"x_max":778,"o":"m 672 -257 l 575 -199 l 639 -97 q 653 -56 653 -75 q 606 -4 653 -19 l 422 49 q 214 157 282 89 q 146 326 146 225 q 214 517 146 419 q 433 743 282 615 l 619 900 l 167 900 l 167 1014 l 771 1014 l 771 889 l 513 658 q 331 470 388 547 q 274 328 274 393 q 464 165 274 221 l 643 114 q 743 54 708 96 q 778 -40 778 13 q 740 -151 778 -94 l 672 -257 z "},"η":{"ha":833,"x_min":128,"x_max":708,"o":"m 128 0 l 128 764 l 253 764 l 253 618 l 254 618 q 317 736 264 694 q 457 778 369 778 q 640 707 572 778 q 708 514 708 636 l 708 0 l 583 0 l 583 492 q 540 626 583 579 q 421 672 496 672 q 298 624 343 672 q 253 486 253 575 l 253 0 l 128 0 z "},"θ":{"ha":833,"x_min":122,"x_max":711,"o":"m 417 -14 q 201 64 281 -14 q 122 278 122 142 l 122 722 q 201 936 122 858 q 417 1014 281 1014 q 632 937 553 1014 q 711 724 711 860 l 711 278 q 632 64 711 142 q 417 -14 553 -14 m 247 560 l 586 560 l 586 722 q 542 857 586 811 q 417 903 499 903 q 292 857 336 903 q 247 722 247 811 l 247 560 m 417 97 q 542 143 499 97 q 586 278 586 189 l 586 451 l 247 451 l 247 278 q 292 143 247 189 q 417 97 336 97 z "},"ι":{"ha":833,"x_min":76,"x_max":764,"o":"m 569 0 q 408 59 468 0 q 347 215 347 118 l 347 650 l 76 650 l 76 764 l 472 764 l 472 215 q 499 141 472 168 q 569 114 525 114 l 764 114 l 764 0 l 569 0 z "},"κ":{"ha":833,"x_min":143,"x_max":785,"o":"m 143 0 l 143 764 l 268 764 l 268 449 l 417 449 l 628 764 l 771 764 l 524 397 l 785 0 l 639 0 l 418 335 l 268 335 l 268 0 l 143 0 z "},"λ":{"ha":833,"x_min":69,"x_max":764,"o":"m 69 0 l 353 751 l 250 1014 l 383 1014 l 764 0 l 631 0 l 449 496 q 422 582 431 544 q 407 640 414 619 q 401 582 407 619 q 379 496 396 544 l 204 0 l 69 0 z "},"μ":{"ha":833,"x_min":129,"x_max":704,"o":"m 129 -250 l 129 764 l 254 764 l 254 278 q 296 143 254 192 q 414 94 338 94 q 535 143 492 94 q 579 278 579 192 l 579 764 l 704 764 l 704 0 l 582 0 l 582 146 l 578 146 q 536 29 574 72 q 413 -14 499 -14 q 293 29 326 -14 q 256 146 260 72 l 251 146 l 254 -28 l 254 -250 l 129 -250 z "},"ν":{"ha":833,"x_min":75,"x_max":758,"o":"m 335 0 l 75 764 l 210 764 l 376 250 q 403 162 392 204 q 419 96 414 119 q 436 162 426 119 q 460 250 446 204 l 626 764 l 758 764 l 499 0 l 335 0 z "},"ξ":{"ha":833,"x_min":118,"x_max":754,"o":"m 451 914 q 328 868 375 914 q 281 753 281 822 q 328 645 281 685 q 451 606 375 606 l 654 606 l 654 494 l 457 494 q 308 446 365 494 q 250 319 250 397 q 411 163 250 211 l 610 101 q 733 -1 713 69 q 696 -165 754 -71 l 639 -257 l 542 -203 l 601 -106 q 614 -47 621 -72 q 568 -10 607 -22 l 375 51 q 181 158 244 93 q 118 319 118 224 q 172 478 118 411 q 313 560 226 544 l 313 564 q 195 638 240 582 q 150 774 150 694 q 188 905 150 847 q 294 995 226 963 q 451 1028 363 1028 q 606 997 540 1028 q 708 911 671 965 q 749 786 746 857 l 624 786 q 574 878 618 843 q 451 914 529 914 z "},"ο":{"ha":833,"x_min":117,"x_max":717,"o":"m 417 -11 q 198 69 279 -11 q 117 294 117 150 l 117 469 q 197 695 117 615 q 417 775 278 775 q 636 695 556 775 q 717 469 717 615 l 717 294 q 635 69 717 150 q 417 -11 554 -11 m 417 100 q 545 146 499 100 q 592 281 592 192 l 592 483 q 545 618 592 572 q 417 664 499 664 q 289 618 336 664 q 242 483 242 572 l 242 281 q 289 146 242 192 q 417 100 336 100 z "},"π":{"ha":833,"x_min":35,"x_max":771,"o":"m 744 -7 q 576 60 639 -7 q 513 236 513 126 l 513 653 l 272 653 l 272 0 l 151 0 l 151 653 l 35 653 l 35 764 l 769 764 l 769 653 l 632 653 l 632 228 q 660 140 632 171 q 738 110 689 110 l 771 110 l 771 -7 l 744 -7 z "},"ρ":{"ha":833,"x_min":131,"x_max":708,"o":"m 131 -250 l 131 494 q 208 702 131 626 q 421 778 286 778 q 632 702 556 778 q 708 494 708 626 l 708 271 q 642 63 708 139 q 461 -14 576 -14 q 321 29 375 -14 q 257 146 267 72 l 253 146 l 256 -28 l 256 -250 l 131 -250 m 419 94 q 541 142 499 94 q 583 278 583 189 l 583 486 q 541 622 583 575 q 419 669 499 669 q 298 622 340 669 q 256 486 256 575 l 256 278 q 299 143 256 192 q 419 94 343 94 z "},"ς":{"ha":833,"x_min":125,"x_max":726,"o":"m 479 -203 l 539 -106 q 551 -47 558 -72 q 506 -10 544 -22 l 342 42 q 182 142 239 74 q 125 306 125 211 l 125 486 q 208 700 125 622 q 429 778 290 778 q 642 707 561 778 q 726 514 722 636 l 601 514 q 552 627 597 588 q 429 667 507 667 q 299 620 347 667 q 250 488 250 574 l 250 306 q 284 214 250 254 q 378 154 318 174 l 547 101 q 671 -1 650 69 q 633 -165 692 -71 l 576 -257 l 479 -203 z "},"σ":{"ha":833,"x_min":118,"x_max":792,"o":"m 413 -14 q 258 23 324 -14 q 155 125 192 60 q 118 278 118 190 l 118 472 q 155 626 118 560 q 258 728 192 692 q 413 764 324 764 l 792 764 l 792 650 l 557 650 l 557 646 q 667 594 626 640 q 707 472 707 547 l 707 278 q 670 125 707 190 q 567 23 633 60 q 413 -14 501 -14 m 413 97 q 537 146 492 97 q 582 278 582 194 l 582 472 q 537 604 582 556 q 413 653 492 653 q 288 604 333 653 q 243 472 243 556 l 243 278 q 288 146 243 194 q 413 97 333 97 z "},"τ":{"ha":833,"x_min":65,"x_max":722,"o":"m 507 0 q 356 55 413 0 q 299 201 299 110 l 299 650 l 65 650 l 65 764 l 722 764 l 722 650 l 424 650 l 424 201 q 447 138 424 163 q 507 114 469 114 l 715 114 l 715 0 l 507 0 z "},"υ":{"ha":833,"x_min":125,"x_max":708,"o":"m 415 -14 q 204 65 283 -14 q 125 278 125 143 l 125 764 l 250 764 l 250 278 q 294 145 250 194 q 415 96 339 96 q 538 145 493 96 q 583 278 583 194 l 583 764 l 708 764 l 708 278 q 628 65 708 143 q 415 -14 547 -14 z "},"φ":{"ha":833,"x_min":75,"x_max":758,"o":"m 354 -250 l 354 0 q 209 36 272 0 q 110 138 146 72 q 75 288 75 203 l 75 490 q 99 622 75 563 q 165 722 122 682 q 264 771 208 761 l 264 639 q 213 591 233 632 q 193 497 193 550 l 192 281 q 239 149 190 200 q 365 99 288 99 l 365 764 l 476 764 q 623 729 560 764 q 722 633 686 694 q 758 490 758 572 l 758 288 q 723 138 758 203 q 625 36 688 72 q 479 0 563 0 l 479 -250 l 354 -250 m 468 99 q 594 149 546 99 q 642 281 642 200 l 642 497 q 596 619 642 572 q 476 667 550 667 l 468 667 l 468 99 z "},"χ":{"ha":833,"x_min":69,"x_max":764,"o":"m 69 0 l 340 393 l 86 764 l 233 764 l 385 528 q 403 494 394 513 q 418 465 413 476 q 431 494 422 476 q 450 528 440 513 l 601 764 l 749 764 l 494 392 l 764 0 l 617 0 l 453 250 q 434 285 443 265 q 418 318 425 306 q 402 285 413 306 q 381 250 392 265 l 217 0 l 69 0 z "},"ψ":{"ha":833,"x_min":75,"x_max":758,"o":"m 354 -250 l 354 0 q 151 75 226 0 q 75 281 75 150 l 75 764 l 192 764 l 192 281 q 235 149 192 196 q 363 101 278 101 l 363 764 l 471 764 l 471 101 q 599 149 556 101 q 642 281 642 196 l 642 764 l 758 764 l 758 281 q 683 75 758 150 q 479 0 607 0 l 479 -250 l 354 -250 z "},"ω":{"ha":833,"x_min":75,"x_max":758,"o":"m 251 -14 q 123 50 171 -14 q 75 224 75 114 l 75 483 q 128 684 75 604 q 271 778 181 764 l 271 646 q 215 597 236 639 q 193 492 193 556 l 193 215 q 217 125 193 158 q 279 92 240 92 q 340 125 318 92 q 363 215 363 158 l 363 479 l 471 479 l 471 215 q 493 125 471 158 q 554 92 515 92 q 617 125 594 92 q 640 215 640 158 l 640 492 q 617 591 640 551 q 556 639 594 631 l 556 771 q 704 679 650 757 q 758 483 758 601 l 758 224 q 711 50 758 114 q 582 -14 664 -14 q 469 30 514 -14 q 417 147 424 74 l 414 147 q 364 30 408 74 q 251 -14 319 -14 z "},"ϊ":{"ha":833,"x_min":76,"x_max":764,"o":"m 569 0 q 408 59 468 0 q 347 215 347 118 l 347 650 l 76 650 l 76 764 l 472 764 l 472 215 q 499 141 472 168 q 569 114 525 114 l 764 114 l 764 0 l 569 0 m 564 901 q 499 925 524 901 q 475 989 475 949 q 499 1055 475 1031 q 564 1079 524 1079 q 628 1055 604 1079 q 653 989 653 1031 q 628 925 653 949 q 564 901 604 901 m 256 901 q 191 925 215 901 q 167 989 167 949 q 191 1055 167 1031 q 256 1079 215 1079 q 320 1055 296 1079 q 344 989 344 1031 q 320 925 344 949 q 256 901 296 901 z "},"ϋ":{"ha":833,"x_min":125,"x_max":708,"o":"m 415 -14 q 204 65 283 -14 q 125 278 125 143 l 125 764 l 250 764 l 250 278 q 294 145 250 194 q 415 96 339 96 q 538 145 493 96 q 583 278 583 194 l 583 764 l 708 764 l 708 278 q 628 65 708 143 q 415 -14 547 -14 m 571 901 q 506 925 531 901 q 482 989 482 949 q 506 1055 482 1031 q 571 1079 531 1079 q 635 1055 611 1079 q 660 989 660 1031 q 635 925 660 949 q 571 901 611 901 m 263 901 q 198 925 222 901 q 174 989 174 949 q 198 1055 174 1031 q 263 1079 222 1079 q 327 1055 303 1079 q 351 989 351 1031 q 327 925 351 949 q 263 901 303 901 z "},"ό":{"ha":833,"x_min":117,"x_max":717,"o":"m 417 -11 q 198 69 279 -11 q 117 294 117 150 l 117 469 q 197 695 117 615 q 417 775 278 775 q 636 695 556 775 q 717 469 717 615 l 717 294 q 635 69 717 150 q 417 -11 554 -11 m 417 100 q 545 146 499 100 q 592 281 592 192 l 592 483 q 545 618 592 572 q 417 664 499 664 q 289 618 336 664 q 242 483 242 572 l 242 281 q 289 146 242 192 q 417 100 336 100 m 333 896 l 481 1090 l 619 1090 l 465 896 l 333 896 z "},"ύ":{"ha":833,"x_min":125,"x_max":708,"o":"m 415 -14 q 204 65 283 -14 q 125 278 125 143 l 125 764 l 250 764 l 250 278 q 294 145 250 194 q 415 96 339 96 q 538 145 493 96 q 583 278 583 194 l 583 764 l 708 764 l 708 278 q 628 65 708 143 q 415 -14 547 -14 m 333 896 l 481 1090 l 619 1090 l 465 896 l 333 896 z "},"ώ":{"ha":833,"x_min":75,"x_max":758,"o":"m 251 -14 q 123 50 171 -14 q 75 224 75 114 l 75 483 q 128 684 75 604 q 271 778 181 764 l 271 646 q 215 597 236 639 q 193 492 193 556 l 193 215 q 217 125 193 158 q 279 92 240 92 q 340 125 318 92 q 363 215 363 158 l 363 479 l 471 479 l 471 215 q 493 125 471 158 q 554 92 515 92 q 617 125 594 92 q 640 215 640 158 l 640 492 q 617 591 640 551 q 556 639 594 631 l 556 771 q 704 679 650 757 q 758 483 758 601 l 758 224 q 711 50 758 114 q 582 -14 664 -14 q 469 30 514 -14 q 417 147 424 74 l 414 147 q 364 30 408 74 q 251 -14 319 -14 m 319 896 l 467 1090 l 606 1090 l 451 896 l 319 896 z "},"Ϗ":{"ha":833,"x_min":128,"x_max":806,"o":"m 128 0 l 128 1014 l 253 1014 l 253 578 l 403 578 l 628 1014 l 764 1014 l 513 525 l 728 99 l 806 99 l 806 0 q 740 -186 806 -122 q 546 -250 674 -250 l 506 -250 l 506 -140 l 546 -140 q 647 -102 608 -140 q 686 0 686 -64 l 635 0 l 399 468 l 253 468 l 253 0 l 128 0 z "},"ϕ":{"ha":833,"x_min":67,"x_max":767,"o":"m 354 -250 l 354 0 q 204 40 269 3 q 103 144 139 78 q 67 294 67 210 l 67 472 q 103 622 67 557 q 204 725 139 688 q 354 764 269 763 l 354 1014 l 479 1014 l 479 764 q 630 725 565 763 q 731 622 694 688 q 767 472 767 557 l 767 294 q 731 144 767 210 q 630 40 694 78 q 479 0 565 3 l 479 -250 l 354 -250 m 364 99 l 364 665 q 233 617 281 665 q 185 486 185 568 l 185 281 q 233 148 185 197 q 364 99 281 99 m 469 99 q 601 148 553 99 q 649 281 649 197 l 649 486 q 601 617 649 568 q 469 665 553 665 l 469 99 z "},"ϖ":{"ha":833,"x_min":21,"x_max":813,"o":"m 251 -14 q 124 46 171 -14 q 76 210 76 106 l 76 471 q 103 581 76 535 q 181 650 131 626 l 21 650 l 21 764 l 813 764 l 813 650 l 653 650 q 730 581 703 626 q 757 471 757 535 l 757 210 q 710 46 757 106 q 582 -14 664 -14 q 471 26 514 -14 q 417 135 428 65 q 364 26 407 65 q 251 -14 321 -14 m 279 92 q 342 122 319 92 q 365 208 365 153 l 365 479 l 468 479 l 468 208 q 491 122 468 153 q 554 92 514 92 q 639 208 639 92 l 639 533 q 554 650 639 650 l 279 650 q 194 533 194 650 l 194 208 q 279 92 194 92 z "},"ϗ":{"ha":833,"x_min":128,"x_max":764,"o":"m 128 0 l 128 764 l 247 764 l 247 353 q 245 229 247 293 q 232 125 243 165 l 550 764 l 706 764 l 706 99 l 764 99 l 764 0 q 698 -186 764 -122 q 504 -250 632 -250 l 464 -250 l 464 -140 l 504 -140 q 606 -102 567 -140 q 644 0 644 -64 l 586 0 l 586 413 q 588 538 586 474 q 601 642 590 601 l 283 0 l 128 0 z "}}}
